<svg id="svg" xmlns="http://www.w3.org/2000/svg" xmlns:xlink="http://www.w3.org/1999/xlink" width="400" height="364.1231593038822" viewBox="0, 0, 400,364.1231593038822" version="1.1"><g id="svgg"><path id="path0" d="M134.335 40.345 C 133.985 40.425,133.698 40.724,133.698 41.010 C 133.698 41.296,133.379 41.530,132.991 41.530 C 132.602 41.530,132.168 41.717,132.026 41.946 C 131.847 42.236,130.650 42.302,128.089 42.163 C 121.931 41.830,119.779 42.404,121.434 43.939 C 122.962 45.356,126.438 46.117,128.980 45.592 C 133.366 44.686,136.752 45.296,139.212 47.434 C 140.155 48.254,142.803 52.143,142.807 52.715 C 142.809 52.875,143.038 53.443,143.317 53.978 C 143.596 54.512,143.941 55.660,144.084 56.528 C 144.227 57.396,144.472 58.270,144.627 58.470 C 144.782 58.670,145.023 59.530,145.164 60.381 C 145.304 61.231,145.550 62.008,145.710 62.107 C 145.870 62.206,146.109 62.863,146.241 63.566 C 146.373 64.270,146.638 64.845,146.829 64.845 C 147.020 64.845,147.177 65.161,147.177 65.548 C 147.177 65.934,147.423 66.496,147.723 66.797 C 148.024 67.097,148.270 67.505,148.270 67.702 C 148.270 68.127,150.298 70.267,151.497 71.107 C 152.854 72.058,150.354 75.014,147.701 75.596 C 147.112 75.725,146.288 75.995,145.870 76.196 C 143.886 77.151,133.922 75.562,130.363 73.723 C 129.831 73.449,129.093 73.223,128.723 73.222 C 128.354 73.221,127.581 72.975,127.008 72.675 C 126.434 72.376,125.735 72.131,125.454 72.131 C 125.174 72.131,124.628 71.933,124.240 71.691 C 123.523 71.243,119.549 71.746,113.780 73.014 C 111.424 73.532,109.190 74.681,110.539 74.681 C 111.582 74.681,119.126 78.258,119.126 78.753 C 119.126 78.918,119.355 79.053,119.634 79.053 C 119.914 79.053,121.339 79.976,122.799 81.105 C 125.327 83.058,126.627 84.180,129.706 87.067 C 131.926 89.149,132.163 89.279,134.156 89.503 C 135.206 89.621,136.235 89.850,136.442 90.011 C 136.649 90.172,137.059 90.152,137.353 89.967 C 137.647 89.781,138.543 89.625,139.344 89.621 C 140.146 89.617,141.222 89.393,141.736 89.125 C 142.251 88.857,143.151 88.517,143.736 88.370 C 144.322 88.223,144.885 87.993,144.987 87.858 C 145.089 87.724,146.403 86.976,147.905 86.197 C 152.236 83.951,154.716 84.264,158.228 87.499 C 161.512 90.524,166.506 93.627,168.939 94.154 C 169.588 94.294,170.213 94.561,170.327 94.746 C 170.441 94.931,170.827 95.082,171.185 95.082 C 172.047 95.082,173.770 96.588,173.770 97.340 C 173.770 97.668,173.919 97.990,174.100 98.057 C 175.505 98.576,175.573 123.789,174.172 124.954 C 173.860 125.213,173.861 125.204,173.574 132.240 C 173.431 135.747,173.212 138.780,173.087 138.980 C 172.962 139.180,172.672 142.951,172.444 147.359 C 172.215 151.767,171.947 155.947,171.849 156.648 C 171.750 157.350,171.556 161.858,171.417 166.667 C 171.277 171.475,171.082 175.656,170.982 175.956 C 170.397 177.714,169.607 206.748,169.604 226.594 C 169.601 246.129,169.657 246.944,171.193 249.679 C 171.581 250.368,171.786 251.043,171.650 251.179 C 171.514 251.316,171.566 251.378,171.767 251.318 C 171.967 251.259,172.730 251.819,173.461 252.563 C 174.192 253.307,174.692 253.916,174.571 253.916 C 174.450 253.916,175.409 254.455,176.702 255.113 C 185.110 259.395,193.664 260.006,202.368 256.947 C 203.770 256.454,205.443 255.893,206.084 255.700 C 206.725 255.507,207.708 255.110,208.269 254.817 C 208.830 254.524,209.577 254.284,209.927 254.283 C 210.278 254.282,210.565 254.131,210.565 253.948 C 210.565 253.765,211.220 253.505,212.022 253.370 C 212.823 253.234,213.479 252.974,213.479 252.791 C 213.479 252.609,213.848 252.458,214.299 252.457 C 214.750 252.456,215.568 252.220,216.118 251.933 C 217.047 251.449,219.802 250.871,220.542 251.005 C 220.720 251.038,220.987 250.868,221.135 250.628 C 221.485 250.063,230.345 249.977,231.034 250.532 C 231.297 250.744,232.029 251.028,232.660 251.163 C 234.223 251.497,236.461 252.671,236.142 252.989 C 236.000 253.132,236.129 253.194,236.430 253.127 C 236.730 253.060,237.097 252.842,237.244 252.641 C 237.620 252.129,237.590 246.266,237.211 246.266 C 237.040 246.266,236.780 241.310,236.634 235.252 C 236.488 229.194,236.259 224.071,236.126 223.868 C 235.992 223.664,235.677 219.317,235.425 214.208 C 235.173 209.098,234.903 204.344,234.824 203.643 C 234.746 202.942,234.479 198.843,234.232 194.536 C 233.985 190.228,233.733 186.211,233.671 185.610 C 233.397 182.930,232.642 171.965,232.624 170.401 C 232.614 169.449,232.505 168.670,232.382 168.670 C 232.260 168.670,232.040 165.924,231.894 162.568 C 231.748 159.212,231.545 155.974,231.442 155.373 C 231.340 154.772,231.116 151.903,230.945 148.998 C 230.774 146.093,230.466 142.404,230.261 140.801 C 229.841 137.527,229.315 129.735,228.712 117.851 C 228.488 113.443,228.178 109.752,228.022 109.648 C 227.866 109.545,227.688 106.985,227.627 103.959 L 227.517 98.457 228.768 97.407 C 229.457 96.829,230.151 96.398,230.311 96.448 C 230.470 96.498,230.601 96.384,230.601 96.195 C 230.601 96.005,230.985 95.636,231.455 95.375 C 231.924 95.114,233.483 94.121,234.919 93.169 C 236.355 92.218,237.702 91.439,237.912 91.439 C 238.122 91.439,238.193 91.275,238.069 91.075 C 237.945 90.874,238.016 90.710,238.225 90.710 C 238.552 90.710,247.229 85.121,248.270 84.240 C 249.060 83.571,254.116 80.343,254.385 80.336 C 254.542 80.331,254.788 80.164,254.931 79.964 C 255.327 79.408,257.480 77.960,257.909 77.960 C 258.117 77.960,258.288 77.796,258.288 77.596 C 258.288 77.395,258.440 77.231,258.625 77.231 C 258.811 77.231,260.201 76.412,261.713 75.410 C 265.017 73.222,264.145 73.222,268.636 75.410 C 270.692 76.412,272.615 77.231,272.909 77.231 C 273.202 77.231,273.648 77.436,273.898 77.687 C 274.491 78.280,281.514 78.323,281.889 77.736 C 282.032 77.512,282.528 77.211,282.991 77.067 C 283.454 76.922,284.013 76.408,284.234 75.925 C 284.454 75.441,284.757 75.046,284.908 75.046 C 285.059 75.046,285.292 74.396,285.426 73.603 C 285.690 72.036,288.360 68.852,289.410 68.852 C 289.725 68.852,289.982 68.716,289.982 68.550 C 289.982 68.288,291.150 67.917,294.171 67.217 C 294.572 67.125,295.711 66.857,296.702 66.622 L 298.504 66.195 297.066 64.951 C 293.649 61.992,293.050 61.734,291.143 62.398 C 290.204 62.725,288.819 63.100,288.065 63.231 C 287.312 63.363,286.611 63.606,286.508 63.773 C 286.406 63.939,285.586 64.185,284.686 64.320 C 283.787 64.455,282.970 64.696,282.872 64.856 C 282.688 65.153,279.840 65.773,279.299 65.633 C 279.134 65.591,279.095 65.712,279.213 65.902 C 279.459 66.301,275.699 66.856,274.880 66.541 C 273.959 66.188,274.309 63.801,275.553 61.949 C 276.953 59.864,277.987 58.976,278.689 59.256 C 278.989 59.376,279.645 59.534,280.146 59.607 C 280.811 59.703,280.754 59.643,279.933 59.383 C 278.860 59.043,277.960 57.788,277.960 56.631 C 277.960 56.257,277.534 56.102,276.503 56.102 C 275.306 56.102,275.046 55.976,275.046 55.398 C 275.046 55.011,274.539 54.334,273.919 53.892 C 272.848 53.129,272.815 53.126,273.255 53.830 C 273.641 54.448,273.617 54.668,273.106 55.179 C 272.770 55.515,272.495 55.936,272.495 56.115 C 272.495 57.854,262.368 65.384,261.091 64.594 C 260.890 64.470,260.831 64.539,260.960 64.748 C 261.103 64.979,260.557 65.223,259.568 65.372 C 258.673 65.506,257.858 65.749,257.758 65.911 C 257.658 66.073,256.715 66.320,255.664 66.460 C 254.613 66.599,253.584 66.845,253.379 67.006 C 253.173 67.167,252.131 67.410,251.061 67.546 C 249.992 67.682,248.844 67.942,248.511 68.124 C 248.178 68.306,246.922 68.637,245.719 68.860 C 240.802 69.772,239.140 70.142,238.707 70.422 C 238.456 70.584,238.080 70.611,237.871 70.482 C 237.662 70.353,237.293 70.406,237.051 70.599 C 236.810 70.793,236.038 71.042,235.337 71.152 C 234.636 71.262,232.013 71.772,229.508 72.285 C 223.766 73.463,219.505 73.248,217.577 71.683 C 217.327 71.480,217.122 71.429,217.122 71.571 C 217.122 71.892,214.325 69.715,213.162 68.488 C 211.219 66.440,211.197 66.339,211.341 60.035 L 211.475 54.137 208.925 53.284 C 206.402 52.440,204.843 51.837,201.991 50.600 C 201.183 50.249,200.052 49.844,199.479 49.701 L 198.437 49.439 198.679 51.587 C 200.154 64.654,197.694 73.224,192.467 73.224 C 191.456 73.224,186.072 71.908,185.125 71.429 C 184.791 71.260,183.616 70.734,182.514 70.261 C 181.412 69.788,180.293 69.196,180.029 68.945 C 179.764 68.694,179.313 68.488,179.027 68.488 C 178.741 68.488,178.505 68.365,178.504 68.215 C 178.503 68.065,177.890 67.532,177.142 67.031 C 176.395 66.530,175.067 65.410,174.191 64.543 L 172.600 62.965 174.369 61.364 C 175.342 60.483,176.384 59.542,176.685 59.273 C 179.959 56.341,189.319 50.638,190.857 50.638 C 191.077 50.638,191.257 50.474,191.257 50.273 C 191.257 50.073,191.503 49.909,191.803 49.909 C 192.104 49.909,192.350 49.721,192.350 49.491 C 192.350 49.192,191.369 49.132,188.889 49.280 C 184.911 49.517,184.918 49.525,186.749 46.768 C 187.475 45.674,188.008 44.720,187.933 44.650 C 186.931 43.706,182.878 42.976,182.878 43.739 C 182.878 44.495,177.893 49.119,173.507 52.429 C 168.849 55.946,166.340 58.437,164.787 61.086 C 163.399 63.455,161.753 63.612,159.581 61.584 C 158.970 61.013,158.470 60.638,158.470 60.750 C 158.470 61.742,151.951 53.844,150.425 51.003 C 149.941 50.102,149.442 49.282,149.317 49.181 C 149.192 49.081,148.974 48.465,148.833 47.814 C 148.692 47.163,148.438 46.630,148.270 46.630 C 148.101 46.630,147.849 46.097,147.709 45.446 C 147.570 44.795,147.352 44.098,147.225 43.898 C 147.098 43.698,146.829 42.796,146.628 41.894 L 146.261 40.255 140.617 40.227 C 137.512 40.211,134.686 40.264,134.335 40.345 M234.244 42.309 C 234.244 42.482,234.654 42.623,235.155 42.623 C 235.656 42.623,236.066 42.560,236.066 42.483 C 236.066 42.406,235.656 42.265,235.155 42.169 C 234.654 42.074,234.244 42.137,234.244 42.309 M238.173 42.528 C 239.231 42.601,240.870 42.601,241.815 42.526 C 242.761 42.451,241.894 42.391,239.891 42.392 C 237.887 42.393,237.114 42.454,238.173 42.528 M108.197 47.682 C 108.197 47.981,110.027 48.929,110.224 48.732 C 110.285 48.670,109.854 48.344,109.266 48.006 C 108.678 47.669,108.197 47.523,108.197 47.682 M115.392 48.709 C 115.842 48.796,116.580 48.796,117.031 48.709 C 117.482 48.622,117.113 48.551,116.211 48.551 C 115.310 48.551,114.941 48.622,115.392 48.709 M45.537 49.755 L 44.627 50.304 45.537 50.065 C 46.038 49.934,46.604 49.682,46.794 49.504 C 47.351 48.984,46.552 49.143,45.537 49.755 M119.020 53.552 C 118.915 53.952,118.978 54.372,119.160 54.484 C 119.341 54.596,119.490 54.268,119.490 53.756 C 119.490 52.639,119.282 52.549,119.020 53.552 M120.779 56.918 C 120.989 57.464,122.410 58.433,122.393 58.018 C 122.387 57.866,121.980 57.449,121.489 57.092 C 120.927 56.683,120.664 56.618,120.779 56.918 M127.104 59.921 C 127.786 60.231,128.428 60.400,128.531 60.297 C 128.824 60.004,128.517 59.849,127.140 59.594 L 125.865 59.358 127.104 59.921 M133.204 64.117 C 133.492 65.688,133.699 65.984,133.692 64.815 C 133.689 64.331,133.525 63.689,133.328 63.388 C 133.076 63.004,133.039 63.220,133.204 64.117 M130.425 69.602 C 129.726 69.991,129.421 70.310,129.747 70.310 C 130.072 70.310,130.725 69.987,131.198 69.593 C 132.278 68.694,132.049 68.696,130.425 69.602 M64.299 74.317 C 65.311 74.752,66.302 74.752,66.302 74.317 C 66.302 74.117,65.688 73.964,64.936 73.978 C 63.840 73.999,63.714 74.066,64.299 74.317 M68.124 74.348 C 67.730 74.625,68.283 74.671,70.107 74.514 C 71.499 74.395,72.714 74.219,72.809 74.125 C 73.168 73.766,68.645 73.982,68.124 74.348 M80.510 74.317 C 80.510 74.517,80.961 74.670,81.512 74.656 C 82.400 74.633,82.431 74.594,81.785 74.317 C 80.790 73.889,80.510 73.889,80.510 74.317 M89.617 75.419 C 89.617 75.614,90.219 75.774,90.953 75.774 C 92.515 75.774,92.462 75.605,90.801 75.289 C 90.121 75.160,89.617 75.215,89.617 75.419 M96.266 76.035 C 96.817 76.119,97.719 76.119,98.270 76.035 C 98.821 75.952,98.370 75.883,97.268 75.883 C 96.166 75.883,95.715 75.952,96.266 76.035 M277.268 344.158 C 271.110 344.945,270.520 352.235,276.388 355.022 C 277.427 355.516,278.411 355.925,278.574 355.932 C 280.273 356.001,281.254 359.230,279.998 360.618 C 279.216 361.482,273.959 361.589,273.679 360.747 C 273.387 359.869,272.637 360.304,272.158 361.629 C 270.717 365.613,281.563 365.313,283.642 361.311 C 285.526 357.685,281.687 351.945,277.355 351.910 C 276.585 351.904,275.352 349.423,275.749 348.681 C 276.720 346.866,278.747 346.352,280.832 347.392 C 282.307 348.128,282.927 347.885,283.242 346.447 C 283.543 345.079,282.756 344.295,281.056 344.269 C 280.455 344.260,279.636 344.196,279.235 344.126 C 278.834 344.057,277.949 344.072,277.268 344.158 M108.804 344.505 C 108.670 344.639,108.557 345.991,108.552 347.511 C 108.547 349.030,108.396 350.929,108.217 351.730 C 108.037 352.532,107.775 355.688,107.633 358.743 L 107.375 364.299 108.840 364.299 C 110.757 364.299,110.770 364.256,111.092 356.919 C 111.373 350.503,111.590 349.344,111.999 352.069 C 112.135 352.976,112.382 353.801,112.548 353.904 C 112.714 354.006,112.962 354.686,113.098 355.414 C 113.235 356.142,113.485 357.005,113.655 357.331 C 113.824 357.657,114.316 359.068,114.748 360.466 C 115.711 363.587,115.986 363.934,117.495 363.934 C 118.685 363.934,119.730 362.481,119.526 361.111 C 119.489 360.861,119.615 360.656,119.806 360.656 C 119.998 360.656,120.265 360.001,120.400 359.200 C 120.536 358.400,120.796 357.653,120.979 357.540 C 121.162 357.427,121.317 357.057,121.324 356.718 C 121.331 356.379,121.653 355.446,122.040 354.645 C 122.427 353.843,122.750 352.910,122.756 352.572 C 122.763 352.233,122.917 351.864,123.097 351.752 C 123.451 351.534,123.734 353.716,124.061 359.199 C 124.360 364.206,124.397 364.299,126.087 364.299 C 127.483 364.299,127.504 364.278,127.498 362.933 C 127.490 361.279,126.793 347.511,126.626 345.719 L 126.508 344.444 124.456 344.335 C 122.960 344.256,122.404 344.354,122.402 344.699 C 122.401 344.960,122.161 345.631,121.869 346.190 C 121.577 346.750,121.232 347.774,121.102 348.467 C 120.972 349.160,120.739 349.727,120.583 349.727 C 120.427 349.727,120.193 350.294,120.063 350.986 C 119.933 351.679,119.588 352.704,119.296 353.263 C 119.005 353.823,118.765 354.488,118.764 354.741 C 118.762 354.994,118.614 355.486,118.435 355.834 C 118.255 356.182,117.948 356.876,117.752 357.377 C 117.412 358.247,117.377 358.215,116.971 356.648 C 116.737 355.747,116.401 354.681,116.225 354.281 C 116.049 353.880,115.523 352.404,115.056 351.002 C 114.590 349.599,114.085 348.397,113.934 348.330 C 113.784 348.264,113.661 347.878,113.661 347.475 C 113.661 345.030,110.321 342.988,108.804 344.505 M141.877 344.724 C 141.779 344.977,141.743 349.445,141.797 354.651 L 141.894 364.117 147.632 364.217 L 153.370 364.317 153.370 362.851 L 153.370 361.384 149.362 361.384 L 145.355 361.384 145.355 358.483 L 145.355 355.582 148.907 355.478 L 152.459 355.373 152.459 353.916 L 152.459 352.459 148.907 352.355 L 145.355 352.250 145.355 349.714 L 145.355 347.177 149.010 347.177 C 152.967 347.177,153.313 346.996,152.856 345.172 L 152.627 344.262 147.340 344.262 C 143.411 344.262,142.008 344.381,141.877 344.724 M167.092 344.505 C 165.738 345.859,167.142 360.438,168.816 362.403 C 171.949 366.081,180.651 364.300,181.208 359.866 C 181.225 359.733,181.362 359.501,181.512 359.350 C 181.662 359.200,181.785 355.734,181.785 351.649 L 181.785 344.220 180.237 344.332 L 178.689 344.444 178.500 351.548 C 178.268 360.252,177.785 361.384,174.306 361.384 C 170.997 361.384,170.492 360.147,170.492 352.043 C 170.492 348.398,170.392 345.155,170.271 344.839 C 170.047 344.255,167.598 343.998,167.092 344.505 M196.600 344.505 C 196.466 344.639,196.357 349.062,196.357 354.334 L 196.357 363.921 197.299 364.157 C 205.639 366.250,212.923 359.752,207.824 354.767 L 206.617 353.587 207.498 352.540 C 209.499 350.161,208.681 346.446,205.838 344.996 C 204.398 344.261,197.225 343.880,196.600 344.505 M223.115 344.724 C 223.018 344.977,222.982 349.445,223.036 354.651 L 223.133 364.117 228.871 364.217 L 234.608 364.317 234.608 362.851 L 234.608 361.384 230.419 361.384 L 226.230 361.384 226.230 352.823 L 226.230 344.262 224.761 344.262 C 223.912 344.262,223.218 344.457,223.115 344.724 M247.723 354.271 L 247.723 364.299 253.574 364.299 L 259.425 364.299 259.312 362.933 L 259.199 361.566 255.100 361.463 L 251.002 361.360 251.002 358.471 L 251.002 355.582 254.554 355.478 L 258.106 355.373 258.218 353.825 L 258.330 352.277 254.666 352.277 L 251.002 352.277 251.002 349.739 L 251.002 347.201 254.918 347.098 L 258.834 346.995 258.834 345.719 L 258.834 344.444 253.279 344.344 L 247.723 344.243 247.723 354.271 M203.451 347.323 C 206.761 349.040,205.406 352.257,201.366 352.272 L 200.000 352.277 200.000 349.787 C 200.000 346.607,200.872 345.985,203.451 347.323 M203.510 355.606 C 207.475 356.604,206.102 361.384,201.850 361.384 L 200.000 361.384 200.000 358.288 C 200.000 354.763,200.041 354.732,203.510 355.606 " stroke="none" fill="#5c442c" fill-rule="evenodd"></path><path id="path1" d="M71.550 44.752 C 71.714 45.018,71.534 45.173,71.060 45.173 C 70.647 45.173,70.310 45.322,70.310 45.503 C 70.310 45.885,71.689 45.594,71.961 45.154 C 72.061 44.992,71.951 44.740,71.717 44.595 C 71.450 44.431,71.388 44.490,71.550 44.752 M343.307 44.856 C 343.409 45.392,344.991 46.021,344.991 45.526 C 344.991 45.332,344.677 45.173,344.293 45.173 C 343.909 45.173,343.511 45.005,343.409 44.800 C 343.307 44.594,343.261 44.620,343.307 44.856 M59.927 46.450 C 60.778 46.747,63.024 46.824,63.024 46.557 C 63.024 46.397,62.245 46.279,61.293 46.295 C 60.342 46.311,59.727 46.381,59.927 46.450 M252.755 46.879 C 253.126 47.027,253.093 47.224,252.607 47.761 C 251.853 48.594,252.168 48.690,252.983 47.876 C 253.590 47.269,253.443 46.610,252.711 46.659 C 252.420 46.678,252.434 46.751,252.755 46.879 M139.891 48.634 C 140.361 49.135,140.803 49.545,140.873 49.545 C 140.943 49.545,140.732 49.135,140.404 48.634 C 140.075 48.133,139.633 47.723,139.421 47.723 C 139.209 47.723,139.420 48.133,139.891 48.634 M38.434 51.990 C 37.318 52.259,36.975 52.757,38.047 52.552 C 38.566 52.453,39.080 52.228,39.189 52.051 C 39.298 51.875,39.337 51.749,39.275 51.773 C 39.213 51.796,38.834 51.894,38.434 51.990 M119.733 51.973 C 119.399 52.307,119.425 55.290,119.763 55.499 C 119.913 55.592,120.036 54.783,120.036 53.700 C 120.036 52.618,120.023 51.732,120.006 51.731 C 119.989 51.731,119.866 51.840,119.733 51.973 M35.113 53.614 C 33.714 54.667,33.095 55.311,34.244 54.518 C 34.745 54.172,35.442 53.794,35.792 53.678 C 36.143 53.562,36.430 53.322,36.430 53.145 C 36.430 52.681,36.284 52.733,35.113 53.614 M272.495 53.507 C 272.495 53.732,272.647 53.916,272.833 53.916 C 273.019 53.916,273.246 54.203,273.337 54.554 C 273.478 55.092,273.510 55.099,273.546 54.598 C 273.569 54.272,273.342 53.801,273.042 53.552 C 272.664 53.239,272.495 53.225,272.495 53.507 M257.195 54.736 C 257.195 54.886,257.605 55.009,258.106 55.009 C 258.607 55.009,259.016 54.886,259.016 54.736 C 259.016 54.586,258.607 54.463,258.106 54.463 C 257.605 54.463,257.195 54.586,257.195 54.736 M32.662 56.177 C 32.366 57.309,32.591 57.367,33.084 56.286 C 33.313 55.784,33.359 55.373,33.186 55.373 C 33.013 55.373,32.777 55.735,32.662 56.177 M270.188 58.379 C 269.821 58.763,269.590 59.146,269.674 59.231 C 269.759 59.316,270.127 59.055,270.492 58.652 C 271.347 57.707,271.070 57.457,270.188 58.379 M276.936 60.153 C 276.297 60.777,275.774 61.460,275.774 61.670 C 275.774 61.880,275.815 61.982,275.865 61.896 C 275.915 61.811,276.521 61.128,277.212 60.378 C 278.734 58.727,278.549 58.576,276.936 60.153 M36.916 62.113 C 36.916 62.425,37.065 62.630,37.247 62.569 C 37.429 62.509,37.577 62.303,37.577 62.113 C 37.577 61.923,37.429 61.717,37.247 61.657 C 37.065 61.596,36.916 61.801,36.916 62.113 M291.257 61.931 C 291.133 62.131,290.713 62.295,290.325 62.295 C 289.936 62.295,289.617 62.450,289.617 62.640 C 289.617 62.850,290.047 62.836,290.710 62.605 C 291.311 62.395,291.803 62.076,291.803 61.895 C 291.803 61.460,291.537 61.478,291.257 61.931 M172.947 62.519 C 172.714 62.895,173.253 64.038,173.523 63.742 C 173.609 63.647,173.564 63.253,173.423 62.866 C 173.283 62.478,173.068 62.322,172.947 62.519 M51.366 67.031 L 50.091 67.299 51.254 67.347 C 51.893 67.374,52.517 67.231,52.641 67.031 C 52.765 66.831,52.816 66.688,52.754 66.715 C 52.692 66.741,52.067 66.883,51.366 67.031 M54.827 67.296 C 55.428 67.381,56.076 67.603,56.266 67.788 C 56.456 67.973,56.775 68.124,56.973 68.124 C 57.172 68.124,57.016 67.883,56.627 67.589 C 56.238 67.295,55.428 67.073,54.827 67.097 L 53.734 67.140 54.827 67.296 M150.698 73.285 C 150.331 73.685,150.098 74.081,150.181 74.164 C 150.263 74.246,150.715 73.905,151.185 73.405 C 151.655 72.905,151.888 72.509,151.703 72.526 C 151.518 72.543,151.066 72.884,150.698 73.285 M74.218 74.216 C 74.864 74.296,76.012 74.297,76.768 74.219 C 77.524 74.140,76.995 74.074,75.592 74.072 C 74.189 74.071,73.571 74.135,74.218 74.216 M95.320 76.230 C 95.413 76.380,96.290 76.503,97.268 76.503 C 98.246 76.503,99.122 76.380,99.215 76.230 C 99.308 76.079,98.432 75.956,97.268 75.956 C 96.104 75.956,95.228 76.079,95.320 76.230 M128.233 86.081 C 128.534 86.341,129.005 86.793,129.280 87.084 C 129.707 87.537,129.722 87.502,129.381 86.837 C 129.161 86.410,128.691 85.959,128.334 85.834 C 127.770 85.638,127.757 85.670,128.233 86.081 M233.782 93.820 C 233.034 94.328,232.423 94.822,232.423 94.918 C 232.423 95.014,233.078 94.658,233.880 94.128 C 235.152 93.286,235.582 92.896,235.239 92.896 C 235.186 92.896,234.530 93.312,233.782 93.820 M168.306 94.111 C 168.306 94.205,168.835 94.467,169.482 94.692 C 170.128 94.917,170.497 94.952,170.301 94.769 C 169.887 94.380,168.306 93.859,168.306 94.111 M175.359 108.925 C 175.359 110.829,175.420 111.607,175.495 110.656 C 175.571 109.704,175.571 108.147,175.495 107.195 C 175.420 106.243,175.359 107.022,175.359 108.925 M229.055 125.865 C 229.150 126.366,229.292 126.776,229.369 126.776 C 229.445 126.776,229.508 126.366,229.508 125.865 C 229.508 125.364,229.367 124.954,229.194 124.954 C 229.022 124.954,228.959 125.364,229.055 125.865 M230.159 140.619 C 230.247 141.220,230.383 141.712,230.460 141.712 C 230.538 141.712,230.601 141.220,230.601 140.619 C 230.601 140.018,230.466 139.526,230.300 139.526 C 230.134 139.526,230.071 140.018,230.159 140.619 M232.522 170.492 C 232.522 171.393,232.593 171.762,232.680 171.311 C 232.767 170.861,232.767 170.123,232.680 169.672 C 232.593 169.221,232.522 169.590,232.522 170.492 M170.584 177.960 C 170.588 178.761,170.662 179.046,170.749 178.593 C 170.837 178.140,170.833 177.484,170.742 177.136 C 170.651 176.788,170.580 177.158,170.584 177.960 M233.438 183.607 C 233.526 184.208,233.662 184.699,233.739 184.699 C 233.816 184.699,233.880 184.208,233.880 183.607 C 233.880 183.005,233.744 182.514,233.579 182.514 C 233.413 182.514,233.350 183.005,233.438 183.607 M234.604 200.290 L 234.781 202.732 234.897 200.584 C 234.960 199.403,234.880 198.304,234.719 198.142 C 234.558 197.980,234.506 198.947,234.604 200.290 M169.449 205.738 C 169.500 208.286,169.653 208.003,169.841 205.009 C 169.902 204.057,169.826 203.279,169.675 203.279 C 169.523 203.279,169.421 204.385,169.449 205.738 M197.086 258.288 L 195.811 258.556 196.973 258.604 C 197.612 258.631,198.237 258.488,198.361 258.288 C 198.484 258.087,198.535 257.945,198.473 257.971 C 198.411 257.998,197.787 258.140,197.086 258.288 M54.281 279.053 L 54.281 281.967 58.288 281.967 L 62.295 281.967 62.295 292.168 L 62.295 302.368 65.574 302.368 L 68.852 302.368 68.852 292.168 L 68.852 281.967 72.860 281.967 L 76.867 281.967 76.867 279.053 L 76.867 276.138 65.574 276.138 L 54.281 276.138 54.281 279.053 M99.454 289.253 L 99.454 302.368 108.743 302.368 L 118.033 302.368 118.033 299.271 L 118.033 296.175 112.204 296.175 L 106.375 296.175 106.375 293.989 L 106.375 291.803 111.475 291.803 L 116.576 291.803 116.576 288.889 L 116.576 285.974 111.475 285.974 L 106.375 285.974 106.375 283.971 L 106.375 281.967 112.204 281.967 L 118.033 281.967 118.033 279.053 L 118.033 276.138 108.743 276.138 L 99.454 276.138 99.454 289.253 M141.712 289.253 L 141.712 302.368 145.173 302.368 L 148.634 302.368 148.634 292.168 L 148.634 281.967 150.820 281.967 C 152.034 281.967,153.005 282.129,153.005 282.332 C 153.005 282.532,153.215 282.696,153.471 282.696 C 154.293 282.696,155.191 284.124,155.191 285.432 C 155.191 287.454,154.200 288.160,151.366 288.160 C 149.241 288.160,148.998 288.235,148.998 288.889 C 148.998 289.290,149.144 289.617,149.323 289.617 C 149.502 289.617,149.761 290.067,149.898 290.616 C 150.036 291.165,150.259 291.697,150.393 291.800 C 150.528 291.902,151.047 292.802,151.548 293.800 C 152.049 294.799,152.664 295.835,152.914 296.103 C 153.165 296.372,153.370 296.825,153.370 297.112 C 153.370 297.398,153.521 297.632,153.705 297.632 C 153.890 297.632,154.148 298.124,154.281 298.725 C 154.413 299.326,154.654 299.818,154.816 299.818 C 154.979 299.818,155.225 300.267,155.363 300.816 C 155.721 302.245,156.060 302.356,160.064 302.362 L 163.661 302.368 163.428 301.202 C 163.300 300.561,163.071 299.946,162.920 299.836 C 162.768 299.726,162.444 299.226,162.199 298.725 C 161.652 297.606,160.914 296.419,160.614 296.175 C 160.490 296.075,160.275 295.624,160.134 295.173 C 159.993 294.722,159.743 294.353,159.578 294.353 C 158.546 294.353,158.866 292.392,160.093 291.201 C 160.803 290.511,161.384 289.640,161.384 289.266 C 161.384 288.892,161.574 288.522,161.807 288.445 C 162.975 288.055,161.832 279.781,160.610 279.781 C 160.462 279.781,160.237 279.454,160.110 279.054 C 159.983 278.653,159.492 278.229,159.018 278.110 C 158.545 277.991,158.070 277.663,157.961 277.381 C 157.853 277.098,157.349 276.867,156.842 276.867 C 156.335 276.867,155.920 276.703,155.920 276.503 C 155.920 276.272,153.309 276.138,148.816 276.138 L 141.712 276.138 141.712 289.253 M192.867 277.035 C 192.739 277.544,192.503 277.960,192.342 277.960 C 192.181 277.960,191.939 278.615,191.804 279.415 C 191.668 280.216,191.427 280.952,191.266 281.051 C 191.106 281.150,190.867 281.806,190.735 282.510 C 190.603 283.213,190.349 283.789,190.170 283.789 C 189.991 283.789,189.734 284.526,189.598 285.428 C 189.463 286.330,189.226 287.067,189.070 287.067 C 188.915 287.067,188.680 287.641,188.549 288.342 C 188.417 289.044,188.163 289.617,187.984 289.617 C 187.805 289.617,187.548 290.355,187.413 291.257 C 187.277 292.158,187.021 292.896,186.844 292.896 C 186.666 292.896,186.520 293.183,186.519 293.534 C 186.517 293.884,186.287 294.611,186.007 295.149 C 185.726 295.686,185.379 296.670,185.234 297.334 C 185.090 297.999,184.811 298.645,184.614 298.771 C 184.417 298.896,184.170 299.757,184.066 300.684 L 183.876 302.368 187.362 302.368 L 190.848 302.368 191.094 300.729 C 191.229 299.827,191.464 299.089,191.616 299.089 C 191.767 299.089,192.000 298.270,192.133 297.268 C 192.266 296.266,192.527 295.446,192.714 295.446 C 192.901 295.446,193.162 294.627,193.295 293.625 C 193.428 292.623,193.661 291.803,193.812 291.803 C 193.964 291.803,194.199 291.066,194.334 290.164 C 194.470 289.262,194.732 288.525,194.918 288.525 C 195.104 288.525,195.360 287.869,195.489 287.067 C 195.617 286.266,195.863 285.610,196.035 285.610 C 196.207 285.610,196.453 286.266,196.581 287.067 C 196.710 287.869,196.947 288.525,197.110 288.525 C 197.272 288.525,197.516 289.262,197.651 290.164 C 197.786 291.066,198.032 291.803,198.198 291.803 C 198.363 291.803,198.609 292.541,198.744 293.443 C 198.879 294.344,199.120 295.082,199.279 295.082 C 199.437 295.082,199.680 295.902,199.818 296.903 C 199.956 297.905,200.211 298.725,200.386 298.725 C 200.561 298.725,200.812 299.545,200.945 300.546 L 201.187 302.368 204.783 302.368 C 206.761 302.368,208.379 302.277,208.379 302.165 C 208.379 301.628,207.513 298.499,207.275 298.179 C 207.127 297.978,206.892 297.281,206.753 296.630 C 206.613 295.979,206.359 295.446,206.186 295.446 C 206.014 295.446,205.763 294.709,205.628 293.807 C 205.492 292.905,205.255 292.168,205.099 292.168 C 204.944 292.168,204.709 291.594,204.578 290.893 C 204.446 290.191,204.192 289.617,204.013 289.617 C 203.834 289.617,203.577 288.880,203.442 287.978 C 203.307 287.077,203.069 286.339,202.914 286.339 C 202.758 286.339,202.524 285.765,202.392 285.064 C 202.260 284.362,202.017 283.789,201.852 283.789 C 201.686 283.789,201.440 283.097,201.304 282.251 C 201.169 281.406,200.931 280.627,200.775 280.521 C 200.619 280.415,200.245 279.426,199.943 278.324 L 199.395 276.321 196.247 276.215 C 193.144 276.112,193.096 276.123,192.867 277.035 M230.965 289.253 L 230.965 302.368 234.244 302.368 L 237.523 302.368 237.529 295.537 L 237.535 288.707 238.293 289.891 C 238.710 290.542,239.188 291.075,239.355 291.075 C 239.523 291.075,239.756 291.379,239.874 291.750 C 239.992 292.122,240.572 292.901,241.163 293.481 C 241.755 294.061,242.250 294.699,242.264 294.900 C 242.278 295.100,242.774 295.666,243.367 296.158 C 243.960 296.649,244.444 297.195,244.444 297.370 C 244.444 297.545,244.936 298.180,245.537 298.781 C 246.138 299.382,246.630 300.043,246.630 300.250 C 246.630 301.579,248.270 302.355,251.093 302.362 L 253.916 302.368 253.916 289.253 L 253.916 276.138 250.455 276.138 L 246.995 276.138 246.995 282.724 L 246.995 289.309 245.902 288.216 C 245.301 287.615,244.809 286.983,244.809 286.812 C 244.809 286.641,244.358 285.992,243.807 285.370 C 242.788 284.220,241.681 282.841,240.529 281.288 C 240.178 280.815,239.604 280.164,239.253 279.841 C 238.903 279.519,238.616 279.120,238.616 278.954 C 238.616 278.789,238.206 278.274,237.705 277.810 C 237.204 277.345,236.794 276.780,236.794 276.552 C 236.794 276.278,235.811 276.138,233.880 276.138 L 230.965 276.138 230.965 289.253 M286.339 276.503 C 286.339 276.703,285.951 276.867,285.477 276.867 C 285.003 276.867,284.199 277.195,283.689 277.596 C 283.180 277.996,282.669 278.324,282.554 278.324 C 282.255 278.324,279.781 280.765,279.781 281.060 C 279.781 281.195,279.454 281.723,279.053 282.232 C 278.652 282.742,278.324 283.532,278.324 283.990 C 278.324 284.447,278.126 284.887,277.884 284.968 C 276.630 285.386,277.783 295.811,279.083 295.811 C 279.224 295.811,279.445 296.236,279.575 296.755 C 279.835 297.791,281.974 300.182,282.642 300.182 C 282.872 300.182,283.060 300.328,283.060 300.507 C 283.060 300.686,283.509 300.944,284.058 301.082 C 284.607 301.220,285.175 301.525,285.320 301.759 C 285.668 302.320,293.905 302.353,294.276 301.795 C 294.811 300.990,295.811 300.896,295.811 301.651 C 295.811 302.304,296.069 302.368,298.725 302.368 L 301.639 302.368 301.639 295.264 L 301.639 288.160 298.725 288.160 L 295.811 288.160 295.811 291.075 C 295.811 293.197,295.684 293.989,295.345 293.989 C 295.089 293.989,294.599 294.317,294.256 294.718 C 293.913 295.118,293.302 295.446,292.900 295.446 C 292.497 295.446,292.168 295.610,292.168 295.811 C 292.168 296.011,291.348 296.175,290.346 296.175 C 289.344 296.175,288.525 296.011,288.525 295.811 C 288.525 295.610,288.291 295.446,288.006 295.446 C 287.258 295.446,285.246 293.324,285.246 292.534 C 285.246 292.166,285.051 291.799,284.813 291.720 C 284.242 291.529,284.264 286.606,284.837 286.415 C 285.062 286.339,285.246 286.080,285.246 285.838 C 285.246 285.096,287.749 282.696,288.524 282.696 C 288.925 282.696,289.253 282.532,289.253 282.332 C 289.253 282.131,289.663 281.967,290.164 281.967 C 290.665 281.967,291.075 282.111,291.075 282.286 C 291.075 282.461,291.577 282.705,292.191 282.828 C 293.317 283.053,295.446 284.855,295.446 285.582 C 295.446 285.798,295.699 285.974,296.008 285.974 C 296.595 285.974,296.962 285.719,298.757 284.062 C 299.355 283.511,300.001 283.060,300.195 283.060 C 300.911 283.060,300.569 280.522,299.766 279.869 C 299.336 279.520,298.726 278.948,298.410 278.597 C 298.093 278.247,297.625 277.960,297.369 277.960 C 297.113 277.960,296.903 277.809,296.903 277.625 C 296.903 277.440,296.412 277.181,295.811 277.049 C 295.209 276.917,294.718 276.658,294.718 276.474 C 294.718 276.289,292.837 276.138,290.528 276.138 C 287.978 276.138,286.339 276.281,286.339 276.503 M332.101 277.596 C 331.972 278.397,331.720 279.053,331.540 279.053 C 331.359 279.053,331.101 279.709,330.965 280.510 C 330.830 281.311,330.572 281.967,330.391 281.967 C 330.211 281.967,329.958 282.623,329.830 283.424 C 329.702 284.226,329.464 284.882,329.302 284.882 C 329.139 284.882,328.896 285.619,328.761 286.521 C 328.625 287.423,328.377 288.160,328.208 288.160 C 328.040 288.160,327.794 288.736,327.662 289.439 C 327.530 290.143,327.288 290.801,327.123 290.903 C 326.959 291.004,326.638 291.986,326.410 293.085 C 326.182 294.183,325.858 295.082,325.689 295.082 C 325.521 295.082,325.272 295.737,325.137 296.537 C 325.002 297.338,324.760 298.074,324.600 298.173 C 324.440 298.272,324.200 298.928,324.069 299.632 C 323.937 300.335,323.672 300.911,323.481 300.911 C 323.289 300.911,323.133 301.239,323.133 301.639 C 323.133 302.321,323.376 302.368,326.926 302.368 L 330.719 302.368 330.970 300.881 C 331.109 300.063,331.450 298.957,331.729 298.422 C 332.008 297.887,332.237 297.245,332.238 296.995 C 332.240 296.662,333.177 296.539,335.701 296.539 C 338.919 296.539,339.162 296.590,339.162 297.268 C 339.162 297.668,339.307 297.996,339.485 297.996 C 339.663 297.996,339.919 298.734,340.054 299.636 C 340.189 300.537,340.454 301.275,340.642 301.275 C 340.830 301.275,340.984 301.521,340.984 301.821 C 340.984 302.269,341.611 302.368,344.444 302.368 L 347.905 302.368 347.905 301.275 C 347.905 300.674,347.756 300.182,347.573 300.182 C 347.390 300.182,347.130 299.526,346.995 298.725 C 346.859 297.923,346.620 297.268,346.463 297.268 C 346.305 297.268,346.072 296.612,345.944 295.811 C 345.816 295.009,345.559 294.353,345.373 294.353 C 345.187 294.353,344.925 293.616,344.790 292.714 C 344.654 291.812,344.417 291.075,344.261 291.075 C 344.106 291.075,343.871 290.501,343.740 289.800 C 343.608 289.098,343.359 288.525,343.185 288.525 C 343.011 288.525,342.755 287.828,342.614 286.976 C 342.474 286.125,342.050 284.740,341.672 283.900 C 341.293 283.059,340.984 282.126,340.984 281.827 C 340.984 281.527,340.838 281.192,340.661 281.082 C 340.483 280.972,340.230 280.307,340.098 279.603 C 339.966 278.900,339.722 278.324,339.555 278.324 C 339.389 278.324,339.155 277.832,339.035 277.231 L 338.816 276.138 335.575 276.138 L 332.334 276.138 332.101 277.596 M336.271 287.268 C 336.441 287.478,336.690 288.339,336.825 289.180 C 336.959 290.022,337.212 290.710,337.387 290.710 C 337.562 290.710,337.705 290.956,337.705 291.257 C 337.705 291.683,337.216 291.803,335.495 291.803 C 333.341 291.803,332.654 290.904,334.094 289.971 C 334.258 289.865,334.503 289.086,334.638 288.240 C 334.773 287.395,335.027 286.703,335.201 286.703 C 335.376 286.703,335.538 286.416,335.561 286.066 C 335.596 285.549,335.638 285.567,335.783 286.157 C 335.881 286.557,336.101 287.057,336.271 287.268 M278.021 343.853 C 277.700 344.056,277.916 344.147,278.657 344.120 C 279.275 344.098,279.780 343.957,279.781 343.807 C 279.782 343.439,278.625 343.470,278.021 343.853 M148.998 347.177 L 145.173 347.398 149.089 347.470 C 151.505 347.514,153.005 347.401,153.005 347.177 C 153.005 346.976,152.964 346.844,152.914 346.884 C 152.864 346.923,151.102 347.055,148.998 347.177 M254.827 347.177 L 250.820 347.397 254.918 347.469 C 257.455 347.514,259.016 347.402,259.016 347.177 C 259.016 346.976,258.975 346.845,258.925 346.884 C 258.875 346.924,257.031 347.056,254.827 347.177 M204.163 348.113 C 204.478 348.428,204.736 348.838,204.736 349.024 C 204.736 349.210,204.904 349.362,205.109 349.362 C 205.314 349.362,205.213 348.953,204.885 348.452 C 204.556 347.951,204.131 347.541,203.939 347.541 C 203.748 347.541,203.849 347.799,204.163 348.113 M204.736 350.093 C 204.736 350.361,204.465 350.880,204.133 351.246 C 203.801 351.613,203.692 351.913,203.889 351.913 C 204.365 351.913,205.291 350.160,204.979 349.849 C 204.845 349.715,204.736 349.825,204.736 350.093 M152.459 353.881 C 152.459 354.764,152.582 355.410,152.732 355.317 C 152.883 355.224,153.005 354.502,153.005 353.713 C 153.005 352.923,152.883 352.277,152.732 352.277 C 152.582 352.277,152.459 352.999,152.459 353.881 M200.642 355.449 C 201.095 355.536,201.751 355.533,202.099 355.442 C 202.447 355.350,202.077 355.279,201.275 355.283 C 200.474 355.287,200.189 355.362,200.642 355.449 M278.700 356.176 C 278.706 356.336,279.116 356.761,279.611 357.121 C 280.105 357.481,280.505 357.645,280.499 357.485 C 280.492 357.326,280.082 356.900,279.588 356.540 C 279.093 356.180,278.694 356.016,278.700 356.176 M113.575 357.940 C 113.670 358.438,113.869 358.920,114.016 359.011 C 114.164 359.102,114.207 358.769,114.112 358.271 C 114.016 357.774,113.818 357.292,113.670 357.201 C 113.523 357.109,113.480 357.442,113.575 357.940 M127.629 361.566 C 127.631 363.169,127.695 363.780,127.772 362.923 C 127.849 362.066,127.848 360.755,127.769 360.009 C 127.691 359.263,127.628 359.964,127.629 361.566 M123.862 362.113 C 123.862 362.914,123.989 363.570,124.144 363.570 C 124.300 363.570,124.365 362.914,124.288 362.113 C 124.212 361.311,124.085 360.656,124.005 360.656 C 123.926 360.656,123.862 361.311,123.862 362.113 M234.708 362.842 C 234.708 363.743,234.779 364.112,234.865 363.661 C 234.952 363.210,234.952 362.473,234.865 362.022 C 234.779 361.571,234.708 361.940,234.708 362.842 " stroke="none" fill="#3c441c" fill-rule="evenodd"></path><path id="path2" d="M192.168 0.455 C 188.962 0.644,186.257 0.925,186.157 1.081 C 186.056 1.236,184.376 1.482,182.423 1.626 C 180.470 1.771,178.790 2.021,178.691 2.182 C 178.592 2.342,177.197 2.590,175.592 2.732 C 173.987 2.874,172.591 3.125,172.490 3.288 C 172.388 3.452,171.242 3.700,169.942 3.839 C 168.641 3.978,167.577 4.224,167.577 4.385 C 167.577 4.546,166.512 4.792,165.209 4.931 C 163.907 5.071,162.842 5.309,162.842 5.460 C 162.842 5.612,162.168 5.843,161.346 5.975 C 159.799 6.222,157.437 7.414,153.674 9.846 C 152.476 10.620,150.893 11.448,150.156 11.685 C 149.419 11.923,148.652 12.241,148.452 12.392 C 148.251 12.544,147.350 12.787,146.448 12.933 C 145.546 13.078,144.635 13.337,144.422 13.508 C 144.209 13.679,142.441 13.931,140.493 14.068 C 138.545 14.205,136.866 14.456,136.760 14.627 C 136.655 14.797,135.718 14.937,134.678 14.939 C 132.960 14.942,127.751 15.474,126.412 15.784 C 126.111 15.853,125.046 16.023,124.044 16.161 C 123.042 16.299,121.075 16.650,119.672 16.940 C 117.273 17.438,115.991 17.692,111.111 18.642 C 110.009 18.856,108.944 19.157,108.743 19.311 C 108.543 19.465,107.518 19.706,106.467 19.848 C 105.415 19.989,104.472 20.238,104.372 20.401 C 104.271 20.564,103.369 20.809,102.368 20.947 C 101.367 21.085,100.465 21.331,100.364 21.494 C 100.264 21.656,99.362 21.902,98.361 22.040 C 97.359 22.178,96.457 22.425,96.356 22.589 C 96.254 22.753,95.475 23.002,94.625 23.142 C 93.774 23.283,92.914 23.524,92.714 23.679 C 92.514 23.833,91.776 24.076,91.075 24.218 C 89.748 24.486,86.689 25.401,85.428 25.907 C 85.027 26.068,83.962 26.377,83.060 26.594 C 82.158 26.811,81.093 27.125,80.692 27.292 C 80.291 27.459,78.734 27.955,77.231 28.395 C 75.729 28.835,74.248 29.327,73.941 29.488 C 73.634 29.648,72.814 29.902,72.119 30.050 C 71.424 30.199,70.692 30.447,70.492 30.602 C 70.291 30.757,69.432 30.998,68.581 31.138 C 67.731 31.278,66.954 31.524,66.855 31.684 C 66.756 31.845,66.079 32.087,65.351 32.224 C 64.623 32.361,63.760 32.611,63.434 32.779 C 63.108 32.948,60.891 33.689,58.508 34.426 C 53.657 35.924,51.908 36.882,51.402 38.316 C 50.827 39.947,51.608 41.894,52.836 41.894 C 53.230 41.894,53.552 42.038,53.552 42.213 C 53.552 42.389,56.954 42.609,61.111 42.703 C 68.235 42.864,68.763 42.925,70.283 43.750 C 71.944 44.652,72.615 45.537,71.639 45.537 C 71.335 45.537,70.624 45.728,70.060 45.960 C 69.496 46.193,68.905 46.355,68.747 46.320 C 68.588 46.285,68.137 46.428,67.743 46.639 C 66.982 47.046,64.043 47.125,61.931 46.795 C 59.491 46.414,56.095 46.347,55.892 46.675 C 55.779 46.857,55.538 46.914,55.356 46.801 C 55.173 46.689,54.721 46.759,54.351 46.957 C 53.981 47.155,53.281 47.383,52.795 47.464 C 52.310 47.545,51.638 47.731,51.303 47.877 C 50.969 48.024,50.395 48.200,50.028 48.270 C 49.662 48.339,49.321 48.429,49.271 48.469 C 49.221 48.510,49.057 48.570,48.907 48.602 C 48.757 48.635,48.027 48.957,47.286 49.318 C 46.545 49.679,45.725 49.852,45.465 49.701 C 45.204 49.551,45.115 49.565,45.267 49.732 C 45.546 50.039,44.639 50.433,40.619 51.752 C 39.417 52.147,38.188 52.576,37.887 52.706 C 37.587 52.836,37.259 52.962,37.158 52.986 C 33.456 53.871,31.224 60.660,34.613 60.727 C 35.453 60.744,38.251 61.570,38.251 61.801 C 38.251 61.915,37.842 62.330,37.341 62.724 C 35.322 64.313,38.406 69.423,41.016 68.814 C 41.199 68.772,41.645 68.866,42.008 69.025 C 42.402 69.196,43.655 69.040,45.105 68.640 C 46.445 68.270,47.623 67.947,47.723 67.924 C 47.823 67.900,48.397 67.672,48.998 67.418 C 52.518 65.926,58.652 67.350,58.652 69.658 C 58.652 70.174,60.031 71.683,60.330 71.494 C 60.793 71.201,62.304 71.457,62.096 71.794 C 61.625 72.556,63.426 73.953,64.878 73.953 C 65.628 73.953,66.308 74.152,66.390 74.397 C 66.505 74.743,66.850 74.739,67.968 74.376 C 69.566 73.857,84.699 74.123,84.699 74.670 C 84.699 75.353,103.983 76.001,104.800 75.345 C 105.036 75.156,105.445 75.042,105.711 75.092 C 105.976 75.142,106.685 75.073,107.286 74.940 C 107.887 74.806,108.844 74.619,109.412 74.525 C 109.981 74.431,110.670 74.168,110.944 73.940 C 111.726 73.291,116.248 72.408,125.999 71.000 C 129.171 70.542,133.274 68.548,132.760 67.716 C 132.649 67.537,132.791 67.301,133.076 67.192 C 133.388 67.072,133.551 66.604,133.486 66.010 C 133.098 62.455,132.292 61.640,127.688 60.150 C 125.980 59.597,124.708 59.008,124.860 58.840 C 125.012 58.672,124.935 58.651,124.689 58.793 C 124.442 58.934,123.869 58.843,123.414 58.591 C 122.959 58.338,122.469 58.126,122.325 58.119 C 121.807 58.093,120.554 56.736,119.435 54.990 C 118.915 54.180,118.903 53.910,119.335 52.882 C 120.640 49.778,119.156 48.623,114.335 48.989 C 112.220 49.150,111.104 49.100,110.940 48.835 C 110.806 48.617,110.547 48.532,110.365 48.645 C 110.044 48.843,108.567 48.226,108.197 47.739 C 108.097 47.607,107.633 47.238,107.166 46.919 C 106.320 46.341,106.322 46.339,107.895 46.079 C 108.762 45.935,109.636 45.714,109.836 45.586 C 110.192 45.361,112.171 44.896,116.211 44.090 C 117.313 43.870,118.543 43.553,118.944 43.384 C 119.344 43.216,120.093 42.911,120.607 42.707 C 121.121 42.503,123.416 42.142,125.707 41.906 C 127.998 41.670,130.200 41.338,130.601 41.167 C 133.493 39.937,153.260 39.977,154.627 41.216 C 155.120 41.663,166.388 41.616,166.667 41.166 C 166.939 40.725,169.763 40.674,169.763 41.110 C 169.763 41.280,171.667 41.521,173.993 41.645 C 176.319 41.770,178.409 42.017,178.638 42.194 C 178.866 42.371,180.364 42.719,181.967 42.968 C 184.783 43.404,187.599 44.245,187.977 44.761 C 188.078 44.898,188.898 45.318,189.800 45.692 C 190.701 46.067,192.668 46.936,194.171 47.623 C 197.952 49.351,198.217 49.457,199.454 49.727 C 200.055 49.858,201.038 50.188,201.639 50.461 C 203.803 51.442,205.702 52.171,208.925 53.257 C 210.729 53.865,212.321 54.549,212.464 54.777 C 212.820 55.344,225.547 55.353,226.264 54.787 C 226.546 54.565,227.295 54.285,227.930 54.165 C 229.030 53.957,232.252 52.171,233.604 51.020 C 235.557 49.358,235.022 46.237,232.569 44.987 C 231.787 44.588,231.093 44.139,231.026 43.989 C 230.959 43.839,230.724 43.716,230.502 43.716 C 229.960 43.716,227.738 42.179,227.539 41.666 C 227.427 41.378,227.777 41.340,228.717 41.538 C 231.773 42.183,244.010 42.655,244.183 42.134 C 244.380 41.539,248.453 43.775,248.657 44.591 C 248.860 45.399,249.994 46.049,251.913 46.458 C 252.514 46.586,253.208 46.753,253.455 46.829 C 254.083 47.022,253.628 48.014,252.790 48.280 C 251.654 48.641,252.414 52.810,253.617 52.821 C 253.753 52.822,254.147 53.106,254.493 53.452 C 255.272 54.231,260.309 54.500,261.165 53.807 C 261.589 53.465,261.648 53.467,261.437 53.818 C 261.242 54.143,261.449 54.128,262.187 53.763 C 265.122 52.312,271.403 51.461,271.403 52.514 C 271.403 52.684,271.610 52.823,271.864 52.823 C 272.758 52.823,275.046 54.667,275.046 55.387 C 275.046 55.975,275.297 56.102,276.457 56.102 C 277.721 56.102,277.891 56.212,278.079 57.151 C 278.194 57.728,278.535 58.446,278.835 58.747 C 279.136 59.048,279.323 59.354,279.250 59.428 C 279.177 59.502,280.537 59.617,282.273 59.684 C 284.008 59.751,285.920 60.028,286.521 60.300 C 287.122 60.573,288.556 60.906,289.709 61.041 C 290.861 61.176,291.803 61.411,291.803 61.563 C 291.803 61.715,292.254 61.931,292.805 62.043 C 293.356 62.155,294.968 63.226,296.388 64.424 C 299.135 66.741,301.402 68.124,302.454 68.124 C 302.807 68.124,303.097 68.278,303.097 68.466 C 303.097 68.654,304.244 68.921,305.647 69.060 C 307.049 69.198,308.197 69.454,308.197 69.628 C 308.197 70.039,317.928 70.045,318.182 69.634 C 318.288 69.463,319.889 69.209,321.741 69.069 C 323.592 68.929,325.278 68.680,325.486 68.514 C 325.695 68.349,326.799 68.101,327.941 67.963 C 332.224 67.445,334.791 65.513,334.791 62.806 L 334.791 61.294 338.985 61.133 C 341.526 61.036,343.351 60.802,343.612 60.541 C 343.849 60.304,344.267 60.109,344.541 60.109 C 345.012 60.109,347.844 58.816,349.650 57.776 C 351.947 56.453,352.191 54.254,350.238 52.477 C 349.254 51.581,348.970 51.069,349.095 50.415 C 349.187 49.936,349.120 49.545,348.948 49.545 C 348.775 49.545,348.634 49.232,348.634 48.850 C 348.634 48.003,345.806 46.051,343.792 45.509 C 342.425 45.141,342.620 44.175,344.080 44.079 C 344.281 44.066,345.100 43.739,345.902 43.352 C 346.703 42.964,347.564 42.642,347.814 42.635 C 348.065 42.629,348.270 42.459,348.270 42.259 C 348.270 42.058,348.464 41.894,348.702 41.894 C 348.940 41.894,349.677 41.526,350.339 41.075 C 351.580 40.230,351.972 38.980,350.997 38.980 C 350.694 38.980,350.161 38.824,349.813 38.633 C 348.978 38.176,343.703 35.975,338.616 33.963 C 335.827 32.860,333.876 32.031,333.247 31.681 C 332.899 31.488,332.407 31.324,332.154 31.317 C 331.901 31.311,331.038 30.988,330.237 30.601 C 329.435 30.214,328.593 29.892,328.366 29.885 C 328.138 29.878,327.483 29.628,326.909 29.328 C 326.335 29.029,325.606 28.783,325.288 28.782 C 324.971 28.781,324.599 28.667,324.461 28.529 C 323.893 27.961,319.045 26.945,315.301 26.610 C 310.501 26.180,308.161 25.384,306.166 23.502 C 305.951 23.299,305.132 22.822,304.345 22.442 C 303.558 22.062,302.587 21.570,302.186 21.349 C 301.713 21.088,297.551 20.907,290.346 20.834 C 284.085 20.770,279.084 20.571,278.889 20.378 C 278.699 20.190,278.207 20.036,277.797 20.036 C 277.163 20.036,271.215 17.299,270.674 16.758 C 270.316 16.400,269.019 15.657,268.124 15.297 C 267.623 15.096,266.778 14.686,266.246 14.387 C 265.714 14.088,264.945 13.843,264.537 13.843 C 264.129 13.843,263.694 13.679,263.570 13.479 C 263.446 13.279,262.945 13.115,262.456 13.115 C 261.631 13.115,261.566 12.982,261.566 11.280 C 261.566 9.023,259.881 6.259,258.470 6.203 C 258.270 6.195,257.656 5.954,257.106 5.667 C 256.556 5.380,255.326 5.033,254.374 4.895 C 253.421 4.757,252.476 4.513,252.273 4.354 C 252.071 4.194,250.879 3.947,249.624 3.805 C 248.369 3.663,247.261 3.416,247.162 3.255 C 247.063 3.095,245.670 2.849,244.066 2.709 C 242.462 2.569,241.071 2.327,240.975 2.172 C 240.879 2.017,239.202 1.773,237.249 1.630 C 235.296 1.488,233.534 1.244,233.333 1.088 C 232.114 0.139,204.683 -0.283,192.168 0.455 M0.000 260.108 L 0.000 323.133 200.000 323.133 L 400.000 323.133 400.000 260.109 L 400.000 197.086 343.789 197.086 C 283.695 197.086,286.703 196.990,286.703 198.907 C 286.703 200.824,283.796 200.729,342.332 200.729 L 397.086 200.729 397.086 260.109 L 397.086 319.490 200.000 319.490 L 2.914 319.490 2.914 260.110 L 2.914 200.731 60.200 200.639 L 117.486 200.546 117.486 198.907 L 117.486 197.268 58.743 197.176 L 0.000 197.083 0.000 260.108 " stroke="none" fill="#636b34" fill-rule="evenodd"></path></g></svg>