<svg id="splitsvg" version="1.1" xmlns="http://www.w3.org/2000/svg" xmlns:xlink="http://www.w3.org/1999/xlink" width="1380" height="788"><g id="svgg"><path id="path0" d="M134.517 40.694 C 134.066 40.781,133.698 41.005,133.698 41.191 C 133.698 41.378,133.379 41.530,132.991 41.530 C 132.602 41.530,132.169 41.715,132.029 41.941 C 131.856 42.222,130.665 42.295,128.280 42.170 C 126.358 42.069,124.455 42.120,124.050 42.282 C 123.646 42.444,122.674 42.681,121.891 42.809 L 120.467 43.042 121.450 43.953 C 122.962 45.355,126.451 46.114,128.980 45.592 C 135.764 44.191,141.127 47.100,142.981 53.188 C 143.134 53.689,143.384 54.262,143.537 54.463 C 143.690 54.663,143.935 55.565,144.080 56.466 C 144.226 57.368,144.472 58.270,144.627 58.470 C 144.782 58.670,145.023 59.530,145.164 60.381 C 145.304 61.231,145.550 62.008,145.710 62.107 C 145.870 62.206,146.109 62.863,146.241 63.566 C 146.373 64.270,146.638 64.845,146.829 64.845 C 147.020 64.845,147.177 65.161,147.177 65.548 C 147.177 65.934,147.423 66.496,147.723 66.797 C 148.024 67.097,148.270 67.505,148.270 67.702 C 148.270 68.127,150.298 70.267,151.497 71.107 C 152.854 72.058,150.354 75.014,147.701 75.596 C 147.112 75.725,146.288 75.995,145.870 76.196 C 143.886 77.151,133.922 75.562,130.363 73.723 C 129.831 73.449,129.093 73.223,128.723 73.222 C 128.354 73.221,127.559 72.957,126.958 72.636 C 125.229 71.712,122.201 71.839,117.122 73.051 C 115.920 73.337,113.960 73.758,112.767 73.986 L 110.599 74.399 113.314 75.663 C 117.982 77.836,119.126 78.444,119.126 78.753 C 119.126 78.918,119.355 79.053,119.634 79.053 C 119.914 79.053,121.339 79.976,122.799 81.105 C 125.327 83.058,126.627 84.180,129.706 87.067 C 131.926 89.149,132.163 89.279,134.156 89.503 C 135.206 89.621,136.235 89.850,136.442 90.011 C 136.649 90.172,137.059 90.152,137.353 89.967 C 137.647 89.781,138.543 89.625,139.344 89.621 C 140.146 89.617,141.222 89.393,141.736 89.125 C 142.251 88.857,143.151 88.517,143.736 88.370 C 144.322 88.223,144.885 87.993,144.987 87.858 C 145.089 87.724,146.403 86.976,147.905 86.197 C 152.236 83.951,154.716 84.264,158.228 87.499 C 161.512 90.524,166.506 93.627,168.939 94.154 C 169.588 94.294,170.213 94.561,170.327 94.746 C 170.441 94.931,170.827 95.082,171.185 95.082 C 172.047 95.082,173.770 96.588,173.770 97.340 C 173.770 97.668,173.919 97.990,174.100 98.057 C 175.505 98.576,175.573 123.789,174.172 124.954 C 173.860 125.213,173.861 125.204,173.574 132.240 C 173.431 135.747,173.212 138.780,173.087 138.980 C 172.962 139.180,172.672 142.951,172.444 147.359 C 172.215 151.767,171.947 155.947,171.849 156.648 C 171.750 157.350,171.556 161.858,171.417 166.667 C 171.277 171.475,171.079 175.656,170.975 175.956 C 170.872 176.257,170.721 178.142,170.641 180.146 C 169.839 200.140,169.606 210.568,169.604 226.594 C 169.601 246.129,169.657 246.944,171.193 249.679 C 171.581 250.368,171.786 251.043,171.650 251.179 C 171.514 251.316,171.566 251.378,171.767 251.318 C 171.967 251.259,172.730 251.819,173.461 252.563 C 174.192 253.307,174.692 253.916,174.571 253.916 C 174.179 253.916,179.007 256.293,180.692 256.929 C 183.021 257.809,186.117 258.437,190.209 258.859 C 193.607 259.210,202.853 257.485,203.684 256.346 C 203.806 256.177,203.970 256.071,204.048 256.109 C 204.323 256.245,207.240 255.354,208.257 254.823 C 208.825 254.527,209.577 254.284,209.927 254.283 C 210.278 254.282,210.565 254.131,210.565 253.948 C 210.565 253.765,211.220 253.505,212.022 253.370 C 212.823 253.234,213.479 252.974,213.479 252.791 C 213.479 252.609,213.848 252.458,214.299 252.457 C 214.750 252.456,215.568 252.220,216.118 251.933 C 217.047 251.449,219.802 250.871,220.542 251.005 C 220.720 251.038,220.987 250.868,221.135 250.628 C 221.485 250.063,230.345 249.977,231.034 250.532 C 231.297 250.744,232.029 251.028,232.660 251.163 C 234.223 251.497,236.461 252.671,236.142 252.989 C 236.000 253.132,236.129 253.194,236.430 253.127 C 236.730 253.060,237.097 252.842,237.244 252.641 C 237.620 252.129,237.590 246.266,237.211 246.266 C 237.040 246.266,236.780 241.310,236.634 235.252 C 236.488 229.194,236.259 224.071,236.126 223.868 C 235.992 223.664,235.677 219.317,235.425 214.208 C 235.173 209.098,234.903 204.344,234.824 203.643 C 234.746 202.942,234.479 198.843,234.232 194.536 C 233.985 190.228,233.733 186.211,233.671 185.610 C 233.397 182.930,232.642 171.965,232.624 170.401 C 232.614 169.449,232.505 168.670,232.382 168.670 C 232.260 168.670,232.040 165.924,231.894 162.568 C 231.748 159.212,231.545 155.974,231.442 155.373 C 231.340 154.772,231.116 151.903,230.945 148.998 C 230.774 146.093,230.467 142.404,230.262 140.801 C 230.058 139.199,229.712 135.100,229.495 131.694 C 229.278 128.288,228.955 123.288,228.779 120.583 C 228.603 117.878,228.431 114.353,228.398 112.750 C 228.364 111.148,228.202 109.752,228.037 109.648 C 227.873 109.545,227.688 106.985,227.627 103.959 L 227.517 98.457 228.768 97.407 C 229.457 96.829,230.151 96.398,230.311 96.448 C 230.470 96.498,230.601 96.384,230.601 96.195 C 230.601 96.005,230.985 95.636,231.455 95.375 C 231.924 95.114,233.483 94.121,234.919 93.169 C 236.355 92.218,237.702 91.439,237.912 91.439 C 238.122 91.439,238.193 91.275,238.069 91.075 C 237.945 90.874,238.016 90.710,238.225 90.710 C 238.552 90.710,247.229 85.121,248.270 84.240 C 249.060 83.571,254.116 80.343,254.385 80.336 C 254.542 80.331,254.788 80.164,254.931 79.964 C 255.327 79.408,257.480 77.960,257.909 77.960 C 258.117 77.960,258.288 77.796,258.288 77.596 C 258.288 77.395,258.494 77.231,258.747 77.231 C 258.999 77.231,259.655 76.815,260.204 76.306 C 260.753 75.797,261.202 75.477,261.202 75.595 C 261.202 75.713,261.928 75.309,262.816 74.699 C 264.808 73.328,264.214 73.256,268.636 75.410 C 270.692 76.412,272.615 77.231,272.909 77.231 C 273.202 77.231,273.648 77.436,273.898 77.687 C 274.491 78.280,281.514 78.323,281.889 77.736 C 282.032 77.512,282.528 77.211,282.991 77.067 C 283.454 76.922,284.013 76.408,284.234 75.925 C 284.454 75.441,284.757 75.046,284.908 75.046 C 285.059 75.046,285.292 74.396,285.426 73.603 C 285.690 72.036,288.360 68.852,289.410 68.852 C 289.725 68.852,289.982 68.716,289.982 68.550 C 289.982 68.277,291.896 67.685,294.357 67.196 C 297.807 66.511,298.165 66.125,296.445 64.946 C 295.796 64.501,294.801 63.704,294.235 63.176 C 293.669 62.647,292.849 62.219,292.413 62.225 C 291.454 62.237,287.482 63.282,286.657 63.738 C 286.331 63.919,285.429 64.181,284.653 64.321 C 283.877 64.461,283.078 64.704,282.878 64.860 C 282.470 65.178,279.764 65.767,279.299 65.639 C 279.134 65.593,279.095 65.712,279.213 65.902 C 279.459 66.301,275.699 66.856,274.880 66.541 C 273.438 65.988,275.141 61.507,277.512 59.613 C 278.287 58.994,278.312 58.878,277.797 58.309 C 277.486 57.965,277.231 57.510,277.231 57.298 C 277.231 57.085,276.650 56.803,275.940 56.669 C 275.076 56.507,274.517 56.141,274.255 55.565 C 273.812 54.592,273.005 54.705,272.662 55.788 C 271.862 58.308,262.477 65.451,261.091 64.594 C 260.890 64.470,260.831 64.539,260.960 64.748 C 261.103 64.979,260.557 65.223,259.568 65.372 C 258.673 65.506,257.858 65.749,257.758 65.911 C 257.658 66.073,256.715 66.320,255.664 66.460 C 254.613 66.599,253.584 66.845,253.379 67.006 C 253.173 67.167,252.131 67.410,251.061 67.546 C 249.992 67.682,248.844 67.942,248.511 68.124 C 248.178 68.306,246.922 68.637,245.719 68.860 C 240.802 69.772,239.140 70.142,238.707 70.422 C 238.456 70.584,238.080 70.611,237.871 70.482 C 237.662 70.353,237.293 70.406,237.051 70.599 C 236.810 70.793,236.038 71.042,235.337 71.152 C 234.636 71.262,232.013 71.772,229.508 72.285 C 223.766 73.463,219.505 73.248,217.577 71.683 C 217.327 71.480,217.122 71.429,217.122 71.571 C 217.122 71.892,214.325 69.715,213.162 68.488 C 211.178 66.397,211.168 66.347,211.441 60.127 L 211.695 54.351 210.221 54.102 C 209.410 53.965,208.663 53.717,208.561 53.552 C 208.459 53.386,207.720 53.140,206.920 53.005 C 206.119 52.870,205.464 52.610,205.464 52.427 C 205.464 52.244,205.210 52.095,204.898 52.095 C 204.387 52.095,202.956 51.529,199.826 50.089 C 198.454 49.457,198.562 48.910,198.847 55.011 C 199.188 62.326,198.819 66.710,197.659 69.100 C 196.733 71.011,194.995 72.961,194.494 72.652 C 194.344 72.559,194.119 72.650,193.993 72.854 C 193.550 73.570,187.407 72.583,185.125 71.429 C 184.791 71.260,183.616 70.734,182.514 70.261 C 181.412 69.788,180.293 69.196,180.029 68.945 C 179.764 68.694,179.313 68.488,179.027 68.488 C 178.741 68.488,178.505 68.365,178.504 68.215 C 178.503 68.065,177.890 67.532,177.142 67.031 C 176.395 66.530,175.067 65.410,174.191 64.543 L 172.600 62.965 174.369 61.364 C 175.342 60.483,176.384 59.542,176.685 59.273 C 179.959 56.341,189.319 50.638,190.857 50.638 C 191.077 50.638,191.257 50.474,191.257 50.273 C 191.257 50.073,191.503 49.909,191.803 49.909 C 192.104 49.909,192.350 49.721,192.350 49.491 C 192.350 49.192,191.369 49.132,188.889 49.280 C 184.904 49.518,184.872 49.482,186.686 46.836 L 187.919 45.038 187.064 44.594 C 185.801 43.939,182.878 43.372,182.878 43.783 C 182.878 44.500,177.781 49.203,173.507 52.429 C 168.849 55.946,166.340 58.437,164.787 61.086 C 163.399 63.455,161.753 63.612,159.581 61.584 C 158.970 61.013,158.470 60.638,158.470 60.750 C 158.470 61.742,151.951 53.844,150.425 51.003 C 149.941 50.102,149.442 49.282,149.317 49.181 C 149.192 49.081,148.974 48.465,148.833 47.814 C 148.692 47.163,148.444 46.630,148.283 46.630 C 147.978 46.630,147.423 45.222,147.514 44.679 C 147.543 44.508,147.415 44.180,147.231 43.951 C 147.046 43.721,146.780 42.837,146.639 41.985 L 146.384 40.437 140.861 40.487 C 137.823 40.514,134.968 40.607,134.517 40.694 M277.268 344.158 C 275.507 344.383,272.549 346.380,273.125 346.956 C 273.246 347.077,273.136 347.177,272.881 347.177 C 271.933 347.177,272.541 352.441,273.594 353.346 C 274.461 354.092,277.956 355.907,278.574 355.932 C 280.273 356.001,281.254 359.230,279.998 360.618 C 279.216 361.482,273.959 361.589,273.679 360.747 C 273.387 359.869,272.637 360.304,272.158 361.629 C 270.717 365.613,281.563 365.313,283.642 361.311 C 285.526 357.685,281.687 351.945,277.355 351.910 C 276.585 351.904,275.352 349.423,275.749 348.681 C 276.720 346.866,278.747 346.352,280.832 347.392 C 282.307 348.128,282.927 347.885,283.242 346.447 C 283.543 345.079,282.756 344.295,281.056 344.269 C 280.455 344.260,279.636 344.196,279.235 344.126 C 278.834 344.057,277.949 344.072,277.268 344.158 M108.804 344.505 C 108.670 344.639,108.557 345.991,108.552 347.511 C 108.547 349.030,108.396 350.929,108.217 351.730 C 108.037 352.532,107.775 355.688,107.633 358.743 L 107.375 364.299 108.840 364.299 C 110.762 364.299,110.780 364.238,111.078 356.936 C 111.214 353.587,111.442 350.732,111.583 350.591 C 111.724 350.450,111.840 350.637,111.840 351.006 C 111.840 351.622,112.965 355.445,113.660 357.195 C 113.820 357.596,114.306 359.068,114.741 360.466 C 115.713 363.589,115.987 363.934,117.495 363.934 C 118.685 363.934,119.730 362.481,119.526 361.111 C 119.489 360.861,119.615 360.656,119.806 360.656 C 119.998 360.656,120.265 360.001,120.400 359.200 C 120.536 358.400,120.796 357.653,120.979 357.540 C 121.162 357.427,121.317 357.057,121.324 356.718 C 121.331 356.379,121.653 355.446,122.040 354.645 C 122.427 353.843,122.750 352.910,122.756 352.572 C 122.763 352.233,122.914 351.866,123.092 351.756 C 123.479 351.516,123.833 354.134,124.048 358.831 C 124.289 364.079,124.370 364.299,126.076 364.299 C 127.485 364.299,127.504 364.280,127.498 362.933 C 127.490 361.254,126.791 347.479,126.624 345.719 L 126.504 344.444 124.462 344.399 L 122.420 344.354 122.190 345.583 C 122.063 346.259,121.828 346.812,121.667 346.812 C 121.507 346.812,121.265 347.468,121.129 348.270 C 120.994 349.071,120.752 349.727,120.591 349.727 C 120.431 349.727,120.193 350.294,120.063 350.986 C 119.933 351.679,119.588 352.704,119.296 353.263 C 119.005 353.823,118.765 354.488,118.764 354.741 C 118.762 354.994,118.614 355.486,118.435 355.834 C 118.255 356.182,117.948 356.876,117.752 357.377 C 117.412 358.247,117.377 358.215,116.971 356.648 C 116.737 355.747,116.401 354.681,116.225 354.281 C 116.049 353.880,115.523 352.404,115.056 351.002 C 114.590 349.599,114.085 348.397,113.934 348.330 C 113.784 348.264,113.661 347.878,113.661 347.475 C 113.661 345.030,110.321 342.988,108.804 344.505 M141.877 344.724 C 141.779 344.977,141.743 349.445,141.797 354.651 L 141.894 364.117 147.632 364.217 L 153.370 364.317 153.370 362.851 L 153.370 361.384 149.362 361.384 L 145.355 361.384 145.355 358.483 L 145.355 355.582 148.907 355.478 L 152.459 355.373 152.459 353.916 L 152.459 352.459 148.907 352.355 L 145.355 352.250 145.355 349.714 L 145.355 347.177 149.010 347.177 C 152.967 347.177,153.313 346.996,152.856 345.172 L 152.627 344.262 147.340 344.262 C 143.411 344.262,142.008 344.381,141.877 344.724 M167.092 344.505 C 165.738 345.859,167.142 360.438,168.816 362.403 C 171.949 366.081,180.651 364.300,181.208 359.866 C 181.225 359.733,181.362 359.501,181.512 359.350 C 181.662 359.200,181.785 355.767,181.785 351.721 L 181.785 344.366 180.237 344.405 L 178.689 344.444 178.500 351.548 C 178.268 360.252,177.785 361.384,174.306 361.384 C 170.997 361.384,170.492 360.147,170.492 352.043 C 170.492 348.398,170.392 345.155,170.271 344.839 C 170.047 344.255,167.598 343.998,167.092 344.505 M196.600 344.505 C 196.466 344.639,196.357 349.062,196.357 354.334 L 196.357 363.921 197.299 364.157 C 205.639 366.250,212.923 359.752,207.824 354.767 L 206.617 353.587 207.498 352.540 C 209.499 350.161,208.681 346.446,205.838 344.996 C 204.398 344.261,197.225 343.880,196.600 344.505 M223.115 344.724 C 223.018 344.977,222.982 349.445,223.036 354.651 L 223.133 364.117 228.871 364.217 L 234.608 364.317 234.608 362.851 L 234.608 361.384 230.419 361.384 L 226.230 361.384 226.230 352.823 L 226.230 344.262 224.761 344.262 C 223.912 344.262,223.218 344.457,223.115 344.724 M247.723 354.271 L 247.723 364.299 253.574 364.299 L 259.425 364.299 259.312 362.933 L 259.199 361.566 255.100 361.463 L 251.002 361.360 251.002 358.471 L 251.002 355.582 254.554 355.478 L 258.106 355.373 258.218 353.825 L 258.330 352.277 254.666 352.277 L 251.002 352.277 251.002 349.739 L 251.002 347.201 254.918 347.098 L 258.834 346.995 258.834 345.719 L 258.834 344.444 253.279 344.344 L 247.723 344.243 247.723 354.271 M203.451 347.323 C 206.561 348.937,205.445 352.277,201.795 352.277 L 200.000 352.277 200.000 349.787 C 200.000 346.607,200.872 345.985,203.451 347.323 M203.510 355.606 C 207.475 356.604,206.102 361.384,201.850 361.384 L 200.000 361.384 200.000 358.288 C 200.000 354.763,200.041 354.732,203.510 355.606  M -25 0 L -5 0 L -5 20 L -25 20 Z M 405 0 L 425 0 L 425 20 L 405 20 Z" stroke="none" fill="#5c442c" fill-rule="evenodd" transform="translate(30,0)"></path><path id="path1" d="M61.202 46.406 C 61.202 46.482,61.612 46.624,62.113 46.719 C 62.614 46.815,63.024 46.752,63.024 46.580 C 63.024 46.407,62.614 46.266,62.113 46.266 C 61.612 46.266,61.202 46.329,61.202 46.406 M139.891 48.634 C 140.361 49.135,140.803 49.545,140.873 49.545 C 140.943 49.545,140.732 49.135,140.404 48.634 C 140.075 48.133,139.633 47.723,139.421 47.723 C 139.209 47.723,139.420 48.133,139.891 48.634 M38.434 51.990 C 37.318 52.259,36.975 52.757,38.047 52.552 C 38.566 52.453,39.080 52.228,39.189 52.051 C 39.298 51.875,39.337 51.749,39.275 51.773 C 39.213 51.796,38.834 51.894,38.434 51.990 M119.496 53.582 C 119.499 54.267,119.651 55.064,119.835 55.354 C 120.051 55.696,120.095 55.310,119.961 54.262 C 119.704 52.250,119.488 51.935,119.496 53.582 M257.195 54.736 C 257.195 54.886,257.605 55.009,258.106 55.009 C 258.607 55.009,259.016 54.886,259.016 54.736 C 259.016 54.586,258.607 54.463,258.106 54.463 C 257.605 54.463,257.195 54.586,257.195 54.736 M32.662 56.177 C 32.366 57.309,32.591 57.367,33.084 56.286 C 33.313 55.784,33.359 55.373,33.186 55.373 C 33.013 55.373,32.777 55.735,32.662 56.177 M270.188 58.379 C 269.821 58.763,269.590 59.146,269.674 59.231 C 269.759 59.316,270.127 59.055,270.492 58.652 C 271.347 57.707,271.070 57.457,270.188 58.379 M276.936 60.153 C 276.297 60.777,275.774 61.460,275.774 61.670 C 275.774 61.880,275.815 61.982,275.865 61.896 C 275.915 61.811,276.521 61.128,277.212 60.378 C 278.734 58.727,278.549 58.576,276.936 60.153 M36.916 62.113 C 36.916 62.425,37.065 62.630,37.247 62.569 C 37.429 62.509,37.577 62.303,37.577 62.113 C 37.577 61.923,37.429 61.717,37.247 61.657 C 37.065 61.596,36.916 61.801,36.916 62.113 M291.257 61.931 C 291.133 62.131,290.713 62.295,290.325 62.295 C 289.936 62.295,289.617 62.450,289.617 62.640 C 289.617 62.850,290.047 62.836,290.710 62.605 C 291.311 62.395,291.803 62.076,291.803 61.895 C 291.803 61.460,291.537 61.478,291.257 61.931 M172.947 62.519 C 172.714 62.895,173.253 64.038,173.523 63.742 C 173.609 63.647,173.564 63.253,173.423 62.866 C 173.283 62.478,173.068 62.322,172.947 62.519 M51.366 67.031 L 50.091 67.299 51.254 67.347 C 51.893 67.374,52.517 67.231,52.641 67.031 C 52.765 66.831,52.816 66.688,52.754 66.715 C 52.692 66.741,52.067 66.883,51.366 67.031 M54.372 67.282 C 54.722 67.374,55.296 67.374,55.647 67.282 C 55.997 67.190,55.710 67.115,55.009 67.115 C 54.308 67.115,54.021 67.190,54.372 67.282 M150.698 73.285 C 150.331 73.685,150.098 74.081,150.181 74.164 C 150.263 74.246,150.715 73.905,151.185 73.405 C 151.655 72.905,151.888 72.509,151.703 72.526 C 151.518 72.543,151.066 72.884,150.698 73.285 M95.320 76.230 C 95.413 76.380,96.290 76.503,97.268 76.503 C 98.246 76.503,99.122 76.380,99.215 76.230 C 99.308 76.079,98.432 75.956,97.268 75.956 C 96.104 75.956,95.228 76.079,95.320 76.230 M128.233 86.081 C 128.534 86.341,129.005 86.793,129.280 87.084 C 129.707 87.537,129.722 87.502,129.381 86.837 C 129.161 86.410,128.691 85.959,128.334 85.834 C 127.770 85.638,127.757 85.670,128.233 86.081 M233.782 93.820 C 233.034 94.328,232.423 94.822,232.423 94.918 C 232.423 95.014,233.078 94.658,233.880 94.128 C 235.152 93.286,235.582 92.896,235.239 92.896 C 235.186 92.896,234.530 93.312,233.782 93.820 M168.306 94.111 C 168.306 94.205,168.835 94.467,169.482 94.692 C 170.128 94.917,170.497 94.952,170.301 94.769 C 169.887 94.380,168.306 93.859,168.306 94.111 M175.359 108.925 C 175.359 110.829,175.420 111.607,175.495 110.656 C 175.571 109.704,175.571 108.147,175.495 107.195 C 175.420 106.243,175.359 107.022,175.359 108.925 M229.055 125.865 C 229.150 126.366,229.292 126.776,229.369 126.776 C 229.445 126.776,229.508 126.366,229.508 125.865 C 229.508 125.364,229.367 124.954,229.194 124.954 C 229.022 124.954,228.959 125.364,229.055 125.865 M230.159 140.619 C 230.247 141.220,230.383 141.712,230.460 141.712 C 230.538 141.712,230.601 141.220,230.601 140.619 C 230.601 140.018,230.466 139.526,230.300 139.526 C 230.134 139.526,230.071 140.018,230.159 140.619 M232.522 170.492 C 232.522 171.393,232.593 171.762,232.680 171.311 C 232.767 170.861,232.767 170.123,232.680 169.672 C 232.593 169.221,232.522 169.590,232.522 170.492 M170.584 177.960 C 170.588 178.761,170.662 179.046,170.749 178.593 C 170.837 178.140,170.833 177.484,170.742 177.136 C 170.651 176.788,170.580 177.158,170.584 177.960 M233.438 183.607 C 233.526 184.208,233.662 184.699,233.739 184.699 C 233.816 184.699,233.880 184.208,233.880 183.607 C 233.880 183.005,233.744 182.514,233.579 182.514 C 233.413 182.514,233.350 183.005,233.438 183.607 M234.604 200.290 L 234.781 202.732 234.897 200.584 C 234.960 199.403,234.880 198.304,234.719 198.142 C 234.558 197.980,234.506 198.947,234.604 200.290 M169.449 205.738 C 169.500 208.286,169.653 208.003,169.841 205.009 C 169.902 204.057,169.826 203.279,169.675 203.279 C 169.523 203.279,169.421 204.385,169.449 205.738 M197.086 258.288 L 195.811 258.556 196.973 258.604 C 197.612 258.631,198.237 258.488,198.361 258.288 C 198.484 258.087,198.535 257.945,198.473 257.971 C 198.411 257.998,197.787 258.140,197.086 258.288 M54.281 279.053 L 54.281 281.967 58.288 281.967 L 62.295 281.967 62.295 292.168 L 62.295 302.368 65.574 302.368 L 68.852 302.368 68.852 292.168 L 68.852 281.967 72.860 281.967 L 76.867 281.967 76.867 279.053 L 76.867 276.138 65.574 276.138 L 54.281 276.138 54.281 279.053 M99.454 289.253 L 99.454 302.368 108.743 302.368 L 118.033 302.368 118.033 299.271 L 118.033 296.175 112.204 296.175 L 106.375 296.175 106.375 293.989 L 106.375 291.803 111.475 291.803 L 116.576 291.803 116.576 288.889 L 116.576 285.974 111.475 285.974 L 106.375 285.974 106.375 283.971 L 106.375 281.967 112.204 281.967 L 118.033 281.967 118.033 279.053 L 118.033 276.138 108.743 276.138 L 99.454 276.138 99.454 289.253 M141.712 289.253 L 141.712 302.368 145.173 302.368 L 148.634 302.368 148.634 292.168 L 148.634 281.967 150.820 281.967 C 152.034 281.967,153.005 282.129,153.005 282.332 C 153.005 282.532,153.215 282.696,153.471 282.696 C 154.293 282.696,155.191 284.124,155.191 285.432 C 155.191 287.454,154.200 288.160,151.366 288.160 C 149.241 288.160,148.998 288.235,148.998 288.889 C 148.998 289.290,149.144 289.617,149.323 289.617 C 149.502 289.617,149.761 290.067,149.898 290.616 C 150.036 291.165,150.259 291.697,150.393 291.800 C 150.528 291.902,151.047 292.802,151.548 293.800 C 152.049 294.799,152.664 295.835,152.914 296.103 C 153.165 296.372,153.370 296.825,153.370 297.112 C 153.370 297.398,153.521 297.632,153.705 297.632 C 153.890 297.632,154.148 298.124,154.281 298.725 C 154.413 299.326,154.654 299.818,154.816 299.818 C 154.979 299.818,155.225 300.267,155.363 300.816 C 155.721 302.245,156.060 302.356,160.064 302.362 L 163.661 302.368 163.428 301.202 C 163.300 300.561,163.071 299.946,162.920 299.836 C 162.768 299.726,162.444 299.226,162.199 298.725 C 161.652 297.606,160.914 296.419,160.614 296.175 C 160.490 296.075,160.275 295.624,160.134 295.173 C 159.993 294.722,159.743 294.353,159.578 294.353 C 158.546 294.353,158.866 292.392,160.093 291.201 C 160.803 290.511,161.384 289.640,161.384 289.266 C 161.384 288.892,161.574 288.522,161.807 288.445 C 162.975 288.055,161.832 279.781,160.610 279.781 C 160.462 279.781,160.237 279.454,160.110 279.054 C 159.983 278.653,159.492 278.229,159.018 278.110 C 158.545 277.991,158.070 277.663,157.961 277.381 C 157.853 277.098,157.349 276.867,156.842 276.867 C 156.335 276.867,155.920 276.703,155.920 276.503 C 155.920 276.272,153.309 276.138,148.816 276.138 L 141.712 276.138 141.712 289.253 M192.867 277.035 C 192.739 277.544,192.503 277.960,192.342 277.960 C 192.181 277.960,191.939 278.615,191.804 279.415 C 191.668 280.216,191.427 280.952,191.266 281.051 C 191.106 281.150,190.867 281.806,190.735 282.510 C 190.603 283.213,190.349 283.789,190.170 283.789 C 189.991 283.789,189.734 284.526,189.598 285.428 C 189.463 286.330,189.226 287.067,189.070 287.067 C 188.915 287.067,188.680 287.641,188.549 288.342 C 188.417 289.044,188.163 289.617,187.984 289.617 C 187.805 289.617,187.548 290.355,187.413 291.257 C 187.277 292.158,187.021 292.896,186.844 292.896 C 186.666 292.896,186.520 293.183,186.519 293.534 C 186.517 293.884,186.287 294.611,186.007 295.149 C 185.726 295.686,185.379 296.670,185.234 297.334 C 185.090 297.999,184.811 298.645,184.614 298.771 C 184.417 298.896,184.170 299.757,184.066 300.684 L 183.876 302.368 187.362 302.368 L 190.848 302.368 191.094 300.729 C 191.229 299.827,191.464 299.089,191.616 299.089 C 191.767 299.089,192.000 298.270,192.133 297.268 C 192.266 296.266,192.527 295.446,192.714 295.446 C 192.901 295.446,193.162 294.627,193.295 293.625 C 193.428 292.623,193.661 291.803,193.812 291.803 C 193.964 291.803,194.199 291.066,194.334 290.164 C 194.470 289.262,194.732 288.525,194.918 288.525 C 195.104 288.525,195.360 287.869,195.489 287.067 C 195.617 286.266,195.863 285.610,196.035 285.610 C 196.207 285.610,196.453 286.266,196.581 287.067 C 196.710 287.869,196.947 288.525,197.110 288.525 C 197.272 288.525,197.516 289.262,197.651 290.164 C 197.786 291.066,198.032 291.803,198.198 291.803 C 198.363 291.803,198.609 292.541,198.744 293.443 C 198.879 294.344,199.120 295.082,199.279 295.082 C 199.437 295.082,199.680 295.902,199.818 296.903 C 199.956 297.905,200.211 298.725,200.386 298.725 C 200.561 298.725,200.812 299.545,200.945 300.546 L 201.187 302.368 204.783 302.368 C 206.761 302.368,208.379 302.277,208.379 302.165 C 208.379 301.628,207.513 298.499,207.275 298.179 C 207.127 297.978,206.892 297.281,206.753 296.630 C 206.613 295.979,206.359 295.446,206.186 295.446 C 206.014 295.446,205.763 294.709,205.628 293.807 C 205.492 292.905,205.255 292.168,205.099 292.168 C 204.944 292.168,204.709 291.594,204.578 290.893 C 204.446 290.191,204.192 289.617,204.013 289.617 C 203.834 289.617,203.577 288.880,203.442 287.978 C 203.307 287.077,203.069 286.339,202.914 286.339 C 202.758 286.339,202.524 285.765,202.392 285.064 C 202.260 284.362,202.017 283.789,201.852 283.789 C 201.686 283.789,201.440 283.097,201.304 282.251 C 201.169 281.406,200.931 280.627,200.775 280.521 C 200.619 280.415,200.245 279.426,199.943 278.324 L 199.395 276.321 196.247 276.215 C 193.144 276.112,193.096 276.123,192.867 277.035 M230.965 289.253 L 230.965 302.368 234.244 302.368 L 237.523 302.368 237.529 295.537 L 237.535 288.707 238.293 289.891 C 238.710 290.542,239.188 291.075,239.355 291.075 C 239.523 291.075,239.756 291.379,239.874 291.750 C 239.992 292.122,240.572 292.901,241.163 293.481 C 241.755 294.061,242.250 294.699,242.264 294.900 C 242.278 295.100,242.774 295.666,243.367 296.158 C 243.960 296.649,244.444 297.195,244.444 297.370 C 244.444 297.545,244.936 298.180,245.537 298.781 C 246.138 299.382,246.630 300.043,246.630 300.250 C 246.630 301.579,248.270 302.355,251.093 302.362 L 253.916 302.368 253.916 289.253 L 253.916 276.138 250.455 276.138 L 246.995 276.138 246.995 282.724 L 246.995 289.309 245.902 288.216 C 245.301 287.615,244.809 286.983,244.809 286.812 C 244.809 286.641,244.358 285.992,243.807 285.370 C 242.788 284.220,241.681 282.841,240.529 281.288 C 240.178 280.815,239.604 280.164,239.253 279.841 C 238.903 279.519,238.616 279.120,238.616 278.954 C 238.616 278.789,238.206 278.274,237.705 277.810 C 237.204 277.345,236.794 276.780,236.794 276.552 C 236.794 276.278,235.811 276.138,233.880 276.138 L 230.965 276.138 230.965 289.253 M286.339 276.503 C 286.339 276.703,285.951 276.867,285.477 276.867 C 285.003 276.867,284.199 277.195,283.689 277.596 C 283.180 277.996,282.669 278.324,282.554 278.324 C 282.255 278.324,279.781 280.765,279.781 281.060 C 279.781 281.195,279.454 281.723,279.053 282.232 C 278.652 282.742,278.324 283.532,278.324 283.990 C 278.324 284.447,278.126 284.887,277.884 284.968 C 276.630 285.386,277.783 295.811,279.083 295.811 C 279.224 295.811,279.445 296.236,279.575 296.755 C 279.835 297.791,281.974 300.182,282.642 300.182 C 282.872 300.182,283.060 300.328,283.060 300.507 C 283.060 300.686,283.509 300.944,284.058 301.082 C 284.607 301.220,285.175 301.525,285.320 301.759 C 285.668 302.320,293.905 302.353,294.276 301.795 C 294.811 300.990,295.811 300.896,295.811 301.651 C 295.811 302.304,296.069 302.368,298.725 302.368 L 301.639 302.368 301.639 295.264 L 301.639 288.160 298.725 288.160 L 295.811 288.160 295.811 291.075 C 295.811 293.197,295.684 293.989,295.345 293.989 C 295.089 293.989,294.599 294.317,294.256 294.718 C 293.913 295.118,293.302 295.446,292.900 295.446 C 292.497 295.446,292.168 295.610,292.168 295.811 C 292.168 296.011,291.348 296.175,290.346 296.175 C 289.344 296.175,288.525 296.011,288.525 295.811 C 288.525 295.610,288.291 295.446,288.006 295.446 C 287.258 295.446,285.246 293.324,285.246 292.534 C 285.246 292.166,285.051 291.799,284.813 291.720 C 284.242 291.529,284.264 286.606,284.837 286.415 C 285.062 286.339,285.246 286.080,285.246 285.838 C 285.246 285.096,287.749 282.696,288.524 282.696 C 288.925 282.696,289.253 282.532,289.253 282.332 C 289.253 282.131,289.663 281.967,290.164 281.967 C 290.665 281.967,291.075 282.111,291.075 282.286 C 291.075 282.461,291.577 282.705,292.191 282.828 C 293.317 283.053,295.446 284.855,295.446 285.582 C 295.446 285.798,295.699 285.974,296.008 285.974 C 296.595 285.974,296.962 285.719,298.757 284.062 C 299.355 283.511,300.001 283.060,300.195 283.060 C 300.911 283.060,300.569 280.522,299.766 279.869 C 299.336 279.520,298.726 278.948,298.410 278.597 C 298.093 278.247,297.625 277.960,297.369 277.960 C 297.113 277.960,296.903 277.809,296.903 277.625 C 296.903 277.440,296.412 277.181,295.811 277.049 C 295.209 276.917,294.718 276.658,294.718 276.474 C 294.718 276.289,292.837 276.138,290.528 276.138 C 287.978 276.138,286.339 276.281,286.339 276.503 M332.101 277.596 C 331.972 278.397,331.720 279.053,331.540 279.053 C 331.359 279.053,331.101 279.709,330.965 280.510 C 330.830 281.311,330.572 281.967,330.391 281.967 C 330.211 281.967,329.958 282.623,329.830 283.424 C 329.702 284.226,329.464 284.882,329.302 284.882 C 329.139 284.882,328.896 285.619,328.761 286.521 C 328.625 287.423,328.377 288.160,328.208 288.160 C 328.040 288.160,327.794 288.736,327.662 289.439 C 327.530 290.143,327.288 290.801,327.123 290.903 C 326.959 291.004,326.638 291.986,326.410 293.085 C 326.182 294.183,325.858 295.082,325.689 295.082 C 325.521 295.082,325.272 295.737,325.137 296.537 C 325.002 297.338,324.760 298.074,324.600 298.173 C 324.440 298.272,324.200 298.928,324.069 299.632 C 323.937 300.335,323.672 300.911,323.481 300.911 C 323.289 300.911,323.133 301.239,323.133 301.639 C 323.133 302.321,323.376 302.368,326.926 302.368 L 330.719 302.368 330.970 300.881 C 331.109 300.063,331.450 298.957,331.729 298.422 C 332.008 297.887,332.237 297.245,332.238 296.995 C 332.240 296.662,333.177 296.539,335.701 296.539 C 338.919 296.539,339.162 296.590,339.162 297.268 C 339.162 297.668,339.307 297.996,339.485 297.996 C 339.663 297.996,339.919 298.734,340.054 299.636 C 340.189 300.537,340.454 301.275,340.642 301.275 C 340.830 301.275,340.984 301.521,340.984 301.821 C 340.984 302.269,341.611 302.368,344.444 302.368 L 347.905 302.368 347.905 301.275 C 347.905 300.674,347.756 300.182,347.573 300.182 C 347.390 300.182,347.130 299.526,346.995 298.725 C 346.859 297.923,346.620 297.268,346.463 297.268 C 346.305 297.268,346.072 296.612,345.944 295.811 C 345.816 295.009,345.559 294.353,345.373 294.353 C 345.187 294.353,344.925 293.616,344.790 292.714 C 344.654 291.812,344.417 291.075,344.261 291.075 C 344.106 291.075,343.871 290.501,343.740 289.800 C 343.608 289.098,343.359 288.525,343.185 288.525 C 343.011 288.525,342.755 287.828,342.614 286.976 C 342.474 286.125,342.050 284.740,341.672 283.900 C 341.293 283.059,340.984 282.126,340.984 281.827 C 340.984 281.527,340.838 281.192,340.661 281.082 C 340.483 280.972,340.230 280.307,340.098 279.603 C 339.966 278.900,339.722 278.324,339.555 278.324 C 339.389 278.324,339.155 277.832,339.035 277.231 L 338.816 276.138 335.575 276.138 L 332.334 276.138 332.101 277.596 M336.271 287.268 C 336.441 287.478,336.690 288.339,336.825 289.180 C 336.959 290.022,337.212 290.710,337.387 290.710 C 337.562 290.710,337.705 290.956,337.705 291.257 C 337.705 291.683,337.216 291.803,335.495 291.803 C 333.341 291.803,332.654 290.904,334.094 289.971 C 334.258 289.865,334.503 289.086,334.638 288.240 C 334.773 287.395,335.027 286.703,335.201 286.703 C 335.376 286.703,335.538 286.416,335.561 286.066 C 335.596 285.549,335.638 285.567,335.783 286.157 C 335.881 286.557,336.101 287.057,336.271 287.268 M278.021 343.853 C 277.700 344.056,277.916 344.147,278.657 344.120 C 279.275 344.098,279.780 343.957,279.781 343.807 C 279.782 343.439,278.625 343.470,278.021 343.853 M148.998 347.177 L 145.173 347.398 149.089 347.470 C 151.505 347.514,153.005 347.401,153.005 347.177 C 153.005 346.976,152.964 346.844,152.914 346.884 C 152.864 346.923,151.102 347.055,148.998 347.177 M254.827 347.177 L 250.820 347.397 254.918 347.469 C 257.455 347.514,259.016 347.402,259.016 347.177 C 259.016 346.976,258.975 346.845,258.925 346.884 C 258.875 346.924,257.031 347.056,254.827 347.177 M204.163 348.113 C 204.478 348.428,204.736 348.838,204.736 349.024 C 204.736 349.210,204.904 349.362,205.109 349.362 C 205.314 349.362,205.213 348.953,204.885 348.452 C 204.556 347.951,204.131 347.541,203.939 347.541 C 203.748 347.541,203.849 347.799,204.163 348.113 M204.736 350.093 C 204.736 350.361,204.465 350.880,204.133 351.246 C 203.801 351.613,203.692 351.913,203.889 351.913 C 204.365 351.913,205.291 350.160,204.979 349.849 C 204.845 349.715,204.736 349.825,204.736 350.093 M152.459 353.881 C 152.459 354.764,152.582 355.410,152.732 355.317 C 152.883 355.224,153.005 354.502,153.005 353.713 C 153.005 352.923,152.883 352.277,152.732 352.277 C 152.582 352.277,152.459 352.999,152.459 353.881 M200.642 355.449 C 201.095 355.536,201.751 355.533,202.099 355.442 C 202.447 355.350,202.077 355.279,201.275 355.283 C 200.474 355.287,200.189 355.362,200.642 355.449 M278.700 356.176 C 278.706 356.336,279.116 356.761,279.611 357.121 C 280.105 357.481,280.505 357.645,280.499 357.485 C 280.492 357.326,280.082 356.900,279.588 356.540 C 279.093 356.180,278.694 356.016,278.700 356.176 M113.575 357.940 C 113.670 358.438,113.869 358.920,114.016 359.011 C 114.164 359.102,114.207 358.769,114.112 358.271 C 114.016 357.774,113.818 357.292,113.670 357.201 C 113.523 357.109,113.480 357.442,113.575 357.940 M127.629 361.566 C 127.631 363.169,127.695 363.780,127.772 362.923 C 127.849 362.066,127.848 360.755,127.769 360.009 C 127.691 359.263,127.628 359.964,127.629 361.566 M123.862 362.113 C 123.862 362.914,123.989 363.570,124.144 363.570 C 124.300 363.570,124.365 362.914,124.288 362.113 C 124.212 361.311,124.085 360.656,124.005 360.656 C 123.926 360.656,123.862 361.311,123.862 362.113 M234.708 362.842 C 234.708 363.743,234.779 364.112,234.865 363.661 C 234.952 363.210,234.952 362.473,234.865 362.022 C 234.779 361.571,234.708 361.940,234.708 362.842  M -25 0 L -5 0 L -5 20 L -25 20 Z M 405 0 L 425 0 L 425 20 L 405 20 Z" stroke="none" fill="#3c441c" fill-rule="evenodd" transform="translate(490,0)"></path><path id="path2" d="M193.260 0.394 C 190.656 0.553,187.705 0.851,186.703 1.056 C 185.701 1.261,183.570 1.589,181.967 1.784 C 179.422 2.094,177.125 2.462,173.770 3.099 C 173.270 3.194,171.876 3.445,170.674 3.656 C 169.472 3.868,168.236 4.177,167.927 4.344 C 167.619 4.510,166.471 4.767,165.377 4.914 C 164.283 5.061,163.224 5.304,163.024 5.454 C 162.823 5.604,162.086 5.832,161.384 5.961 C 160.240 6.172,157.847 7.180,157.377 7.650 C 157.277 7.750,156.755 8.078,156.218 8.379 C 155.680 8.679,154.286 9.498,153.121 10.198 C 148.698 12.854,143.798 14.036,133.515 14.929 C 131.311 15.121,128.689 15.448,127.687 15.657 C 126.685 15.866,124.800 16.193,123.497 16.384 C 120.035 16.891,115.184 17.780,114.271 18.074 C 113.836 18.215,112.495 18.539,111.293 18.795 C 110.091 19.050,108.124 19.509,106.922 19.814 C 105.719 20.118,103.889 20.580,102.853 20.840 C 101.818 21.100,100.848 21.435,100.698 21.585 C 100.548 21.735,100.109 21.858,99.723 21.858 C 98.919 21.858,94.100 23.202,93.223 23.671 C 92.902 23.843,91.877 24.097,90.946 24.237 C 90.015 24.377,89.253 24.615,89.253 24.767 C 89.253 24.919,88.590 25.149,87.780 25.279 C 86.970 25.409,86.027 25.664,85.685 25.847 C 85.343 26.030,84.408 26.348,83.607 26.555 C 79.539 27.600,77.745 28.151,77.432 28.450 C 77.241 28.631,76.750 28.781,76.339 28.782 C 75.928 28.783,75.155 29.012,74.620 29.291 C 74.085 29.570,72.980 29.911,72.163 30.049 C 71.346 30.187,70.585 30.450,70.472 30.633 C 70.359 30.816,69.907 30.966,69.468 30.968 C 69.029 30.969,68.233 31.198,67.698 31.477 C 67.164 31.756,66.057 32.097,65.239 32.235 C 64.421 32.374,63.752 32.636,63.752 32.819 C 63.752 33.002,63.465 33.149,63.115 33.147 C 61.384 33.136,53.804 35.935,52.613 37.025 C 49.387 39.980,52.000 42.935,57.403 42.443 C 60.279 42.181,68.844 42.848,69.381 43.376 C 69.571 43.563,69.991 43.716,70.314 43.716 C 71.267 43.716,72.748 45.609,72.977 47.119 C 73.832 52.760,80.185 54.141,90.164 50.855 C 97.366 48.483,105.102 46.362,107.553 46.086 C 108.702 45.956,109.725 45.717,109.826 45.554 C 109.927 45.391,110.790 45.129,111.744 44.973 C 112.698 44.817,113.643 44.641,113.843 44.581 C 114.044 44.521,114.945 44.303,115.847 44.097 C 118.208 43.555,120.343 42.899,120.772 42.583 C 120.976 42.432,123.230 42.107,125.781 41.860 C 128.332 41.612,130.419 41.273,130.419 41.106 C 130.419 40.938,131.065 40.801,131.855 40.801 C 132.644 40.801,133.397 40.628,133.528 40.417 C 133.749 40.059,135.222 39.998,143.169 40.016 C 146.873 40.025,154.827 40.850,154.827 41.226 C 154.827 41.668,166.393 41.609,166.667 41.166 C 166.947 40.713,170.010 40.682,170.287 41.129 C 170.399 41.310,171.066 41.457,171.771 41.457 C 174.207 41.457,178.329 41.960,179.781 42.434 C 180.583 42.696,182.173 43.004,183.316 43.119 C 185.614 43.349,187.978 44.197,187.978 44.790 C 187.978 45.001,188.296 45.173,188.685 45.173 C 189.074 45.173,189.482 45.319,189.593 45.497 C 189.703 45.675,190.201 45.923,190.700 46.049 C 191.199 46.174,193.168 47.021,195.077 47.931 C 196.985 48.841,198.717 49.480,198.925 49.351 C 199.133 49.223,199.501 49.271,199.743 49.458 C 200.284 49.878,206.082 52.217,208.561 53.015 C 209.563 53.338,211.120 53.947,212.022 54.368 C 213.665 55.137,222.913 55.573,224.954 54.979 C 225.355 54.862,226.421 54.563,227.322 54.313 C 234.486 52.329,237.381 46.011,231.785 44.576 C 231.334 44.460,230.965 44.237,230.965 44.080 C 230.965 43.923,230.550 43.691,230.042 43.563 C 229.168 43.344,227.744 42.024,222.816 36.866 C 219.786 33.694,218.489 33.277,205.647 31.344 C 202.842 30.922,199.481 30.383,198.179 30.147 L 195.811 29.716 198.725 29.447 C 203.547 29.002,205.813 28.350,210.088 26.179 C 219.415 21.441,224.143 21.862,236.038 28.486 C 238.127 29.649,239.990 30.601,240.179 30.601 C 240.372 30.601,240.404 30.959,240.251 31.421 C 239.155 34.728,239.895 37.448,242.471 39.584 C 243.400 40.354,244.551 41.345,245.029 41.786 C 245.901 42.589,247.631 43.480,248.998 43.830 C 249.399 43.933,250.665 44.359,251.812 44.777 C 254.186 45.642,256.744 45.737,260.470 45.098 C 264.716 44.370,268.331 46.490,284.870 59.407 C 285.364 59.793,286.051 60.109,286.396 60.109 C 286.742 60.109,287.116 60.257,287.227 60.438 C 287.339 60.618,288.415 60.880,289.617 61.020 C 290.820 61.160,291.896 61.422,292.008 61.602 C 292.119 61.783,292.597 61.931,293.069 61.931 C 293.542 61.931,293.983 62.054,294.050 62.204 C 294.117 62.354,294.991 63.126,295.993 63.919 C 296.995 64.712,298.151 65.711,298.564 66.139 C 298.976 66.567,300.124 67.203,301.114 67.553 C 302.104 67.902,303.200 68.338,303.549 68.521 C 305.417 69.502,317.739 70.352,318.244 69.535 C 318.352 69.360,319.209 69.207,320.149 69.195 C 321.089 69.183,322.596 69.026,323.497 68.846 C 324.399 68.666,326.079 68.346,327.231 68.134 C 332.509 67.165,334.436 65.860,334.704 63.072 L 334.875 61.292 338.815 61.130 C 340.983 61.041,342.972 60.796,343.236 60.586 C 343.500 60.376,344.331 60.094,345.082 59.958 C 345.833 59.823,346.448 59.568,346.448 59.393 C 346.448 59.218,346.923 58.970,347.503 58.843 C 351.660 57.930,352.748 53.030,348.998 52.110 C 347.520 51.748,335.027 47.392,332.605 46.395 L 330.965 45.719 334.608 45.482 C 339.796 45.143,342.796 44.755,343.019 44.393 C 343.125 44.221,343.461 44.080,343.766 44.080 C 344.559 44.080,349.351 41.704,350.605 40.688 C 351.729 39.778,351.649 38.980,350.434 38.980 C 350.045 38.980,349.727 38.816,349.727 38.616 C 349.727 38.415,349.554 38.251,349.344 38.251 C 349.030 38.251,346.198 37.123,341.166 34.992 C 338.247 33.756,336.579 33.151,336.089 33.151 C 335.776 33.151,335.519 33.000,335.519 32.816 C 335.519 32.631,335.016 32.370,334.402 32.235 C 333.787 32.100,332.844 31.760,332.307 31.480 C 331.769 31.199,331.123 30.969,330.869 30.968 C 330.616 30.966,330.124 30.802,329.776 30.601 C 329.263 30.306,327.684 29.634,326.776 29.325 C 326.676 29.291,326.348 29.162,326.047 29.038 C 325.747 28.915,324.599 28.545,323.497 28.216 C 322.395 27.887,321.002 27.460,320.401 27.266 C 319.800 27.072,317.350 26.762,314.958 26.575 C 312.566 26.389,310.443 26.071,310.241 25.869 C 310.038 25.667,309.661 25.501,309.402 25.501 C 309.144 25.501,307.855 24.763,306.538 23.862 C 305.221 22.960,304.031 22.221,303.893 22.220 C 303.756 22.219,303.151 21.935,302.550 21.590 C 301.596 21.042,300.096 20.949,290.710 20.860 C 279.318 20.753,278.104 20.598,274.317 18.777 C 272.544 17.924,270.965 17.049,270.674 16.758 C 270.141 16.224,264.849 13.843,264.196 13.843 C 263.775 13.843,263.330 13.679,263.206 13.479 C 263.082 13.279,262.622 13.115,262.183 13.115 C 261.453 13.115,261.395 12.962,261.508 11.331 C 261.660 9.137,259.956 6.262,258.470 6.203 C 258.270 6.195,257.656 5.954,257.106 5.667 C 256.556 5.380,255.326 5.032,254.374 4.894 C 253.421 4.756,252.477 4.543,252.277 4.422 C 252.077 4.300,251.831 4.188,251.730 4.173 C 251.630 4.158,250.647 4.023,249.545 3.874 C 248.443 3.724,247.213 3.456,246.812 3.276 C 246.103 2.959,244.238 2.656,237.887 1.827 C 236.184 1.605,234.053 1.269,233.151 1.081 C 228.483 0.105,204.722 -0.304,193.260 0.394 M0.000 260.108 L 0.000 323.133 200.000 323.133 L 400.000 323.133 400.000 260.109 L 400.000 197.086 343.789 197.086 C 284.353 197.086,286.703 197.017,286.703 198.741 C 286.703 200.863,282.914 200.729,342.561 200.729 L 397.086 200.729 397.086 260.291 L 397.086 319.854 200.000 319.854 L 2.914 319.854 2.914 260.291 L 2.914 200.729 59.883 200.729 C 122.565 200.729,117.836 200.913,117.602 198.476 L 117.486 197.268 58.743 197.176 L 0.000 197.083 0.000 260.108  M -25 0 L -5 0 L -5 20 L -25 20 Z M 405 0 L 425 0 L 425 20 L 405 20 Z" stroke="none" fill="#636b34" fill-rule="evenodd" transform="translate(950,0)"></path><path id="path3" d="M215.665 23.673 C 214.563 24.033,211.940 25.209,209.836 26.287 C 205.806 28.350,203.501 29.006,198.725 29.447 L 195.811 29.716 198.179 30.147 C 199.481 30.383,202.842 30.922,205.647 31.344 C 220.010 33.506,220.007 33.504,225.922 40.172 C 227.386 41.822,229.691 42.236,238.889 42.499 C 245.557 42.690,246.300 42.458,244.036 40.888 C 240.084 38.147,238.965 35.347,240.253 31.421 C 240.404 30.961,240.372 30.601,240.179 30.601 C 239.990 30.601,238.127 29.649,236.038 28.486 C 226.879 23.386,220.878 21.968,215.665 23.673 M141.977 39.971 C 142.624 40.052,143.772 40.053,144.527 39.974 C 145.283 39.896,144.754 39.830,143.352 39.828 C 141.949 39.826,141.331 39.891,141.977 39.971 M58.553 42.522 C 59.200 42.602,60.347 42.603,61.103 42.525 C 61.859 42.446,61.330 42.380,59.927 42.378 C 58.525 42.377,57.906 42.441,58.553 42.522 M248.330 44.383 C 248.612 45.460,249.495 46.093,251.457 46.622 C 253.074 47.059,253.905 48.087,252.641 48.087 C 251.442 48.087,251.948 51.332,253.361 52.705 C 255.226 54.516,261.378 55.063,263.177 53.577 C 263.393 53.399,264.187 53.138,264.940 52.997 C 265.694 52.856,266.400 52.595,266.510 52.418 C 267.126 51.420,271.729 52.446,273.330 53.937 C 273.748 54.326,274.223 54.645,274.386 54.645 C 274.548 54.645,274.681 54.963,274.681 55.352 C 274.681 55.891,275.043 56.131,276.205 56.360 C 277.452 56.607,277.778 56.847,278.001 57.680 C 278.495 59.527,278.918 59.745,282.012 59.745 C 284.599 59.745,285.645 59.387,284.425 58.919 C 284.174 58.823,279.987 55.770,275.120 52.135 C 265.072 44.631,264.578 44.394,260.470 45.098 C 256.733 45.739,254.185 45.643,251.812 44.771 C 248.509 43.558,248.102 43.513,248.330 44.383 M343.019 44.393 C 342.796 44.755,339.796 45.143,334.608 45.482 L 330.965 45.719 332.605 46.395 C 334.764 47.284,347.491 51.755,348.543 51.994 C 349.284 52.162,349.362 52.044,349.362 50.763 C 349.362 48.827,347.799 46.990,345.193 45.863 C 343.967 45.333,343.242 44.812,343.344 44.536 C 343.534 44.018,343.311 43.920,343.019 44.393 M70.161 45.767 C 69.379 46.052,68.313 46.341,67.793 46.410 C 67.274 46.478,66.551 46.660,66.187 46.813 C 65.822 46.966,64.593 46.958,63.454 46.795 C 58.946 46.150,52.287 46.657,51.217 47.726 C 51.019 47.925,50.520 48.088,50.109 48.090 C 49.699 48.091,48.893 48.337,48.319 48.636 C 47.745 48.935,47.089 49.186,46.862 49.193 C 46.634 49.199,45.792 49.522,44.991 49.909 C 44.189 50.296,43.247 50.618,42.896 50.625 C 42.546 50.632,42.259 50.801,42.259 51.002 C 42.259 51.202,41.890 51.367,41.439 51.368 C 40.988 51.370,40.199 51.590,39.684 51.859 C 39.170 52.127,38.296 52.460,37.741 52.599 C 35.832 53.079,33.884 54.617,33.073 56.287 L 32.286 57.907 33.008 59.281 C 33.605 60.419,34.021 60.728,35.426 61.078 C 37.899 61.695,38.056 61.873,36.994 62.857 C 35.573 64.174,36.306 66.744,38.434 67.908 C 38.834 68.127,39.279 68.470,39.422 68.670 C 39.783 69.176,46.225 69.139,46.553 68.630 C 46.696 68.410,47.468 68.108,48.269 67.961 C 49.070 67.813,49.829 67.525,49.955 67.320 C 50.285 66.787,55.843 66.800,56.021 67.335 C 56.099 67.569,56.366 67.760,56.615 67.760 C 57.313 67.760,58.574 69.294,58.711 70.310 C 58.817 71.095,59.045 71.236,60.360 71.331 C 61.585 71.420,61.908 71.592,61.999 72.206 C 62.312 74.301,63.315 74.497,73.888 74.527 C 81.526 74.549,84.309 74.691,86.885 75.188 C 93.701 76.504,107.743 75.886,111.125 74.121 C 112.423 73.443,119.048 72.096,122.951 71.716 C 130.158 71.014,133.698 68.924,133.698 65.370 C 133.698 63.105,131.273 60.474,129.185 60.474 C 128.862 60.474,128.597 60.324,128.597 60.141 C 128.597 59.959,127.907 59.692,127.063 59.550 C 126.219 59.407,125.277 59.171,124.968 59.025 C 122.175 57.701,121.491 57.263,120.559 56.201 C 119.436 54.922,119.175 53.364,119.867 52.071 C 121.129 49.714,116.620 47.451,113.496 48.874 C 112.363 49.391,110.382 48.823,107.959 47.286 C 105.814 45.926,104.820 46.122,90.528 50.725 C 79.810 54.177,73.949 52.918,72.929 46.948 C 72.623 45.153,72.268 45.002,70.161 45.767 M101.366 319.763 C 155.615 319.814,244.385 319.814,298.634 319.763 C 352.883 319.712,308.497 319.671,200.000 319.671 C 91.503 319.671,47.117 319.712,101.366 319.763  M -25 0 L -5 0 L -5 20 L -25 20 Z M 405 0 L 425 0 L 425 20 L 405 20 Z" stroke="none" fill="#545c2c" fill-rule="evenodd" transform="translate(30,424)"></path><path id="path4" d="M134.426 40.444 C 133.860 40.629,134.343 40.665,135.701 40.539 C 136.903 40.427,137.955 40.277,138.039 40.204 C 138.333 39.950,135.326 40.149,134.426 40.444 M141.621 40.340 C 142.473 40.416,143.866 40.416,144.718 40.340 C 145.569 40.263,144.872 40.200,143.169 40.200 C 141.466 40.200,140.770 40.263,141.621 40.340 M122.502 42.237 C 121.654 42.375,120.841 42.608,120.694 42.754 C 120.350 43.098,123.507 42.622,124.226 42.221 C 124.839 41.879,124.687 41.881,122.502 42.237 M183.273 43.485 C 183.356 43.559,184.080 43.729,184.882 43.863 C 185.926 44.038,186.184 44.002,185.792 43.735 C 185.301 43.400,182.907 43.163,183.273 43.485 M200.200 50.232 C 200.391 50.410,200.956 50.663,201.457 50.794 L 202.368 51.032 201.457 50.483 C 200.442 49.872,199.644 49.712,200.200 50.232 M202.732 51.299 C 202.933 51.508,203.588 51.783,204.189 51.910 C 204.944 52.069,205.113 52.035,204.736 51.797 C 203.850 51.241,202.308 50.858,202.732 51.299 M205.464 52.484 C 205.464 52.671,205.669 52.826,205.920 52.828 C 206.170 52.831,206.785 52.937,207.286 53.064 C 208.584 53.394,207.979 52.867,206.607 52.473 C 205.910 52.273,205.464 52.278,205.464 52.484 M208.561 53.488 C 208.761 53.681,209.499 53.946,210.200 54.076 C 211.030 54.230,211.285 54.197,210.929 53.981 C 210.099 53.478,208.125 53.067,208.561 53.488 M274.131 55.367 C 274.525 56.128,275.048 56.502,275.957 56.673 C 276.658 56.804,277.231 57.119,277.231 57.373 C 277.231 57.627,277.466 58.029,277.753 58.267 C 278.192 58.631,278.231 58.539,278.001 57.681 C 277.778 56.847,277.453 56.607,276.205 56.360 C 275.080 56.138,274.681 55.884,274.681 55.391 C 274.681 55.023,274.433 54.628,274.130 54.511 C 273.639 54.323,273.639 54.416,274.131 55.367 M293.636 62.524 C 293.642 62.699,294.409 63.415,295.340 64.117 C 296.270 64.818,297.249 65.608,297.514 65.873 C 297.779 66.138,297.996 66.213,297.996 66.041 C 297.996 65.772,296.659 64.577,294.262 62.704 C 293.912 62.430,293.630 62.349,293.636 62.524 M119.308 72.146 C 118.838 72.357,119.421 72.396,120.947 72.254 C 122.250 72.133,123.383 71.974,123.467 71.901 C 123.793 71.613,119.994 71.837,119.308 72.146 M115.624 72.872 C 113.377 73.317,111.020 73.983,111.168 74.131 C 111.341 74.303,118.061 72.953,118.319 72.695 C 118.582 72.432,117.479 72.505,115.624 72.872  M -25 0 L -5 0 L -5 20 L -25 20 Z M 405 0 L 425 0 L 425 20 L 405 20 Z" stroke="none" fill="#5c4c2c" fill-rule="evenodd" transform="translate(490,424)"></path></g></svg>