<?xml version="1.0" encoding="UTF-8"?>
<svg xmlns="http://www.w3.org/2000/svg" xmlns:xlink="http://www.w3.org/1999/xlink" width="71pt" height="65pt" viewBox="0 0 71 65" version="1.1">
<g id="surface1">
<path style=" stroke:none;fill-rule:evenodd;fill:rgb(36.078431%,26.666667%,17.254902%);fill-opacity:1;" d="M 23.84375 7.203125 C 23.78125 7.21875 23.730469 7.273438 23.730469 7.324219 C 23.730469 7.375 23.675781 7.417969 23.605469 7.417969 C 23.535156 7.417969 23.460938 7.449219 23.433594 7.492188 C 23.402344 7.542969 23.191406 7.554688 22.734375 7.527344 C 21.644531 7.46875 21.261719 7.570312 21.554688 7.847656 C 21.824219 8.097656 22.441406 8.234375 22.894531 8.140625 C 23.671875 7.980469 24.273438 8.089844 24.710938 8.46875 C 24.878906 8.617188 25.347656 9.3125 25.347656 9.414062 C 25.347656 9.441406 25.390625 9.542969 25.4375 9.640625 C 25.488281 9.734375 25.550781 9.9375 25.574219 10.09375 C 25.601562 10.25 25.644531 10.40625 25.671875 10.441406 C 25.699219 10.476562 25.742188 10.628906 25.765625 10.78125 C 25.792969 10.933594 25.835938 11.074219 25.863281 11.089844 C 25.890625 11.109375 25.933594 11.226562 25.957031 11.351562 C 25.980469 11.476562 26.027344 11.578125 26.0625 11.578125 C 26.097656 11.578125 26.125 11.636719 26.125 11.703125 C 26.125 11.773438 26.167969 11.875 26.222656 11.929688 C 26.273438 11.980469 26.316406 12.054688 26.316406 12.089844 C 26.316406 12.164062 26.679688 12.546875 26.890625 12.699219 C 27.132812 12.867188 26.6875 13.394531 26.21875 13.5 C 26.113281 13.523438 25.964844 13.570312 25.890625 13.605469 C 25.539062 13.777344 23.769531 13.492188 23.140625 13.164062 C 23.046875 13.117188 22.914062 13.074219 22.847656 13.074219 C 22.78125 13.074219 22.644531 13.03125 22.542969 12.976562 C 22.441406 12.925781 22.316406 12.878906 22.269531 12.878906 C 22.21875 12.878906 22.121094 12.84375 22.050781 12.800781 C 21.925781 12.722656 21.21875 12.8125 20.195312 13.039062 C 19.777344 13.128906 19.382812 13.335938 19.621094 13.335938 C 19.804688 13.335938 21.144531 13.976562 21.144531 14.0625 C 21.144531 14.09375 21.183594 14.117188 21.234375 14.117188 C 21.285156 14.117188 21.539062 14.28125 21.796875 14.484375 C 22.246094 14.832031 22.476562 15.03125 23.023438 15.546875 C 23.417969 15.917969 23.457031 15.941406 23.8125 15.984375 C 24 16.003906 24.183594 16.042969 24.21875 16.074219 C 24.253906 16.101562 24.328125 16.097656 24.378906 16.066406 C 24.433594 16.03125 24.589844 16.003906 24.734375 16.003906 C 24.875 16.003906 25.066406 15.964844 25.15625 15.914062 C 25.25 15.867188 25.410156 15.804688 25.511719 15.78125 C 25.617188 15.753906 25.71875 15.714844 25.734375 15.6875 C 25.753906 15.664062 25.988281 15.53125 26.253906 15.390625 C 27.023438 14.992188 27.460938 15.046875 28.085938 15.625 C 28.667969 16.164062 29.554688 16.71875 29.988281 16.8125 C 30.101562 16.839844 30.210938 16.886719 30.234375 16.917969 C 30.253906 16.953125 30.320312 16.980469 30.386719 16.980469 C 30.539062 16.980469 30.84375 17.246094 30.84375 17.382812 C 30.84375 17.441406 30.871094 17.5 30.902344 17.511719 C 31.152344 17.601562 31.164062 22.105469 30.914062 22.3125 C 30.859375 22.359375 30.859375 22.359375 30.808594 23.613281 C 30.785156 24.242188 30.746094 24.78125 30.722656 24.816406 C 30.699219 24.855469 30.648438 25.527344 30.609375 26.3125 C 30.566406 27.101562 30.519531 27.847656 30.503906 27.972656 C 30.484375 28.097656 30.453125 28.902344 30.425781 29.761719 C 30.402344 30.621094 30.367188 31.367188 30.347656 31.421875 C 30.246094 31.734375 30.105469 36.917969 30.105469 40.464844 C 30.105469 43.953125 30.113281 44.097656 30.386719 44.585938 C 30.457031 44.707031 30.492188 44.828125 30.46875 44.851562 C 30.445312 44.878906 30.453125 44.890625 30.488281 44.878906 C 30.523438 44.867188 30.660156 44.96875 30.789062 45.101562 C 30.917969 45.234375 31.007812 45.34375 30.988281 45.34375 C 30.964844 45.34375 31.136719 45.4375 31.363281 45.554688 C 32.855469 46.320312 34.375 46.429688 35.921875 45.882812 C 36.167969 45.796875 36.464844 45.695312 36.578125 45.660156 C 36.695312 45.625 36.867188 45.554688 36.96875 45.503906 C 37.066406 45.449219 37.199219 45.40625 37.261719 45.40625 C 37.324219 45.40625 37.375 45.378906 37.375 45.347656 C 37.375 45.316406 37.492188 45.269531 37.632812 45.246094 C 37.777344 45.21875 37.890625 45.175781 37.890625 45.140625 C 37.890625 45.109375 37.957031 45.082031 38.039062 45.082031 C 38.117188 45.082031 38.261719 45.039062 38.359375 44.988281 C 38.527344 44.902344 39.015625 44.796875 39.144531 44.824219 C 39.179688 44.828125 39.226562 44.796875 39.25 44.753906 C 39.3125 44.652344 40.886719 44.640625 41.007812 44.738281 C 41.054688 44.777344 41.183594 44.828125 41.296875 44.851562 C 41.574219 44.910156 41.972656 45.121094 41.914062 45.175781 C 41.890625 45.203125 41.914062 45.214844 41.964844 45.203125 C 42.019531 45.1875 42.085938 45.148438 42.109375 45.113281 C 42.175781 45.023438 42.171875 43.976562 42.105469 43.976562 C 42.074219 43.976562 42.027344 43.089844 42.003906 42.007812 C 41.976562 40.925781 41.9375 40.011719 41.914062 39.976562 C 41.886719 39.941406 41.832031 39.164062 41.789062 38.25 C 41.742188 37.339844 41.695312 36.488281 41.679688 36.363281 C 41.667969 36.238281 41.621094 35.507812 41.578125 34.738281 C 41.53125 33.96875 41.488281 33.253906 41.476562 33.144531 C 41.429688 32.667969 41.292969 30.707031 41.289062 30.429688 C 41.289062 30.257812 41.269531 30.121094 41.246094 30.121094 C 41.226562 30.121094 41.1875 29.628906 41.160156 29.03125 C 41.136719 28.429688 41.097656 27.851562 41.082031 27.746094 C 41.0625 27.636719 41.023438 27.125 40.992188 26.605469 C 40.960938 26.089844 40.90625 25.429688 40.871094 25.144531 C 40.796875 24.558594 40.703125 23.167969 40.597656 21.042969 C 40.554688 20.257812 40.5 19.597656 40.472656 19.578125 C 40.445312 19.5625 40.414062 19.105469 40.402344 18.5625 L 40.382812 17.582031 L 40.605469 17.394531 C 40.730469 17.289062 40.851562 17.214844 40.878906 17.222656 C 40.910156 17.230469 40.933594 17.210938 40.933594 17.175781 C 40.933594 17.144531 41 17.078125 41.082031 17.03125 C 41.167969 16.984375 41.441406 16.808594 41.699219 16.636719 C 41.953125 16.46875 42.191406 16.328125 42.230469 16.328125 C 42.265625 16.328125 42.277344 16.300781 42.257812 16.261719 C 42.234375 16.226562 42.246094 16.199219 42.285156 16.199219 C 42.34375 16.199219 43.882812 15.199219 44.066406 15.042969 C 44.207031 14.921875 45.105469 14.347656 45.152344 14.347656 C 45.179688 14.34375 45.226562 14.316406 45.25 14.277344 C 45.320312 14.179688 45.703125 13.921875 45.777344 13.921875 C 45.816406 13.921875 45.847656 13.890625 45.847656 13.855469 C 45.847656 13.820312 45.875 13.792969 45.90625 13.792969 C 45.9375 13.792969 46.1875 13.644531 46.453125 13.464844 C 47.039062 13.074219 46.886719 13.074219 47.683594 13.464844 C 48.046875 13.644531 48.390625 13.792969 48.441406 13.792969 C 48.492188 13.792969 48.574219 13.828125 48.617188 13.871094 C 48.722656 13.980469 49.96875 13.984375 50.035156 13.882812 C 50.0625 13.839844 50.148438 13.789062 50.230469 13.761719 C 50.3125 13.734375 50.414062 13.644531 50.453125 13.558594 C 50.492188 13.472656 50.542969 13.402344 50.570312 13.402344 C 50.597656 13.402344 50.640625 13.285156 50.664062 13.144531 C 50.710938 12.863281 51.183594 12.296875 51.371094 12.296875 C 51.425781 12.296875 51.472656 12.269531 51.472656 12.242188 C 51.472656 12.195312 51.679688 12.128906 52.214844 12.003906 C 52.285156 11.988281 52.488281 11.9375 52.664062 11.898438 L 52.984375 11.820312 L 52.730469 11.597656 C 52.121094 11.070312 52.015625 11.023438 51.679688 11.140625 C 51.511719 11.199219 51.265625 11.269531 51.132812 11.292969 C 50.996094 11.316406 50.875 11.359375 50.855469 11.386719 C 50.835938 11.417969 50.691406 11.460938 50.53125 11.484375 C 50.371094 11.511719 50.226562 11.554688 50.210938 11.582031 C 50.175781 11.632812 49.671875 11.746094 49.574219 11.71875 C 49.546875 11.710938 49.539062 11.734375 49.558594 11.769531 C 49.605469 11.839844 48.9375 11.9375 48.792969 11.882812 C 48.628906 11.820312 48.691406 11.394531 48.910156 11.0625 C 49.160156 10.691406 49.34375 10.53125 49.46875 10.582031 C 49.519531 10.601562 49.636719 10.632812 49.726562 10.644531 C 49.84375 10.660156 49.832031 10.652344 49.6875 10.605469 C 49.496094 10.542969 49.339844 10.320312 49.339844 10.113281 C 49.339844 10.046875 49.261719 10.019531 49.078125 10.019531 C 48.867188 10.019531 48.820312 9.996094 48.820312 9.890625 C 48.820312 9.824219 48.730469 9.703125 48.621094 9.625 C 48.429688 9.488281 48.425781 9.488281 48.503906 9.613281 C 48.570312 9.722656 48.566406 9.761719 48.476562 9.851562 C 48.417969 9.914062 48.367188 9.988281 48.367188 10.019531 C 48.367188 10.332031 46.570312 11.675781 46.34375 11.535156 C 46.308594 11.511719 46.296875 11.523438 46.320312 11.5625 C 46.347656 11.601562 46.25 11.648438 46.074219 11.671875 C 45.914062 11.699219 45.769531 11.742188 45.753906 11.769531 C 45.734375 11.796875 45.566406 11.84375 45.378906 11.867188 C 45.195312 11.894531 45.011719 11.9375 44.976562 11.964844 C 44.9375 11.992188 44.753906 12.039062 44.5625 12.0625 C 44.375 12.085938 44.167969 12.132812 44.109375 12.164062 C 44.050781 12.199219 43.828125 12.257812 43.613281 12.296875 C 42.742188 12.460938 42.449219 12.523438 42.371094 12.574219 C 42.324219 12.605469 42.257812 12.609375 42.222656 12.585938 C 42.183594 12.5625 42.121094 12.574219 42.078125 12.605469 C 42.035156 12.640625 41.898438 12.6875 41.773438 12.707031 C 41.648438 12.726562 41.183594 12.816406 40.738281 12.90625 C 39.71875 13.117188 38.960938 13.078125 38.621094 12.800781 C 38.574219 12.765625 38.539062 12.753906 38.539062 12.78125 C 38.539062 12.835938 38.042969 12.449219 37.835938 12.230469 C 37.492188 11.863281 37.488281 11.847656 37.511719 10.71875 L 37.535156 9.667969 L 37.085938 9.515625 C 36.636719 9.363281 36.359375 9.257812 35.851562 9.035156 C 35.710938 8.972656 35.507812 8.902344 35.40625 8.875 L 35.222656 8.828125 L 35.265625 9.210938 C 35.527344 11.546875 35.089844 13.074219 34.164062 13.074219 C 33.984375 13.074219 33.027344 12.839844 32.859375 12.753906 C 32.800781 12.726562 32.59375 12.632812 32.394531 12.546875 C 32.199219 12.460938 32.003906 12.355469 31.957031 12.3125 C 31.90625 12.265625 31.828125 12.230469 31.777344 12.230469 C 31.726562 12.230469 31.683594 12.207031 31.683594 12.179688 C 31.683594 12.15625 31.574219 12.058594 31.441406 11.96875 C 31.308594 11.878906 31.074219 11.679688 30.917969 11.527344 L 30.636719 11.242188 L 30.949219 10.957031 C 31.125 10.800781 31.308594 10.632812 31.363281 10.585938 C 31.941406 10.0625 33.605469 9.042969 33.878906 9.042969 C 33.917969 9.042969 33.949219 9.011719 33.949219 8.976562 C 33.949219 8.941406 33.992188 8.914062 34.046875 8.914062 C 34.097656 8.914062 34.140625 8.878906 34.140625 8.835938 C 34.140625 8.785156 33.96875 8.773438 33.527344 8.800781 C 32.820312 8.84375 32.824219 8.84375 33.148438 8.351562 C 33.277344 8.15625 33.371094 7.984375 33.359375 7.972656 C 33.179688 7.804688 32.460938 7.675781 32.460938 7.808594 C 32.460938 7.945312 31.574219 8.769531 30.796875 9.363281 C 29.96875 9.992188 29.523438 10.433594 29.25 10.910156 C 29.003906 11.332031 28.710938 11.359375 28.324219 10.996094 C 28.21875 10.894531 28.128906 10.828125 28.128906 10.847656 C 28.128906 11.023438 26.972656 9.613281 26.699219 9.109375 C 26.613281 8.945312 26.527344 8.800781 26.503906 8.78125 C 26.480469 8.765625 26.441406 8.65625 26.417969 8.539062 C 26.394531 8.421875 26.347656 8.328125 26.316406 8.328125 C 26.289062 8.328125 26.242188 8.230469 26.21875 8.117188 C 26.195312 8 26.15625 7.875 26.132812 7.839844 C 26.109375 7.804688 26.0625 7.640625 26.027344 7.480469 L 25.960938 7.1875 L 24.960938 7.183594 C 24.410156 7.179688 23.90625 7.191406 23.84375 7.203125 M 41.578125 7.554688 C 41.578125 7.585938 41.652344 7.609375 41.738281 7.609375 C 41.828125 7.609375 41.902344 7.601562 41.902344 7.585938 C 41.902344 7.574219 41.828125 7.546875 41.738281 7.53125 C 41.652344 7.511719 41.578125 7.523438 41.578125 7.554688 M 42.277344 7.59375 C 42.464844 7.605469 42.753906 7.605469 42.921875 7.59375 C 43.089844 7.582031 42.9375 7.570312 42.582031 7.570312 C 42.226562 7.570312 42.085938 7.582031 42.277344 7.59375 M 19.203125 8.515625 C 19.203125 8.566406 19.53125 8.738281 19.566406 8.703125 C 19.574219 8.691406 19.5 8.632812 19.394531 8.574219 C 19.289062 8.511719 19.203125 8.484375 19.203125 8.515625 M 20.480469 8.699219 C 20.5625 8.714844 20.691406 8.714844 20.773438 8.699219 C 20.851562 8.683594 20.789062 8.667969 20.628906 8.667969 C 20.46875 8.667969 20.402344 8.683594 20.480469 8.699219 M 8.082031 8.886719 L 7.921875 8.984375 L 8.082031 8.941406 C 8.171875 8.917969 8.273438 8.871094 8.304688 8.839844 C 8.40625 8.746094 8.261719 8.777344 8.082031 8.886719 M 21.125 9.5625 C 21.105469 9.632812 21.117188 9.710938 21.152344 9.730469 C 21.183594 9.75 21.210938 9.691406 21.210938 9.597656 C 21.210938 9.398438 21.171875 9.382812 21.125 9.5625 M 21.4375 10.164062 C 21.476562 10.261719 21.726562 10.433594 21.726562 10.359375 C 21.722656 10.332031 21.652344 10.257812 21.5625 10.195312 C 21.464844 10.121094 21.417969 10.109375 21.4375 10.164062 M 22.5625 10.699219 C 22.683594 10.753906 22.796875 10.785156 22.8125 10.765625 C 22.867188 10.714844 22.8125 10.6875 22.566406 10.640625 L 22.339844 10.601562 L 22.5625 10.699219 M 23.644531 11.449219 C 23.695312 11.730469 23.730469 11.78125 23.730469 11.574219 C 23.730469 11.488281 23.699219 11.371094 23.664062 11.320312 C 23.621094 11.25 23.613281 11.289062 23.644531 11.449219 M 23.152344 12.429688 C 23.027344 12.5 22.972656 12.554688 23.03125 12.554688 C 23.085938 12.554688 23.203125 12.496094 23.289062 12.425781 C 23.480469 12.265625 23.4375 12.265625 23.152344 12.429688 M 11.414062 13.269531 C 11.59375 13.347656 11.769531 13.347656 11.769531 13.269531 C 11.769531 13.234375 11.660156 13.207031 11.527344 13.210938 C 11.332031 13.214844 11.308594 13.226562 11.414062 13.269531 M 12.09375 13.277344 C 12.023438 13.324219 12.121094 13.335938 12.445312 13.304688 C 12.691406 13.285156 12.90625 13.253906 12.921875 13.238281 C 12.988281 13.171875 12.183594 13.210938 12.09375 13.277344 M 14.289062 13.269531 C 14.289062 13.304688 14.371094 13.332031 14.46875 13.332031 C 14.625 13.328125 14.632812 13.320312 14.515625 13.269531 C 14.339844 13.195312 14.289062 13.195312 14.289062 13.269531 M 15.90625 13.46875 C 15.90625 13.503906 16.015625 13.53125 16.144531 13.53125 C 16.421875 13.53125 16.410156 13.5 16.117188 13.445312 C 15.996094 13.421875 15.90625 13.429688 15.90625 13.46875 M 17.085938 13.578125 C 17.183594 13.59375 17.34375 13.59375 17.441406 13.578125 C 17.539062 13.5625 17.460938 13.550781 17.265625 13.550781 C 17.070312 13.550781 16.988281 13.5625 17.085938 13.578125 M 49.214844 61.457031 C 48.121094 61.597656 48.015625 62.898438 49.058594 63.398438 C 49.242188 63.484375 49.417969 63.558594 49.445312 63.558594 C 49.75 63.570312 49.921875 64.148438 49.699219 64.394531 C 49.5625 64.550781 48.628906 64.570312 48.578125 64.417969 C 48.527344 64.261719 48.394531 64.339844 48.308594 64.578125 C 48.050781 65.289062 49.976562 65.234375 50.347656 64.519531 C 50.679688 63.871094 50 62.847656 49.230469 62.839844 C 49.09375 62.839844 48.875 62.398438 48.945312 62.265625 C 49.117188 61.941406 49.476562 61.847656 49.847656 62.035156 C 50.109375 62.164062 50.21875 62.121094 50.277344 61.867188 C 50.328125 61.621094 50.1875 61.480469 49.886719 61.476562 C 49.78125 61.476562 49.636719 61.464844 49.5625 61.449219 C 49.492188 61.4375 49.335938 61.441406 49.214844 61.457031 M 19.3125 61.519531 C 19.289062 61.542969 19.269531 61.785156 19.269531 62.054688 C 19.265625 62.328125 19.242188 62.664062 19.207031 62.808594 C 19.175781 62.953125 19.128906 63.515625 19.105469 64.0625 L 19.058594 65.054688 L 19.320312 65.054688 C 19.660156 65.054688 19.660156 65.046875 19.71875 63.734375 C 19.769531 62.589844 19.808594 62.382812 19.878906 62.871094 C 19.902344 63.03125 19.949219 63.179688 19.976562 63.195312 C 20.007812 63.214844 20.050781 63.335938 20.074219 63.464844 C 20.097656 63.597656 20.144531 63.75 20.171875 63.808594 C 20.203125 63.867188 20.292969 64.121094 20.367188 64.367188 C 20.539062 64.925781 20.585938 64.988281 20.855469 64.988281 C 21.066406 64.988281 21.253906 64.730469 21.214844 64.484375 C 21.210938 64.441406 21.230469 64.402344 21.265625 64.402344 C 21.300781 64.402344 21.347656 64.285156 21.371094 64.144531 C 21.394531 64 21.441406 63.867188 21.472656 63.847656 C 21.507812 63.828125 21.535156 63.761719 21.535156 63.699219 C 21.535156 63.640625 21.59375 63.472656 21.660156 63.328125 C 21.730469 63.1875 21.789062 63.019531 21.789062 62.960938 C 21.789062 62.898438 21.816406 62.832031 21.851562 62.8125 C 21.914062 62.773438 21.960938 63.164062 22.019531 64.144531 C 22.074219 65.035156 22.082031 65.054688 22.378906 65.054688 C 22.628906 65.054688 22.632812 65.050781 22.632812 64.808594 C 22.628906 64.515625 22.503906 62.054688 22.476562 61.734375 L 22.457031 61.507812 L 22.089844 61.488281 C 21.824219 61.472656 21.726562 61.492188 21.726562 61.554688 C 21.726562 61.601562 21.683594 61.71875 21.632812 61.820312 C 21.578125 61.917969 21.519531 62.101562 21.496094 62.226562 C 21.472656 62.351562 21.429688 62.453125 21.402344 62.453125 C 21.375 62.453125 21.335938 62.550781 21.3125 62.675781 C 21.289062 62.800781 21.226562 62.984375 21.175781 63.082031 C 21.125 63.183594 21.082031 63.300781 21.082031 63.347656 C 21.082031 63.390625 21.054688 63.480469 21.023438 63.542969 C 20.992188 63.605469 20.9375 63.726562 20.902344 63.816406 C 20.839844 63.972656 20.835938 63.96875 20.761719 63.6875 C 20.722656 63.527344 20.660156 63.335938 20.628906 63.265625 C 20.597656 63.191406 20.503906 62.929688 20.421875 62.679688 C 20.339844 62.429688 20.25 62.214844 20.222656 62.203125 C 20.195312 62.191406 20.175781 62.121094 20.175781 62.050781 C 20.175781 61.613281 19.582031 61.246094 19.3125 61.519531 M 25.183594 61.558594 C 25.164062 61.601562 25.160156 62.402344 25.167969 63.332031 L 25.1875 65.019531 L 26.203125 65.039062 L 27.222656 65.054688 L 27.222656 64.53125 L 25.800781 64.53125 L 25.800781 63.496094 L 26.429688 63.476562 L 27.0625 63.460938 L 27.0625 62.9375 L 26.429688 62.921875 L 25.800781 62.902344 L 25.800781 61.996094 L 26.449219 61.996094 C 27.152344 61.996094 27.214844 61.964844 27.132812 61.636719 L 27.089844 61.476562 L 26.152344 61.476562 C 25.457031 61.476562 25.207031 61.496094 25.183594 61.558594 M 29.660156 61.519531 C 29.417969 61.761719 29.667969 64.363281 29.964844 64.714844 C 30.519531 65.371094 32.066406 65.054688 32.164062 64.261719 C 32.167969 64.238281 32.191406 64.195312 32.21875 64.167969 C 32.246094 64.144531 32.265625 63.523438 32.265625 62.792969 L 32.265625 61.46875 L 31.71875 61.507812 L 31.683594 62.777344 C 31.640625 64.332031 31.558594 64.53125 30.9375 64.53125 C 30.351562 64.53125 30.261719 64.3125 30.261719 62.863281 C 30.261719 62.214844 30.246094 61.636719 30.222656 61.578125 C 30.183594 61.472656 29.75 61.429688 29.660156 61.519531 M 34.898438 61.519531 C 34.871094 61.542969 34.851562 62.332031 34.851562 63.273438 L 34.851562 64.984375 L 35.019531 65.027344 C 36.5 65.402344 37.792969 64.242188 36.890625 63.351562 L 36.675781 63.140625 L 36.832031 62.953125 C 37.1875 62.527344 37.039062 61.867188 36.535156 61.605469 C 36.28125 61.476562 35.007812 61.40625 34.898438 61.519531 M 39.601562 61.558594 C 39.585938 61.601562 39.578125 62.402344 39.589844 63.332031 L 39.605469 65.019531 L 40.625 65.039062 L 41.644531 65.054688 L 41.644531 64.53125 L 40.15625 64.53125 L 40.15625 61.476562 L 39.894531 61.476562 C 39.746094 61.476562 39.621094 61.511719 39.601562 61.558594 M 43.972656 63.261719 L 43.972656 65.054688 L 46.046875 65.054688 L 46.027344 64.808594 L 46.007812 64.566406 L 44.554688 64.527344 L 44.554688 63.496094 L 45.183594 63.476562 L 45.8125 63.460938 L 45.832031 63.183594 L 45.855469 62.90625 L 44.554688 62.90625 L 44.554688 62 L 45.246094 61.980469 L 45.941406 61.964844 L 45.941406 61.507812 L 44.957031 61.488281 L 43.972656 61.472656 L 43.972656 63.261719 M 36.113281 62.023438 C 36.699219 62.328125 36.460938 62.902344 35.742188 62.90625 L 35.5 62.90625 L 35.5 62.460938 C 35.5 61.894531 35.65625 61.78125 36.113281 62.023438 M 36.121094 63.5 C 36.828125 63.679688 36.582031 64.53125 35.828125 64.53125 L 35.5 64.53125 L 35.5 63.980469 C 35.5 63.351562 35.507812 63.34375 36.121094 63.5 "/>
<path style=" stroke:none;fill-rule:evenodd;fill:rgb(23.529412%,26.666667%,10.980392%);fill-opacity:1;" d="M 12.699219 7.992188 C 12.730469 8.039062 12.699219 8.066406 12.613281 8.066406 C 12.539062 8.066406 12.480469 8.09375 12.480469 8.125 C 12.480469 8.195312 12.726562 8.140625 12.773438 8.0625 C 12.789062 8.035156 12.769531 7.988281 12.730469 7.964844 C 12.683594 7.933594 12.671875 7.945312 12.699219 7.992188 M 60.9375 8.011719 C 60.957031 8.105469 61.234375 8.21875 61.234375 8.128906 C 61.234375 8.09375 61.179688 8.066406 61.113281 8.066406 C 61.042969 8.066406 60.972656 8.035156 60.957031 8 C 60.9375 7.964844 60.929688 7.96875 60.9375 8.011719 M 10.636719 8.292969 C 10.789062 8.347656 11.1875 8.363281 11.1875 8.3125 C 11.1875 8.285156 11.046875 8.265625 10.878906 8.265625 C 10.710938 8.269531 10.601562 8.28125 10.636719 8.292969 M 44.863281 8.371094 C 44.929688 8.398438 44.925781 8.433594 44.835938 8.527344 C 44.703125 8.675781 44.761719 8.695312 44.90625 8.550781 C 45.011719 8.441406 44.984375 8.324219 44.855469 8.332031 C 44.804688 8.335938 44.808594 8.347656 44.863281 8.371094 M 24.832031 8.683594 C 24.914062 8.773438 24.992188 8.847656 25.003906 8.847656 C 25.015625 8.847656 24.980469 8.773438 24.921875 8.683594 C 24.863281 8.59375 24.785156 8.523438 24.746094 8.523438 C 24.710938 8.523438 24.746094 8.59375 24.832031 8.683594 M 6.820312 9.285156 C 6.625 9.332031 6.5625 9.421875 6.753906 9.382812 C 6.84375 9.367188 6.9375 9.328125 6.957031 9.292969 C 6.976562 9.261719 6.980469 9.242188 6.972656 9.246094 C 6.960938 9.25 6.894531 9.265625 6.820312 9.285156 M 21.253906 9.28125 C 21.191406 9.339844 21.199219 9.875 21.257812 9.910156 C 21.285156 9.925781 21.304688 9.78125 21.304688 9.589844 C 21.304688 9.394531 21.304688 9.238281 21.300781 9.238281 C 21.296875 9.238281 21.277344 9.257812 21.253906 9.28125 M 6.234375 9.574219 C 5.984375 9.761719 5.875 9.878906 6.078125 9.734375 C 6.167969 9.671875 6.289062 9.605469 6.351562 9.585938 C 6.414062 9.566406 6.464844 9.523438 6.464844 9.488281 C 6.464844 9.40625 6.441406 9.417969 6.234375 9.574219 M 48.367188 9.554688 C 48.367188 9.59375 48.394531 9.628906 48.429688 9.628906 C 48.460938 9.628906 48.5 9.679688 48.515625 9.742188 C 48.542969 9.835938 48.546875 9.839844 48.554688 9.75 C 48.558594 9.691406 48.519531 9.605469 48.464844 9.5625 C 48.398438 9.507812 48.367188 9.503906 48.367188 9.554688 M 45.652344 9.773438 C 45.652344 9.800781 45.726562 9.824219 45.8125 9.824219 C 45.902344 9.824219 45.976562 9.800781 45.976562 9.773438 C 45.976562 9.746094 45.902344 9.726562 45.8125 9.726562 C 45.726562 9.726562 45.652344 9.746094 45.652344 9.773438 M 5.796875 10.03125 C 5.746094 10.234375 5.785156 10.242188 5.871094 10.050781 C 5.914062 9.960938 5.921875 9.886719 5.890625 9.886719 C 5.859375 9.886719 5.816406 9.953125 5.796875 10.03125 M 47.957031 10.425781 C 47.894531 10.492188 47.851562 10.5625 47.867188 10.578125 C 47.882812 10.59375 47.949219 10.546875 48.011719 10.472656 C 48.164062 10.304688 48.113281 10.261719 47.957031 10.425781 M 49.15625 10.742188 C 49.042969 10.851562 48.949219 10.976562 48.949219 11.011719 C 48.949219 11.050781 48.957031 11.066406 48.964844 11.054688 C 48.976562 11.039062 49.082031 10.914062 49.207031 10.78125 C 49.476562 10.488281 49.441406 10.460938 49.15625 10.742188 M 6.550781 11.089844 C 6.550781 11.148438 6.578125 11.183594 6.613281 11.171875 C 6.644531 11.164062 6.667969 11.125 6.667969 11.089844 C 6.667969 11.058594 6.644531 11.019531 6.613281 11.011719 C 6.578125 11 6.550781 11.035156 6.550781 11.089844 M 51.699219 11.058594 C 51.675781 11.09375 51.601562 11.125 51.53125 11.125 C 51.464844 11.125 51.40625 11.152344 51.40625 11.1875 C 51.40625 11.222656 51.484375 11.222656 51.601562 11.179688 C 51.707031 11.140625 51.796875 11.085938 51.796875 11.050781 C 51.796875 10.976562 51.746094 10.976562 51.699219 11.058594 M 30.699219 11.164062 C 30.65625 11.230469 30.753906 11.433594 30.800781 11.382812 C 30.816406 11.367188 30.808594 11.296875 30.78125 11.226562 C 30.757812 11.15625 30.71875 11.128906 30.699219 11.164062 M 9.117188 11.96875 L 8.890625 12.019531 L 9.097656 12.027344 C 9.210938 12.03125 9.320312 12.003906 9.34375 11.96875 C 9.367188 11.933594 9.375 11.910156 9.363281 11.914062 C 9.351562 11.917969 9.242188 11.945312 9.117188 11.96875 M 9.730469 12.015625 C 9.839844 12.03125 9.953125 12.070312 9.988281 12.105469 C 10.019531 12.136719 10.078125 12.164062 10.113281 12.164062 C 10.148438 12.164062 10.121094 12.121094 10.050781 12.070312 C 9.980469 12.015625 9.839844 11.976562 9.730469 11.980469 L 9.539062 11.988281 L 9.730469 12.015625 M 26.75 13.085938 C 26.683594 13.15625 26.640625 13.230469 26.65625 13.242188 C 26.671875 13.257812 26.75 13.199219 26.835938 13.109375 C 26.917969 13.019531 26.960938 12.949219 26.925781 12.949219 C 26.894531 12.953125 26.8125 13.015625 26.75 13.085938 M 13.171875 13.253906 C 13.289062 13.265625 13.492188 13.265625 13.625 13.253906 C 13.761719 13.238281 13.667969 13.226562 13.417969 13.226562 C 13.167969 13.226562 13.058594 13.238281 13.171875 13.253906 M 16.917969 13.613281 C 16.9375 13.640625 17.089844 13.660156 17.265625 13.660156 C 17.4375 13.660156 17.59375 13.640625 17.609375 13.613281 C 17.628906 13.585938 17.472656 13.5625 17.265625 13.5625 C 17.058594 13.5625 16.902344 13.585938 16.917969 13.613281 M 22.761719 15.371094 C 22.816406 15.417969 22.898438 15.5 22.945312 15.550781 C 23.023438 15.632812 23.027344 15.625 22.964844 15.507812 C 22.925781 15.429688 22.84375 15.351562 22.777344 15.328125 C 22.679688 15.292969 22.675781 15.296875 22.761719 15.371094 M 41.496094 16.753906 C 41.363281 16.84375 41.253906 16.933594 41.253906 16.949219 C 41.253906 16.964844 41.371094 16.902344 41.515625 16.808594 C 41.738281 16.660156 41.816406 16.589844 41.753906 16.589844 C 41.746094 16.589844 41.628906 16.664062 41.496094 16.753906 M 29.875 16.804688 C 29.875 16.824219 29.96875 16.867188 30.082031 16.910156 C 30.199219 16.949219 30.261719 16.957031 30.226562 16.921875 C 30.15625 16.855469 29.875 16.761719 29.875 16.804688 M 31.125 19.449219 C 31.125 19.789062 31.136719 19.929688 31.148438 19.761719 C 31.164062 19.589844 31.164062 19.3125 31.148438 19.140625 C 31.136719 18.972656 31.125 19.109375 31.125 19.449219 M 40.65625 22.476562 C 40.675781 22.566406 40.699219 22.636719 40.714844 22.636719 C 40.726562 22.636719 40.738281 22.566406 40.738281 22.476562 C 40.738281 22.386719 40.710938 22.3125 40.683594 22.3125 C 40.652344 22.3125 40.640625 22.386719 40.65625 22.476562 M 40.851562 25.109375 C 40.867188 25.21875 40.894531 25.304688 40.90625 25.304688 C 40.921875 25.304688 40.933594 25.21875 40.933594 25.109375 C 40.933594 25.003906 40.90625 24.914062 40.878906 24.914062 C 40.847656 24.914062 40.835938 25.003906 40.851562 25.109375 M 41.273438 30.445312 C 41.273438 30.605469 41.285156 30.671875 41.300781 30.589844 C 41.316406 30.511719 41.316406 30.378906 41.300781 30.296875 C 41.285156 30.21875 41.273438 30.285156 41.273438 30.445312 M 30.277344 31.777344 C 30.28125 31.921875 30.292969 31.972656 30.308594 31.890625 C 30.324219 31.8125 30.324219 31.695312 30.308594 31.632812 C 30.289062 31.570312 30.277344 31.636719 30.277344 31.777344 M 41.433594 32.785156 C 41.449219 32.894531 41.476562 32.980469 41.488281 32.980469 C 41.503906 32.980469 41.515625 32.894531 41.515625 32.785156 C 41.515625 32.679688 41.488281 32.589844 41.460938 32.589844 C 41.429688 32.589844 41.417969 32.679688 41.433594 32.785156 M 41.640625 35.765625 L 41.671875 36.203125 L 41.695312 35.820312 C 41.707031 35.609375 41.691406 35.410156 41.664062 35.382812 C 41.632812 35.355469 41.625 35.527344 41.640625 35.765625 M 30.078125 36.738281 C 30.085938 37.195312 30.113281 37.144531 30.148438 36.609375 C 30.15625 36.4375 30.144531 36.300781 30.117188 36.300781 C 30.089844 36.300781 30.070312 36.496094 30.078125 36.738281 M 34.984375 46.121094 L 34.757812 46.171875 L 34.960938 46.179688 C 35.074219 46.183594 35.1875 46.160156 35.210938 46.121094 C 35.230469 46.085938 35.238281 46.0625 35.230469 46.066406 C 35.21875 46.070312 35.105469 46.097656 34.984375 46.121094 M 9.636719 49.832031 L 9.636719 50.351562 L 11.058594 50.351562 L 11.058594 53.996094 L 12.222656 53.996094 L 12.222656 50.351562 L 13.644531 50.351562 L 13.644531 49.308594 L 9.636719 49.308594 L 9.636719 49.832031 M 17.652344 51.652344 L 17.652344 53.996094 L 20.949219 53.996094 L 20.949219 52.886719 L 18.882812 52.886719 L 18.882812 52.109375 L 20.691406 52.109375 L 20.691406 51.066406 L 18.882812 51.066406 L 18.882812 50.351562 L 20.949219 50.351562 L 20.949219 49.308594 L 17.652344 49.308594 L 17.652344 51.652344 M 25.152344 51.652344 L 25.152344 53.996094 L 26.382812 53.996094 L 26.382812 50.351562 L 26.769531 50.351562 C 26.984375 50.351562 27.160156 50.378906 27.160156 50.417969 C 27.160156 50.453125 27.195312 50.480469 27.242188 50.480469 C 27.386719 50.480469 27.546875 50.738281 27.546875 50.96875 C 27.546875 51.332031 27.371094 51.457031 26.867188 51.457031 C 26.492188 51.457031 26.445312 51.46875 26.445312 51.585938 C 26.445312 51.660156 26.472656 51.71875 26.503906 51.71875 C 26.535156 51.71875 26.582031 51.796875 26.605469 51.894531 C 26.632812 51.992188 26.671875 52.089844 26.695312 52.105469 C 26.71875 52.125 26.8125 52.285156 26.898438 52.464844 C 26.988281 52.644531 27.097656 52.828125 27.140625 52.875 C 27.1875 52.921875 27.222656 53.003906 27.222656 53.054688 C 27.222656 53.105469 27.25 53.148438 27.28125 53.148438 C 27.316406 53.148438 27.359375 53.238281 27.386719 53.34375 C 27.410156 53.449219 27.449219 53.539062 27.480469 53.539062 C 27.507812 53.539062 27.550781 53.617188 27.578125 53.71875 C 27.640625 53.972656 27.699219 53.992188 28.410156 53.992188 L 29.050781 53.996094 L 29.007812 53.785156 C 28.984375 53.671875 28.945312 53.5625 28.917969 53.542969 C 28.890625 53.523438 28.832031 53.433594 28.789062 53.34375 C 28.691406 53.144531 28.5625 52.933594 28.507812 52.886719 C 28.488281 52.871094 28.449219 52.789062 28.421875 52.710938 C 28.398438 52.628906 28.355469 52.5625 28.324219 52.5625 C 28.140625 52.5625 28.199219 52.210938 28.417969 52 C 28.542969 51.878906 28.644531 51.722656 28.644531 51.65625 C 28.644531 51.585938 28.679688 51.523438 28.722656 51.507812 C 28.929688 51.4375 28.726562 49.960938 28.507812 49.960938 C 28.480469 49.960938 28.441406 49.902344 28.417969 49.832031 C 28.398438 49.757812 28.308594 49.683594 28.226562 49.664062 C 28.140625 49.640625 28.058594 49.582031 28.039062 49.53125 C 28.019531 49.480469 27.929688 49.441406 27.839844 49.441406 C 27.75 49.441406 27.675781 49.410156 27.675781 49.375 C 27.675781 49.335938 27.210938 49.308594 26.414062 49.308594 L 25.152344 49.308594 L 25.152344 51.652344 M 34.234375 49.46875 C 34.210938 49.5625 34.167969 49.636719 34.140625 49.636719 C 34.113281 49.636719 34.070312 49.753906 34.046875 49.894531 C 34.019531 50.039062 33.976562 50.171875 33.949219 50.1875 C 33.921875 50.207031 33.878906 50.324219 33.855469 50.449219 C 33.832031 50.574219 33.785156 50.675781 33.753906 50.675781 C 33.722656 50.675781 33.679688 50.808594 33.652344 50.96875 C 33.628906 51.128906 33.585938 51.261719 33.558594 51.261719 C 33.53125 51.261719 33.492188 51.363281 33.46875 51.488281 C 33.445312 51.613281 33.398438 51.71875 33.367188 51.71875 C 33.335938 51.71875 33.289062 51.847656 33.265625 52.011719 C 33.242188 52.171875 33.195312 52.304688 33.164062 52.304688 C 33.132812 52.304688 33.105469 52.355469 33.105469 52.417969 C 33.105469 52.480469 33.066406 52.609375 33.015625 52.707031 C 32.964844 52.800781 32.90625 52.976562 32.878906 53.09375 C 32.851562 53.214844 32.804688 53.328125 32.769531 53.351562 C 32.734375 53.375 32.691406 53.527344 32.671875 53.695312 L 32.636719 53.996094 L 33.875 53.996094 L 33.917969 53.703125 C 33.941406 53.539062 33.984375 53.410156 34.011719 53.410156 C 34.039062 53.410156 34.078125 53.261719 34.105469 53.082031 C 34.128906 52.90625 34.171875 52.757812 34.207031 52.757812 C 34.238281 52.757812 34.285156 52.613281 34.308594 52.433594 C 34.332031 52.253906 34.375 52.109375 34.402344 52.109375 C 34.429688 52.109375 34.46875 51.976562 34.496094 51.816406 C 34.519531 51.652344 34.566406 51.523438 34.597656 51.523438 C 34.632812 51.523438 34.675781 51.40625 34.699219 51.261719 C 34.722656 51.117188 34.765625 51 34.796875 51 C 34.828125 51 34.871094 51.117188 34.894531 51.261719 C 34.917969 51.40625 34.957031 51.523438 34.988281 51.523438 C 35.015625 51.523438 35.058594 51.652344 35.082031 51.816406 C 35.105469 51.976562 35.152344 52.109375 35.179688 52.109375 C 35.210938 52.109375 35.253906 52.238281 35.277344 52.402344 C 35.300781 52.5625 35.34375 52.691406 35.371094 52.691406 C 35.398438 52.691406 35.441406 52.839844 35.46875 53.019531 C 35.492188 53.199219 35.539062 53.34375 35.570312 53.34375 C 35.597656 53.34375 35.644531 53.488281 35.667969 53.667969 L 35.710938 53.996094 L 36.347656 53.996094 C 36.699219 53.996094 36.988281 53.976562 36.988281 53.957031 C 36.988281 53.863281 36.832031 53.304688 36.792969 53.246094 C 36.765625 53.210938 36.722656 53.085938 36.699219 52.96875 C 36.671875 52.851562 36.628906 52.757812 36.597656 52.757812 C 36.566406 52.757812 36.523438 52.625 36.5 52.464844 C 36.476562 52.304688 36.433594 52.171875 36.40625 52.171875 C 36.378906 52.171875 36.335938 52.070312 36.3125 51.945312 C 36.289062 51.820312 36.242188 51.71875 36.210938 51.71875 C 36.179688 51.71875 36.136719 51.585938 36.109375 51.425781 C 36.085938 51.265625 36.042969 51.132812 36.015625 51.132812 C 35.988281 51.132812 35.949219 51.03125 35.925781 50.902344 C 35.902344 50.777344 35.859375 50.675781 35.828125 50.675781 C 35.800781 50.675781 35.753906 50.554688 35.730469 50.402344 C 35.707031 50.25 35.664062 50.113281 35.636719 50.09375 C 35.609375 50.074219 35.542969 49.898438 35.488281 49.699219 L 35.394531 49.34375 L 34.832031 49.324219 C 34.28125 49.304688 34.273438 49.308594 34.234375 49.46875 M 40.996094 51.652344 L 40.996094 53.996094 L 42.160156 53.996094 L 42.160156 52.773438 L 42.164062 51.554688 L 42.296875 51.765625 C 42.371094 51.882812 42.457031 51.976562 42.484375 51.976562 C 42.515625 51.976562 42.558594 52.03125 42.578125 52.097656 C 42.597656 52.164062 42.703125 52.304688 42.804688 52.40625 C 42.910156 52.511719 43 52.625 43 52.660156 C 43.003906 52.695312 43.09375 52.796875 43.199219 52.886719 C 43.304688 52.972656 43.390625 53.070312 43.390625 53.101562 C 43.390625 53.132812 43.476562 53.246094 43.582031 53.355469 C 43.691406 53.460938 43.777344 53.578125 43.777344 53.617188 C 43.777344 53.851562 44.066406 53.992188 44.570312 53.992188 L 45.070312 53.996094 L 45.070312 49.308594 L 43.839844 49.308594 L 43.839844 51.664062 L 43.648438 51.46875 C 43.539062 51.359375 43.453125 51.246094 43.453125 51.214844 C 43.453125 51.1875 43.375 51.070312 43.277344 50.957031 C 43.09375 50.753906 42.898438 50.507812 42.695312 50.230469 C 42.632812 50.144531 42.53125 50.027344 42.46875 49.972656 C 42.40625 49.914062 42.355469 49.84375 42.355469 49.8125 C 42.355469 49.785156 42.28125 49.691406 42.191406 49.609375 C 42.105469 49.527344 42.03125 49.425781 42.03125 49.382812 C 42.03125 49.335938 41.855469 49.308594 41.515625 49.308594 L 40.996094 49.308594 L 40.996094 51.652344 M 50.824219 49.375 C 50.824219 49.410156 50.757812 49.441406 50.671875 49.441406 C 50.589844 49.441406 50.445312 49.5 50.355469 49.570312 C 50.265625 49.640625 50.171875 49.699219 50.152344 49.699219 C 50.101562 49.699219 49.660156 50.136719 49.660156 50.1875 C 49.660156 50.214844 49.601562 50.308594 49.53125 50.398438 C 49.460938 50.488281 49.402344 50.628906 49.402344 50.710938 C 49.402344 50.792969 49.367188 50.871094 49.324219 50.886719 C 49.101562 50.960938 49.304688 52.824219 49.539062 52.824219 C 49.5625 52.824219 49.601562 52.898438 49.625 52.992188 C 49.671875 53.175781 50.050781 53.605469 50.167969 53.605469 C 50.210938 53.605469 50.242188 53.628906 50.242188 53.660156 C 50.242188 53.695312 50.324219 53.738281 50.421875 53.765625 C 50.519531 53.789062 50.617188 53.84375 50.644531 53.886719 C 50.707031 53.984375 52.167969 53.992188 52.234375 53.890625 C 52.328125 53.75 52.507812 53.730469 52.507812 53.867188 C 52.507812 53.984375 52.550781 53.996094 53.023438 53.996094 L 53.539062 53.996094 L 53.539062 51.457031 L 52.507812 51.457031 L 52.507812 51.976562 C 52.507812 52.355469 52.484375 52.496094 52.421875 52.496094 C 52.378906 52.496094 52.292969 52.554688 52.230469 52.628906 C 52.167969 52.699219 52.0625 52.757812 51.988281 52.757812 C 51.917969 52.757812 51.859375 52.789062 51.859375 52.824219 C 51.859375 52.859375 51.714844 52.886719 51.535156 52.886719 C 51.359375 52.886719 51.214844 52.859375 51.214844 52.824219 C 51.214844 52.789062 51.171875 52.757812 51.121094 52.757812 C 50.988281 52.757812 50.632812 52.378906 50.632812 52.238281 C 50.632812 52.171875 50.597656 52.105469 50.554688 52.09375 C 50.453125 52.058594 50.457031 51.179688 50.558594 51.144531 C 50.597656 51.132812 50.632812 51.085938 50.632812 51.042969 C 50.632812 50.910156 51.074219 50.480469 51.214844 50.480469 C 51.285156 50.480469 51.34375 50.453125 51.34375 50.417969 C 51.34375 50.378906 51.414062 50.351562 51.503906 50.351562 C 51.59375 50.351562 51.664062 50.378906 51.664062 50.410156 C 51.664062 50.441406 51.753906 50.484375 51.863281 50.503906 C 52.0625 50.546875 52.441406 50.867188 52.441406 50.996094 C 52.441406 51.035156 52.488281 51.066406 52.542969 51.066406 C 52.644531 51.066406 52.710938 51.019531 53.03125 50.726562 C 53.136719 50.628906 53.25 50.546875 53.285156 50.546875 C 53.410156 50.546875 53.351562 50.09375 53.207031 49.976562 C 53.132812 49.914062 53.023438 49.8125 52.96875 49.75 C 52.910156 49.6875 52.828125 49.636719 52.78125 49.636719 C 52.738281 49.636719 52.699219 49.609375 52.699219 49.574219 C 52.699219 49.542969 52.613281 49.496094 52.507812 49.472656 C 52.398438 49.449219 52.3125 49.402344 52.3125 49.371094 C 52.3125 49.335938 51.980469 49.308594 51.570312 49.308594 C 51.117188 49.308594 50.824219 49.335938 50.824219 49.375 M 58.949219 49.570312 C 58.925781 49.714844 58.878906 49.832031 58.847656 49.832031 C 58.816406 49.832031 58.769531 49.949219 58.746094 50.089844 C 58.722656 50.234375 58.675781 50.351562 58.644531 50.351562 C 58.613281 50.351562 58.566406 50.46875 58.542969 50.613281 C 58.523438 50.753906 58.480469 50.871094 58.449219 50.871094 C 58.421875 50.871094 58.378906 51.003906 58.355469 51.164062 C 58.332031 51.324219 58.285156 51.457031 58.257812 51.457031 C 58.226562 51.457031 58.183594 51.558594 58.160156 51.683594 C 58.136719 51.8125 58.09375 51.929688 58.0625 51.945312 C 58.035156 51.964844 57.976562 52.140625 57.9375 52.335938 C 57.898438 52.53125 57.839844 52.691406 57.808594 52.691406 C 57.78125 52.691406 57.734375 52.808594 57.710938 52.953125 C 57.6875 53.097656 57.644531 53.226562 57.617188 53.246094 C 57.589844 53.261719 57.546875 53.378906 57.523438 53.503906 C 57.5 53.632812 57.453125 53.734375 57.417969 53.734375 C 57.382812 53.734375 57.355469 53.792969 57.355469 53.863281 C 57.355469 53.984375 57.398438 53.996094 58.03125 53.996094 L 58.703125 53.996094 L 58.746094 53.730469 C 58.773438 53.582031 58.832031 53.386719 58.882812 53.289062 C 58.929688 53.195312 58.972656 53.078125 58.972656 53.035156 C 58.972656 52.976562 59.140625 52.953125 59.585938 52.953125 C 60.15625 52.953125 60.203125 52.960938 60.203125 53.082031 C 60.203125 53.15625 60.226562 53.214844 60.257812 53.214844 C 60.289062 53.214844 60.335938 53.34375 60.359375 53.507812 C 60.382812 53.667969 60.429688 53.800781 60.464844 53.800781 C 60.496094 53.800781 60.523438 53.84375 60.523438 53.898438 C 60.523438 53.976562 60.636719 53.996094 61.140625 53.996094 L 61.753906 53.996094 L 61.753906 53.800781 C 61.753906 53.691406 61.726562 53.605469 61.695312 53.605469 C 61.660156 53.605469 61.617188 53.488281 61.589844 53.34375 C 61.566406 53.199219 61.523438 53.082031 61.496094 53.082031 C 61.46875 53.082031 61.429688 52.964844 61.40625 52.824219 C 61.382812 52.679688 61.335938 52.5625 61.304688 52.5625 C 61.269531 52.5625 61.222656 52.429688 61.199219 52.269531 C 61.175781 52.109375 61.132812 51.976562 61.105469 51.976562 C 61.078125 51.976562 61.035156 51.875 61.015625 51.75 C 60.992188 51.625 60.945312 51.523438 60.914062 51.523438 C 60.882812 51.523438 60.839844 51.398438 60.8125 51.246094 C 60.789062 51.09375 60.714844 50.847656 60.648438 50.695312 C 60.578125 50.546875 60.523438 50.378906 60.523438 50.328125 C 60.523438 50.273438 60.5 50.210938 60.46875 50.191406 C 60.4375 50.171875 60.390625 50.054688 60.367188 49.929688 C 60.34375 49.804688 60.300781 49.699219 60.269531 49.699219 C 60.242188 49.699219 60.199219 49.613281 60.179688 49.503906 L 60.140625 49.308594 L 58.988281 49.308594 L 58.949219 49.570312 M 59.6875 51.296875 C 59.71875 51.335938 59.761719 51.488281 59.785156 51.640625 C 59.808594 51.789062 59.855469 51.914062 59.886719 51.914062 C 59.917969 51.914062 59.941406 51.957031 59.941406 52.011719 C 59.941406 52.085938 59.855469 52.109375 59.550781 52.109375 C 59.167969 52.109375 59.046875 51.945312 59.300781 51.78125 C 59.332031 51.761719 59.375 51.621094 59.398438 51.472656 C 59.421875 51.320312 59.46875 51.195312 59.5 51.195312 C 59.527344 51.195312 59.558594 51.144531 59.5625 51.082031 C 59.566406 50.992188 59.574219 50.992188 59.601562 51.097656 C 59.617188 51.171875 59.65625 51.261719 59.6875 51.296875 M 49.347656 61.402344 C 49.292969 61.4375 49.332031 61.453125 49.460938 61.449219 C 49.570312 61.445312 49.660156 61.421875 49.660156 61.394531 C 49.660156 61.328125 49.457031 61.332031 49.347656 61.402344 M 26.445312 61.996094 L 25.769531 62.035156 L 26.464844 62.046875 C 26.890625 62.054688 27.160156 62.035156 27.160156 61.996094 C 27.160156 61.960938 27.152344 61.9375 27.140625 61.945312 C 27.132812 61.949219 26.820312 61.972656 26.445312 61.996094 M 45.230469 61.996094 L 44.519531 62.035156 L 45.246094 62.046875 C 45.699219 62.054688 45.976562 62.035156 45.976562 61.996094 C 45.976562 61.960938 45.96875 61.9375 45.960938 61.945312 C 45.949219 61.949219 45.621094 61.972656 45.230469 61.996094 M 36.238281 62.164062 C 36.292969 62.21875 36.339844 62.292969 36.339844 62.324219 C 36.339844 62.359375 36.371094 62.386719 36.40625 62.386719 C 36.441406 62.386719 36.425781 62.3125 36.367188 62.222656 C 36.308594 62.132812 36.234375 62.0625 36.199219 62.0625 C 36.164062 62.0625 36.183594 62.105469 36.238281 62.164062 M 36.339844 62.515625 C 36.339844 62.566406 36.292969 62.65625 36.234375 62.722656 C 36.175781 62.789062 36.15625 62.839844 36.191406 62.839844 C 36.273438 62.839844 36.4375 62.527344 36.382812 62.472656 C 36.359375 62.449219 36.339844 62.46875 36.339844 62.515625 M 27.0625 63.191406 C 27.0625 63.351562 27.082031 63.464844 27.109375 63.449219 C 27.136719 63.433594 27.160156 63.304688 27.160156 63.164062 C 27.160156 63.023438 27.136719 62.90625 27.109375 62.90625 C 27.082031 62.90625 27.0625 63.035156 27.0625 63.191406 M 35.613281 63.472656 C 35.695312 63.488281 35.8125 63.488281 35.871094 63.472656 C 35.933594 63.457031 35.867188 63.441406 35.726562 63.445312 C 35.585938 63.445312 35.535156 63.457031 35.613281 63.472656 M 49.46875 63.601562 C 49.46875 63.632812 49.542969 63.707031 49.632812 63.773438 C 49.71875 63.835938 49.789062 63.863281 49.789062 63.835938 C 49.789062 63.808594 49.714844 63.730469 49.625 63.667969 C 49.539062 63.605469 49.46875 63.574219 49.46875 63.601562 M 20.160156 63.917969 C 20.175781 64.007812 20.210938 64.09375 20.238281 64.109375 C 20.265625 64.125 20.273438 64.066406 20.253906 63.976562 C 20.238281 63.886719 20.203125 63.800781 20.175781 63.785156 C 20.148438 63.769531 20.144531 63.828125 20.160156 63.917969 M 22.652344 64.566406 C 22.65625 64.851562 22.664062 64.960938 22.679688 64.808594 C 22.691406 64.65625 22.691406 64.421875 22.679688 64.289062 C 22.664062 64.152344 22.652344 64.277344 22.652344 64.566406 M 21.984375 64.664062 C 21.984375 64.804688 22.007812 64.921875 22.035156 64.921875 C 22.0625 64.921875 22.074219 64.804688 22.0625 64.664062 C 22.046875 64.519531 22.023438 64.402344 22.011719 64.402344 C 21.996094 64.402344 21.984375 64.519531 21.984375 64.664062 M 41.660156 64.792969 C 41.660156 64.953125 41.671875 65.019531 41.6875 64.941406 C 41.703125 64.859375 41.703125 64.726562 41.6875 64.648438 C 41.671875 64.566406 41.660156 64.632812 41.660156 64.792969 "/>
<path style=" stroke:none;fill-rule:evenodd;fill:rgb(38.823529%,41.960784%,20.392157%);fill-opacity:1;" d="M 34.109375 0.0820312 C 33.539062 0.113281 33.0625 0.164062 33.042969 0.191406 C 33.023438 0.222656 32.726562 0.265625 32.378906 0.289062 C 32.035156 0.316406 31.734375 0.359375 31.71875 0.390625 C 31.699219 0.417969 31.453125 0.460938 31.167969 0.488281 C 30.882812 0.511719 30.636719 0.558594 30.617188 0.585938 C 30.597656 0.617188 30.394531 0.660156 30.164062 0.683594 C 29.933594 0.710938 29.746094 0.753906 29.746094 0.78125 C 29.746094 0.8125 29.554688 0.855469 29.324219 0.878906 C 29.09375 0.90625 28.90625 0.949219 28.90625 0.976562 C 28.90625 1.003906 28.785156 1.042969 28.640625 1.066406 C 28.363281 1.109375 27.945312 1.324219 27.277344 1.757812 C 27.066406 1.894531 26.785156 2.042969 26.652344 2.085938 C 26.523438 2.128906 26.386719 2.1875 26.351562 2.210938 C 26.316406 2.238281 26.15625 2.285156 25.996094 2.308594 C 25.835938 2.335938 25.671875 2.382812 25.636719 2.414062 C 25.597656 2.441406 25.285156 2.488281 24.9375 2.511719 C 24.589844 2.535156 24.292969 2.582031 24.273438 2.613281 C 24.257812 2.640625 24.089844 2.667969 23.90625 2.667969 C 23.601562 2.667969 22.675781 2.761719 22.4375 2.820312 C 22.382812 2.832031 22.195312 2.859375 22.019531 2.886719 C 21.839844 2.910156 21.492188 2.972656 21.242188 3.023438 C 20.816406 3.113281 20.589844 3.160156 19.722656 3.328125 C 19.527344 3.367188 19.335938 3.421875 19.300781 3.449219 C 19.265625 3.476562 19.085938 3.519531 18.898438 3.542969 C 18.710938 3.570312 18.542969 3.613281 18.527344 3.644531 C 18.507812 3.671875 18.347656 3.714844 18.171875 3.742188 C 17.992188 3.765625 17.832031 3.808594 17.816406 3.839844 C 17.796875 3.867188 17.636719 3.910156 17.460938 3.9375 C 17.28125 3.960938 17.121094 4.003906 17.101562 4.035156 C 17.085938 4.0625 16.945312 4.109375 16.796875 4.132812 C 16.644531 4.15625 16.492188 4.199219 16.457031 4.226562 C 16.421875 4.257812 16.289062 4.300781 16.164062 4.324219 C 15.929688 4.371094 15.386719 4.535156 15.164062 4.625 C 15.09375 4.65625 14.902344 4.710938 14.742188 4.75 C 14.582031 4.789062 14.394531 4.84375 14.324219 4.875 C 14.25 4.902344 13.976562 4.992188 13.707031 5.070312 C 13.441406 5.148438 13.179688 5.238281 13.125 5.265625 C 13.070312 5.292969 12.925781 5.339844 12.800781 5.367188 C 12.679688 5.394531 12.546875 5.4375 12.511719 5.464844 C 12.476562 5.492188 12.324219 5.535156 12.171875 5.558594 C 12.023438 5.585938 11.882812 5.628906 11.867188 5.65625 C 11.847656 5.6875 11.730469 5.730469 11.601562 5.753906 C 11.46875 5.777344 11.316406 5.824219 11.257812 5.851562 C 11.203125 5.882812 10.808594 6.015625 10.386719 6.148438 C 9.523438 6.414062 9.214844 6.585938 9.125 6.84375 C 9.023438 7.132812 9.160156 7.480469 9.378906 7.480469 C 9.449219 7.480469 9.503906 7.507812 9.503906 7.539062 C 9.503906 7.570312 10.109375 7.609375 10.847656 7.625 C 12.113281 7.652344 12.207031 7.664062 12.476562 7.8125 C 12.769531 7.972656 12.890625 8.132812 12.714844 8.132812 C 12.660156 8.132812 12.535156 8.164062 12.4375 8.207031 C 12.335938 8.25 12.230469 8.277344 12.203125 8.269531 C 12.175781 8.265625 12.09375 8.289062 12.023438 8.328125 C 11.890625 8.402344 11.367188 8.414062 10.992188 8.355469 C 10.558594 8.289062 9.957031 8.277344 9.921875 8.335938 C 9.902344 8.367188 9.859375 8.378906 9.824219 8.355469 C 9.792969 8.335938 9.714844 8.351562 9.648438 8.386719 C 9.582031 8.421875 9.457031 8.460938 9.371094 8.476562 C 9.285156 8.488281 9.164062 8.523438 9.105469 8.550781 C 9.046875 8.574219 8.945312 8.605469 8.878906 8.621094 C 8.816406 8.632812 8.753906 8.648438 8.746094 8.65625 C 8.738281 8.664062 8.707031 8.671875 8.679688 8.679688 C 8.65625 8.683594 8.523438 8.742188 8.394531 8.808594 C 8.261719 8.871094 8.117188 8.902344 8.070312 8.875 C 8.023438 8.847656 8.007812 8.851562 8.035156 8.878906 C 8.085938 8.933594 7.921875 9.007812 7.210938 9.242188 C 6.996094 9.3125 6.777344 9.386719 6.726562 9.410156 C 6.671875 9.433594 6.613281 9.457031 6.59375 9.460938 C 5.9375 9.621094 5.542969 10.832031 6.144531 10.84375 C 6.292969 10.847656 6.789062 10.996094 6.789062 11.035156 C 6.789062 11.054688 6.71875 11.128906 6.628906 11.199219 C 6.269531 11.484375 6.816406 12.398438 7.28125 12.289062 C 7.3125 12.28125 7.390625 12.296875 7.457031 12.324219 C 7.527344 12.355469 7.75 12.328125 8.007812 12.257812 C 8.242188 12.191406 8.453125 12.132812 8.472656 12.128906 C 8.488281 12.125 8.589844 12.085938 8.695312 12.039062 C 9.320312 11.773438 10.410156 12.027344 10.410156 12.4375 C 10.410156 12.53125 10.65625 12.800781 10.707031 12.765625 C 10.789062 12.714844 11.058594 12.761719 11.023438 12.820312 C 10.9375 12.957031 11.257812 13.207031 11.515625 13.207031 C 11.648438 13.207031 11.769531 13.242188 11.785156 13.285156 C 11.804688 13.347656 11.867188 13.347656 12.0625 13.28125 C 12.347656 13.1875 15.035156 13.234375 15.035156 13.332031 C 15.035156 13.457031 18.457031 13.570312 18.601562 13.453125 C 18.644531 13.421875 18.714844 13.398438 18.765625 13.410156 C 18.8125 13.417969 18.9375 13.40625 19.042969 13.382812 C 19.148438 13.359375 19.320312 13.324219 19.421875 13.308594 C 19.523438 13.292969 19.644531 13.246094 19.691406 13.203125 C 19.832031 13.085938 20.632812 12.929688 22.363281 12.679688 C 22.929688 12.597656 23.65625 12.242188 23.566406 12.09375 C 23.546875 12.058594 23.570312 12.019531 23.621094 12 C 23.675781 11.976562 23.707031 11.894531 23.695312 11.789062 C 23.625 11.152344 23.480469 11.007812 22.664062 10.742188 C 22.363281 10.640625 22.136719 10.539062 22.164062 10.507812 C 22.191406 10.476562 22.175781 10.472656 22.132812 10.5 C 22.089844 10.523438 21.988281 10.507812 21.90625 10.460938 C 21.824219 10.417969 21.738281 10.378906 21.710938 10.378906 C 21.621094 10.375 21.398438 10.132812 21.199219 9.820312 C 21.105469 9.675781 21.105469 9.625 21.183594 9.441406 C 21.414062 8.890625 21.148438 8.683594 20.292969 8.746094 C 19.917969 8.777344 19.722656 8.769531 19.691406 8.71875 C 19.667969 8.679688 19.621094 8.667969 19.589844 8.6875 C 19.53125 8.722656 19.269531 8.613281 19.203125 8.523438 C 19.1875 8.5 19.105469 8.433594 19.023438 8.378906 C 18.871094 8.273438 18.871094 8.273438 19.152344 8.226562 C 19.304688 8.203125 19.460938 8.164062 19.496094 8.140625 C 19.558594 8.101562 19.910156 8.015625 20.628906 7.875 C 20.824219 7.832031 21.042969 7.777344 21.113281 7.746094 C 21.183594 7.71875 21.316406 7.664062 21.40625 7.625 C 21.5 7.589844 21.90625 7.523438 22.3125 7.484375 C 22.71875 7.441406 23.109375 7.382812 23.183594 7.351562 C 23.695312 7.132812 27.203125 7.140625 27.445312 7.359375 C 27.535156 7.441406 29.535156 7.429688 29.582031 7.351562 C 29.632812 7.273438 30.132812 7.261719 30.132812 7.339844 C 30.132812 7.371094 30.472656 7.414062 30.882812 7.4375 C 31.296875 7.457031 31.667969 7.503906 31.707031 7.535156 C 31.75 7.566406 32.015625 7.628906 32.300781 7.671875 C 32.800781 7.75 33.296875 7.902344 33.367188 7.992188 C 33.382812 8.015625 33.53125 8.09375 33.691406 8.160156 C 33.847656 8.226562 34.199219 8.382812 34.464844 8.503906 C 35.136719 8.8125 35.183594 8.832031 35.402344 8.878906 C 35.507812 8.902344 35.683594 8.960938 35.789062 9.011719 C 36.175781 9.1875 36.511719 9.316406 37.085938 9.511719 C 37.40625 9.617188 37.6875 9.742188 37.710938 9.78125 C 37.777344 9.882812 40.035156 9.882812 40.160156 9.785156 C 40.210938 9.742188 40.34375 9.695312 40.457031 9.671875 C 40.652344 9.636719 41.226562 9.316406 41.464844 9.109375 C 41.8125 8.8125 41.714844 8.257812 41.28125 8.035156 C 41.140625 7.960938 41.019531 7.882812 41.007812 7.855469 C 40.996094 7.828125 40.953125 7.804688 40.914062 7.804688 C 40.816406 7.804688 40.421875 7.53125 40.386719 7.441406 C 40.367188 7.390625 40.429688 7.382812 40.597656 7.417969 C 41.140625 7.53125 43.3125 7.617188 43.34375 7.523438 C 43.378906 7.417969 44.101562 7.816406 44.136719 7.960938 C 44.171875 8.105469 44.375 8.222656 44.714844 8.296875 C 44.820312 8.320312 44.945312 8.347656 44.988281 8.363281 C 45.101562 8.398438 45.019531 8.574219 44.871094 8.621094 C 44.667969 8.6875 44.804688 9.429688 45.015625 9.433594 C 45.042969 9.433594 45.109375 9.484375 45.171875 9.546875 C 45.3125 9.683594 46.203125 9.730469 46.355469 9.609375 C 46.433594 9.546875 46.441406 9.546875 46.40625 9.609375 C 46.371094 9.667969 46.40625 9.664062 46.539062 9.601562 C 47.058594 9.339844 48.175781 9.191406 48.175781 9.378906 C 48.175781 9.40625 48.210938 9.433594 48.257812 9.433594 C 48.414062 9.433594 48.820312 9.761719 48.820312 9.890625 C 48.820312 9.996094 48.863281 10.019531 49.070312 10.019531 C 49.296875 10.019531 49.324219 10.039062 49.359375 10.207031 C 49.378906 10.308594 49.441406 10.4375 49.492188 10.492188 C 49.546875 10.542969 49.578125 10.597656 49.566406 10.613281 C 49.554688 10.625 49.796875 10.644531 50.101562 10.65625 C 50.410156 10.667969 50.75 10.71875 50.859375 10.769531 C 50.964844 10.816406 51.21875 10.875 51.421875 10.898438 C 51.628906 10.925781 51.796875 10.964844 51.796875 10.992188 C 51.796875 11.019531 51.875 11.058594 51.972656 11.078125 C 52.070312 11.097656 52.355469 11.289062 52.609375 11.503906 C 53.097656 11.917969 53.5 12.164062 53.6875 12.164062 C 53.75 12.164062 53.800781 12.191406 53.800781 12.226562 C 53.800781 12.257812 54.003906 12.308594 54.253906 12.332031 C 54.5 12.355469 54.703125 12.402344 54.703125 12.433594 C 54.703125 12.507812 56.433594 12.507812 56.476562 12.433594 C 56.496094 12.402344 56.78125 12.359375 57.109375 12.332031 C 57.4375 12.308594 57.738281 12.265625 57.773438 12.234375 C 57.8125 12.207031 58.007812 12.160156 58.210938 12.136719 C 58.96875 12.042969 59.425781 11.699219 59.425781 11.214844 L 59.425781 10.945312 L 60.167969 10.917969 C 60.621094 10.898438 60.945312 10.859375 60.992188 10.8125 C 61.03125 10.769531 61.105469 10.734375 61.15625 10.734375 C 61.238281 10.734375 61.742188 10.503906 62.0625 10.316406 C 62.46875 10.082031 62.515625 9.6875 62.167969 9.371094 C 61.992188 9.210938 61.941406 9.121094 61.964844 9.003906 C 61.980469 8.917969 61.96875 8.847656 61.9375 8.847656 C 61.90625 8.847656 61.882812 8.792969 61.882812 8.722656 C 61.882812 8.570312 61.378906 8.222656 61.023438 8.125 C 60.78125 8.0625 60.816406 7.886719 61.074219 7.871094 C 61.109375 7.867188 61.253906 7.808594 61.398438 7.742188 C 61.539062 7.671875 61.691406 7.613281 61.738281 7.613281 C 61.78125 7.613281 61.816406 7.582031 61.816406 7.546875 C 61.816406 7.511719 61.851562 7.480469 61.894531 7.480469 C 61.9375 7.480469 62.066406 7.414062 62.183594 7.335938 C 62.40625 7.183594 62.476562 6.960938 62.300781 6.960938 C 62.25 6.960938 62.152344 6.933594 62.09375 6.898438 C 61.945312 6.816406 61.007812 6.425781 60.105469 6.066406 C 59.609375 5.867188 59.261719 5.71875 59.152344 5.65625 C 59.089844 5.621094 59.003906 5.59375 58.957031 5.59375 C 58.914062 5.589844 58.757812 5.535156 58.617188 5.464844 C 58.476562 5.394531 58.324219 5.335938 58.285156 5.335938 C 58.246094 5.335938 58.128906 5.289062 58.027344 5.238281 C 57.925781 5.183594 57.796875 5.140625 57.738281 5.140625 C 57.683594 5.140625 57.617188 5.117188 57.59375 5.09375 C 57.492188 4.992188 56.628906 4.8125 55.964844 4.75 C 55.113281 4.675781 54.699219 4.53125 54.34375 4.195312 C 54.304688 4.160156 54.160156 4.074219 54.019531 4.007812 C 53.882812 3.941406 53.710938 3.851562 53.636719 3.8125 C 53.554688 3.765625 52.816406 3.734375 51.535156 3.71875 C 50.425781 3.707031 49.539062 3.671875 49.503906 3.640625 C 49.46875 3.605469 49.382812 3.578125 49.308594 3.578125 C 49.195312 3.578125 48.140625 3.089844 48.042969 2.992188 C 47.980469 2.929688 47.75 2.796875 47.59375 2.730469 C 47.503906 2.695312 47.351562 2.621094 47.257812 2.570312 C 47.164062 2.515625 47.027344 2.472656 46.957031 2.472656 C 46.882812 2.472656 46.804688 2.441406 46.785156 2.40625 C 46.761719 2.371094 46.671875 2.34375 46.585938 2.34375 C 46.441406 2.34375 46.429688 2.316406 46.429688 2.015625 C 46.429688 1.609375 46.128906 1.117188 45.878906 1.109375 C 45.84375 1.105469 45.734375 1.0625 45.636719 1.011719 C 45.539062 0.960938 45.320312 0.898438 45.152344 0.875 C 44.980469 0.847656 44.816406 0.804688 44.777344 0.777344 C 44.742188 0.75 44.53125 0.703125 44.308594 0.679688 C 44.085938 0.652344 43.890625 0.609375 43.871094 0.582031 C 43.855469 0.550781 43.605469 0.507812 43.320312 0.484375 C 43.035156 0.457031 42.789062 0.414062 42.773438 0.386719 C 42.757812 0.359375 42.457031 0.316406 42.113281 0.292969 C 41.765625 0.265625 41.453125 0.222656 41.417969 0.195312 C 41.199219 0.0234375 36.332031 -0.0507812 34.109375 0.0820312 M 0 46.449219 L 0 57.703125 L 71 57.703125 L 71 35.195312 L 61.023438 35.195312 C 50.355469 35.195312 50.890625 35.175781 50.890625 35.519531 C 50.890625 35.863281 50.375 35.84375 60.765625 35.84375 L 70.484375 35.84375 L 70.484375 57.050781 L 0.515625 57.050781 L 0.515625 35.84375 L 10.683594 35.828125 L 20.855469 35.8125 L 20.855469 35.226562 L 10.425781 35.210938 L 0 35.195312 L 0 46.449219 "/>
</g>
</svg>
