<svg id="svg" xmlns="http://www.w3.org/2000/svg" xmlns:xlink="http://www.w3.org/1999/xlink" width="400" height="364.1231593038822" viewBox="0, 0, 400,364.1231593038822"><g id="svgg"><path id="path0" d="M190.867 0.817 C 172.315 2.658,160.483 5.595,153.414 10.114 C 149.549 12.584,144.979 13.767,134.672 14.965 C 115.317 17.214,103.706 20.147,63.383 32.973 C 53.708 36.050,51.406 37.279,51.406 39.366 C 51.406 41.656,53.194 42.303,59.531 42.303 C 62.690 42.303,66.465 42.558,67.920 42.870 C 75.914 44.584,72.047 46.722,60.776 46.819 L 53.280 46.884 45.103 49.924 C 35.504 53.493,33.995 54.304,33.147 56.351 C 32.156 58.744,33.171 60.351,36.149 61.101 C 38.472 61.686,38.541 61.756,37.504 62.482 C 32.475 66.004,40.471 70.415,47.440 67.963 C 53.212 65.933,57.899 66.757,58.699 69.945 C 58.943 70.918,59.383 71.218,60.567 71.218 C 61.575 71.218,62.115 71.494,62.115 72.009 C 62.115 73.998,64.470 74.568,71.081 74.181 C 75.697 73.910,79.233 74.050,84.337 74.706 C 92.790 75.792,101.133 75.892,106.671 74.975 L 110.799 74.291 114.834 76.207 C 119.996 78.659,123.010 80.748,127.818 85.206 C 133.809 90.760,137.899 91.081,146.554 86.673 C 152.845 83.470,153.710 83.605,160.083 88.797 C 161.709 90.121,164.850 92.033,167.062 93.046 C 169.274 94.058,171.611 95.136,172.254 95.440 C 175.392 96.925,176.369 106.048,174.850 119.679 C 170.815 155.871,168.331 243.977,171.195 249.330 C 174.218 254.982,182.182 258.379,192.236 258.306 C 197.637 258.266,198.451 258.051,212.851 252.850 C 222.783 249.262,229.011 248.942,234.764 251.721 C 235.920 252.280,236.963 252.640,237.082 252.521 C 237.712 251.891,234.982 206.857,231.333 157.697 C 227.570 107.007,227.133 100.027,227.638 98.667 C 227.922 97.899,234.649 93.097,246.317 85.331 L 264.552 73.195 269.261 75.434 C 277.583 79.388,282.491 78.971,284.873 74.108 C 287.155 69.449,288.426 68.506,294.556 66.925 C 297.931 66.055,298.164 66.059,300.021 67.012 C 305.049 69.591,313.272 70.247,322.356 68.794 C 332.199 67.219,334.672 65.975,334.672 62.600 C 334.672 61.208,334.750 61.177,338.833 60.941 C 347.361 60.447,353.679 55.892,350.201 52.744 C 349.612 52.211,349.130 51.192,349.130 50.478 C 349.130 48.717,346.577 46.292,343.869 45.480 L 341.641 44.813 344.523 43.641 C 348.143 42.170,350.859 40.597,351.117 39.821 C 351.314 39.230,326.508 29.063,321.933 27.860 C 320.669 27.528,317.536 27.020,314.971 26.732 C 311.183 26.307,309.755 25.873,307.363 24.420 C 305.743 23.436,303.815 22.300,303.079 21.894 C 302.102 21.355,298.520 21.083,289.837 20.886 L 277.933 20.616 271.500 17.276 C 267.962 15.439,264.153 13.790,263.035 13.611 C 261.087 13.300,261.012 13.211,261.217 11.459 C 261.682 7.473,259.390 6.004,249.574 3.995 C 230.920 0.179,209.165 -0.999,190.867 0.817 M162.784 40.991 C 173.488 41.147,183.133 42.299,183.133 43.421 C 183.133 44.372,179.535 47.900,175.398 51.005 C 169.813 55.199,167.946 56.945,165.385 60.375 C 162.864 63.752,162.345 63.803,158.755 61.034 C 153.885 57.277,149.286 50.494,147.039 43.756 C 145.782 39.985,145.799 39.955,148.996 40.421 C 150.542 40.646,156.747 40.903,162.784 40.991 M133.580 41.197 C 134.007 41.888,129.444 42.509,127.898 41.970 C 126.767 41.577,126.856 41.498,128.782 41.190 C 132.133 40.655,133.246 40.656,133.580 41.197 M237.483 42.080 C 246.063 42.325,247.917 42.734,248.742 44.559 C 249.029 45.194,249.987 45.929,250.870 46.193 C 254.241 47.197,254.166 47.147,253.146 47.720 C 251.882 48.429,251.939 51.136,253.245 52.442 C 255.470 54.667,259.383 54.779,264.994 52.777 C 268.688 51.459,273.628 52.383,273.628 54.392 C 273.628 57.355,264.947 63.838,258.353 65.799 C 237.886 71.887,221.723 74.108,216.945 71.488 C 211.301 68.393,210.600 66.745,211.316 58.266 L 211.655 54.255 214.395 54.763 C 223.249 56.402,234.538 52.755,234.538 48.254 C 234.538 46.573,233.795 45.807,230.148 43.725 C 227.229 42.060,226.169 40.848,228.163 41.456 C 228.871 41.673,233.066 41.953,237.483 42.080 M121.622 43.858 C 123.111 45.246,125.783 45.662,130.414 45.228 C 135.420 44.759,137.547 45.467,140.204 48.485 C 142.403 50.983,142.905 52.130,145.681 61.001 C 147.200 65.855,147.761 66.926,149.995 69.244 L 152.563 71.908 150.814 73.657 C 147.205 77.266,141.596 77.374,130.796 74.043 C 123.613 71.827,123.176 71.524,126.421 71.005 C 136.027 69.469,135.967 62.389,126.324 59.460 C 121.039 57.855,119.152 55.983,119.591 52.782 C 120.054 49.401,118.866 48.465,114.672 48.903 C 111.941 49.189,111.144 49.042,108.641 47.793 L 105.756 46.354 112.718 44.629 C 121.109 42.549,120.292 42.619,121.622 43.858 M194.442 47.484 L 198.599 49.384 198.958 52.254 C 200.183 62.056,198.341 70.902,194.716 72.631 C 191.018 74.394,180.929 70.734,175.140 65.529 L 172.372 63.041 173.603 61.730 C 176.029 59.144,182.728 54.390,187.571 51.818 L 192.503 49.198 188.889 49.478 C 184.816 49.794,184.592 49.539,186.479 46.739 C 187.903 44.627,188.265 44.660,194.442 47.484 M287.550 60.332 C 293.689 61.646,293.620 61.744,284.637 64.473 C 275.177 67.346,274.468 67.379,274.345 64.960 C 274.084 59.800,278.246 58.342,287.550 60.332 M0.000 259.973 L 0.000 322.892 200.000 322.892 L 400.000 322.892 400.000 259.973 L 400.000 197.055 343.507 197.055 L 287.015 197.055 287.015 198.661 L 287.015 200.268 342.169 200.268 L 397.323 200.268 397.323 259.973 L 397.323 319.679 200.000 319.679 L 2.677 319.679 2.677 259.973 L 2.677 200.268 59.973 200.268 L 117.269 200.268 117.269 198.661 L 117.269 197.055 58.635 197.055 L 0.000 197.055 0.000 259.973 M54.618 278.983 L 54.618 281.660 58.635 281.660 L 62.651 281.660 62.651 291.834 L 62.651 302.008 65.596 302.008 L 68.541 302.008 68.541 291.834 L 68.541 281.660 72.557 281.660 L 76.573 281.660 76.573 278.983 L 76.573 276.305 65.596 276.305 L 54.618 276.305 54.618 278.983 M99.598 289.157 L 99.598 302.008 108.701 302.008 L 117.805 302.008 117.805 299.063 L 117.805 296.118 111.914 296.118 L 106.024 296.118 106.024 293.708 L 106.024 291.299 111.111 291.299 L 116.198 291.299 116.198 288.621 L 116.198 285.944 111.111 285.944 L 106.024 285.944 106.024 283.802 L 106.024 281.660 111.914 281.660 L 117.805 281.660 117.805 278.983 L 117.805 276.305 108.701 276.305 L 99.598 276.305 99.598 289.157 M141.901 289.157 L 141.901 302.008 145.114 302.008 L 148.327 302.008 148.327 291.834 L 148.327 281.660 150.677 281.660 C 153.542 281.660,155.422 282.998,155.422 285.037 C 155.422 287.229,154.388 288.086,151.742 288.086 C 148.829 288.086,148.741 287.535,152.908 295.391 L 156.419 302.008 159.869 302.008 C 163.977 302.008,163.931 302.226,160.910 297.066 C 158.099 292.263,158.120 292.379,159.787 290.812 C 162.423 288.336,162.611 283.034,160.183 279.625 C 158.240 276.896,156.188 276.305,148.647 276.305 L 141.901 276.305 141.901 289.157 M193.120 276.709 C 192.633 277.498,184.203 300.871,184.203 301.435 C 184.203 301.777,185.464 302.008,187.325 302.008 L 190.447 302.008 192.406 295.394 C 193.484 291.757,194.771 287.841,195.266 286.693 L 196.166 284.605 198.714 292.369 C 200.115 296.640,201.279 300.556,201.300 301.071 C 201.333 301.863,201.876 302.008,204.810 302.008 L 208.281 302.008 206.391 296.787 C 205.352 293.916,203.256 288.133,201.734 283.936 L 198.966 276.305 196.168 276.305 C 194.629 276.305,193.258 276.487,193.120 276.709 M231.325 289.157 L 231.325 302.008 234.255 302.008 L 237.184 302.008 237.334 295.060 L 237.483 288.113 243.016 295.060 L 248.548 302.008 251.182 302.008 L 253.815 302.008 253.815 289.157 L 253.815 276.305 250.602 276.305 L 247.390 276.305 247.390 283.348 L 247.390 290.391 241.901 283.386 L 236.412 276.381 233.869 276.343 L 231.325 276.305 231.325 289.157 M284.288 277.551 C 278.051 280.843,275.851 288.747,279.268 295.582 C 282.013 301.072,288.994 303.614,294.130 300.995 C 296.080 300.001,296.118 300.001,296.118 300.995 C 296.118 301.854,296.526 302.008,298.795 302.008 L 301.473 302.008 301.473 295.047 L 301.473 288.086 298.795 288.086 L 296.118 288.086 296.101 290.897 C 296.060 297.707,286.428 298.065,284.411 291.332 C 282.255 284.138,290.578 278.510,295.020 284.157 L 296.080 285.505 298.229 283.984 C 304.660 279.434,291.887 273.540,284.288 277.551 M328.402 288.196 C 326.007 294.762,323.882 300.556,323.680 301.071 C 323.353 301.904,323.693 302.008,326.753 302.008 L 330.193 302.008 331.121 299.063 L 332.049 296.118 335.673 296.118 L 339.296 296.118 340.224 299.063 L 341.152 302.008 344.338 302.008 C 348.289 302.008,348.400 303.173,343.057 288.621 L 338.634 276.573 335.695 276.416 L 332.756 276.259 328.402 288.196 M337.010 288.315 C 338.192 291.882,338.214 291.834,335.431 291.834 C 333.677 291.834,333.055 291.643,333.252 291.165 C 333.403 290.797,333.950 289.227,334.467 287.677 C 335.524 284.511,335.771 284.573,337.010 288.315 M276.133 344.546 C 270.638 346.522,271.193 352.484,277.107 355.020 C 280.024 356.270,281.455 358.221,280.612 359.797 C 279.690 361.520,276.439 361.925,273.542 360.680 C 272.461 360.215,271.595 362.305,272.496 363.205 C 273.518 364.227,279.156 364.338,281.023 363.373 C 285.720 360.944,284.747 355.064,279.245 352.631 C 273.557 350.115,275.074 344.789,280.853 346.987 C 282.408 347.578,283.238 347.082,283.258 345.551 C 283.275 344.262,278.713 343.618,276.133 344.546 M108.247 353.253 C 107.434 364.839,107.392 364.123,108.899 364.123 C 110.368 364.123,110.827 362.392,110.837 356.827 C 110.850 349.601,111.307 349.591,113.721 356.761 C 116.897 366.189,117.697 366.196,121.016 356.823 C 123.731 349.154,124.132 349.343,124.199 358.323 C 124.237 363.350,124.508 364.123,126.231 364.123 L 127.581 364.123 127.251 359.438 C 127.069 356.861,126.763 352.390,126.571 349.504 L 126.221 344.255 124.333 344.417 L 122.445 344.578 119.997 351.616 L 117.549 358.654 115.083 351.616 L 112.617 344.578 110.747 344.417 L 108.877 344.256 108.247 353.253 M141.901 354.217 L 141.901 364.123 147.523 364.123 L 153.146 364.123 153.146 362.784 C 153.146 361.476,153.057 361.446,149.130 361.446 L 145.114 361.446 145.114 358.233 L 145.114 355.020 148.862 355.020 C 152.503 355.020,152.610 354.982,152.610 353.681 C 152.610 352.381,152.503 352.343,148.862 352.343 L 145.114 352.343 145.114 349.665 L 145.114 346.988 148.862 346.988 C 152.503 346.988,152.610 346.950,152.610 345.649 L 152.610 344.311 147.256 344.311 L 141.901 344.311 141.901 354.217 M167.068 351.289 C 167.068 361.222,168.634 364.132,173.968 364.115 C 180.026 364.096,181.526 361.637,181.526 351.728 L 181.526 344.311 180.249 344.311 C 178.978 344.311,178.972 344.340,178.762 351.512 C 178.521 359.758,177.754 361.446,174.243 361.446 C 170.950 361.446,170.281 359.762,170.281 351.467 L 170.281 344.311 168.675 344.311 L 167.068 344.311 167.068 351.289 M196.641 354.083 L 196.787 363.855 199.978 364.019 C 207.715 364.417,212.133 358.841,207.517 354.504 C 206.274 353.336,206.270 353.301,207.277 352.295 C 210.956 348.616,207.395 344.311,200.672 344.311 L 196.495 344.311 196.641 354.083 M223.293 354.217 L 223.293 364.123 228.916 364.123 L 234.538 364.123 234.538 362.784 C 234.538 361.468,234.467 361.446,230.254 361.446 L 225.971 361.446 225.971 352.878 L 225.971 344.311 224.632 344.311 L 223.293 344.311 223.293 354.217 M247.925 354.217 L 247.925 364.123 253.548 364.123 L 259.170 364.123 259.170 362.784 C 259.170 361.468,259.099 361.446,254.886 361.446 L 250.602 361.446 250.602 358.233 L 250.602 355.020 254.351 355.020 C 257.992 355.020,258.099 354.982,258.099 353.681 C 258.099 352.381,257.992 352.343,254.351 352.343 L 250.602 352.343 250.602 349.665 L 250.602 346.988 254.618 346.988 C 258.545 346.988,258.635 346.958,258.635 345.649 L 258.635 344.311 253.280 344.311 L 247.925 344.311 247.925 354.217 M203.145 346.962 C 206.548 348.256,205.349 352.343,201.568 352.343 L 199.732 352.343 199.732 349.755 C 199.732 346.298,200.261 345.866,203.145 346.962 M205.087 356.091 C 207.216 358.220,205.134 361.446,201.631 361.446 L 199.732 361.446 199.732 358.233 L 199.732 355.020 201.874 355.020 C 203.302 355.020,204.373 355.377,205.087 356.091 " stroke="none" fill="#000000" fill-rule="evenodd"></path></g></svg>